%TF.GenerationSoftware,KiCad,Pcbnew,(5.1.8)-1*%
%TF.CreationDate,2021-01-31T12:31:16-05:00*%
%TF.ProjectId,test CNC,74657374-2043-44e4-932e-6b696361645f,rev?*%
%TF.SameCoordinates,Original*%
%TF.FileFunction,Legend,Top*%
%TF.FilePolarity,Positive*%
%FSLAX46Y46*%
G04 Gerber Fmt 4.6, Leading zero omitted, Abs format (unit mm)*
G04 Created by KiCad (PCBNEW (5.1.8)-1) date 2021-01-31 12:31:16*
%MOMM*%
%LPD*%
G01*
G04 APERTURE LIST*
%ADD10C,0.120000*%
%ADD11C,0.100000*%
%ADD12C,0.150000*%
G04 APERTURE END LIST*
D10*
%TO.C,D1*%
X149540400Y-60311800D02*
X149540400Y-60155800D01*
X149540400Y-62627800D02*
X149540400Y-62471800D01*
X146308065Y-62470408D02*
G75*
G03*
X149540400Y-62627316I1672335J1078608D01*
G01*
X146308065Y-60313192D02*
G75*
G02*
X149540400Y-60156284I1672335J-1078608D01*
G01*
X146939270Y-62471637D02*
G75*
G03*
X149021361Y-62471800I1041130J1079837D01*
G01*
X146939270Y-60311963D02*
G75*
G02*
X149021361Y-60311800I1041130J-1079837D01*
G01*
%TO.C,D2*%
X136710300Y-64042000D02*
X136710300Y-61357000D01*
X134790300Y-64042000D02*
X136710300Y-64042000D01*
X134790300Y-61357000D02*
X134790300Y-64042000D01*
%TO.C,J1*%
X112512800Y-68948300D02*
X112512800Y-67618300D01*
X112512800Y-67618300D02*
X113842800Y-67618300D01*
X115112800Y-67618300D02*
X125332800Y-67618300D01*
X125332800Y-70278300D02*
X125332800Y-67618300D01*
X115112800Y-70278300D02*
X125332800Y-70278300D01*
X115112800Y-70278300D02*
X115112800Y-67618300D01*
%TO.C,J2*%
X138236000Y-86267600D02*
X136906000Y-86267600D01*
X138236000Y-84937600D02*
X138236000Y-86267600D01*
X138236000Y-83667600D02*
X135576000Y-83667600D01*
X135576000Y-83667600D02*
X135576000Y-73447600D01*
X138236000Y-83667600D02*
X138236000Y-73447600D01*
X138236000Y-73447600D02*
X135576000Y-73447600D01*
D11*
%TO.C,MOD1*%
X109649600Y-65405200D02*
X112299600Y-65405200D01*
X109649600Y-64355200D02*
X109649600Y-65405200D01*
X127799600Y-65425200D02*
X125099600Y-65425200D01*
X127799600Y-64385200D02*
X127799600Y-65425200D01*
X109679600Y-39785200D02*
X111309600Y-39785200D01*
X109679600Y-41415200D02*
X109679600Y-39785200D01*
X127749600Y-39785200D02*
X126109600Y-39785200D01*
X127749600Y-41405200D02*
X127749600Y-39785200D01*
D10*
%TO.C,R1*%
X142653000Y-68099000D02*
X142653000Y-68429000D01*
X149193000Y-68099000D02*
X142653000Y-68099000D01*
X149193000Y-68429000D02*
X149193000Y-68099000D01*
X142653000Y-70839000D02*
X142653000Y-70509000D01*
X149193000Y-70839000D02*
X142653000Y-70839000D01*
X149193000Y-70509000D02*
X149193000Y-70839000D01*
%TO.C,R2*%
X135612200Y-68378336D02*
X135612200Y-68832464D01*
X137082200Y-68378336D02*
X137082200Y-68832464D01*
%TO.C,SW1*%
X151199800Y-51336200D02*
X151199800Y-49836200D01*
X149949800Y-47336200D02*
X145449800Y-47336200D01*
X144199800Y-49836200D02*
X144199800Y-51336200D01*
X145449800Y-53836200D02*
X149949800Y-53836200D01*
%TO.C,SW2*%
X136465067Y-50012600D02*
X136465067Y-48742600D01*
X137818400Y-48812600D02*
X136465067Y-48812600D01*
X137818400Y-48932600D02*
X136465067Y-48932600D01*
X137818400Y-49052600D02*
X136465067Y-49052600D01*
X137818400Y-49172600D02*
X136465067Y-49172600D01*
X137818400Y-49292600D02*
X136465067Y-49292600D01*
X137818400Y-49412600D02*
X136465067Y-49412600D01*
X137818400Y-49532600D02*
X136465067Y-49532600D01*
X137818400Y-49652600D02*
X136465067Y-49652600D01*
X137818400Y-49772600D02*
X136465067Y-49772600D01*
X137818400Y-49892600D02*
X136465067Y-49892600D01*
X133758400Y-50012600D02*
X137818400Y-50012600D01*
X133758400Y-48742600D02*
X133758400Y-50012600D01*
X137818400Y-48742600D02*
X133758400Y-48742600D01*
X137818400Y-50012600D02*
X137818400Y-48742600D01*
X136465067Y-52552600D02*
X136465067Y-51282600D01*
X137818400Y-51352600D02*
X136465067Y-51352600D01*
X137818400Y-51472600D02*
X136465067Y-51472600D01*
X137818400Y-51592600D02*
X136465067Y-51592600D01*
X137818400Y-51712600D02*
X136465067Y-51712600D01*
X137818400Y-51832600D02*
X136465067Y-51832600D01*
X137818400Y-51952600D02*
X136465067Y-51952600D01*
X137818400Y-52072600D02*
X136465067Y-52072600D01*
X137818400Y-52192600D02*
X136465067Y-52192600D01*
X137818400Y-52312600D02*
X136465067Y-52312600D01*
X137818400Y-52432600D02*
X136465067Y-52432600D01*
X133758400Y-52552600D02*
X137818400Y-52552600D01*
X133758400Y-51282600D02*
X133758400Y-52552600D01*
X137818400Y-51282600D02*
X133758400Y-51282600D01*
X137818400Y-52552600D02*
X137818400Y-51282600D01*
X140978400Y-54577600D02*
X140978400Y-53194600D01*
X140978400Y-54577600D02*
X139594400Y-54577600D01*
X130838400Y-54337600D02*
X130838400Y-46957600D01*
X140738400Y-54337600D02*
X140738400Y-46957600D01*
X140738400Y-46957600D02*
X130838400Y-46957600D01*
X140738400Y-54337600D02*
X130838400Y-54337600D01*
%TO.C,U1*%
X149106400Y-75403400D02*
X147456400Y-75403400D01*
X149106400Y-85683400D02*
X149106400Y-75403400D01*
X143806400Y-85683400D02*
X149106400Y-85683400D01*
X143806400Y-75403400D02*
X143806400Y-85683400D01*
X145456400Y-75403400D02*
X143806400Y-75403400D01*
X147456400Y-75403400D02*
G75*
G02*
X145456400Y-75403400I-1000000J0D01*
G01*
D11*
%TO.C,U2*%
X129101400Y-84397400D02*
X128651400Y-84397400D01*
X129101400Y-84397400D02*
X129101400Y-83947400D01*
X129101400Y-77197400D02*
X129101400Y-77647400D01*
X129101400Y-77197400D02*
X128651400Y-77197400D01*
X121901400Y-77197400D02*
X122351400Y-77197400D01*
X121901400Y-77197400D02*
X121901400Y-77647400D01*
X122351400Y-84397400D02*
X122351400Y-85697400D01*
X122251400Y-84397400D02*
X122351400Y-84397400D01*
X121901400Y-84047400D02*
X122251400Y-84397400D01*
X121901400Y-83947400D02*
X121901400Y-84047400D01*
%TO.C,U3*%
X109769600Y-82567200D02*
X109769600Y-82267200D01*
X110069600Y-82567200D02*
X109769600Y-82567200D01*
X114969600Y-82567200D02*
X114969600Y-82267200D01*
X114669600Y-82567200D02*
X114969600Y-82567200D01*
X109769600Y-78367200D02*
X109769600Y-78667200D01*
X110069600Y-78367200D02*
X109769600Y-78367200D01*
X114669600Y-78567200D02*
X114669600Y-77767200D01*
X114969600Y-78867200D02*
X114669600Y-78567200D01*
X114969600Y-79267200D02*
X114969600Y-78867200D01*
%TO.C,D1*%
D12*
X147242304Y-64804180D02*
X147242304Y-63804180D01*
X147480400Y-63804180D01*
X147623257Y-63851800D01*
X147718495Y-63947038D01*
X147766114Y-64042276D01*
X147813733Y-64232752D01*
X147813733Y-64375609D01*
X147766114Y-64566085D01*
X147718495Y-64661323D01*
X147623257Y-64756561D01*
X147480400Y-64804180D01*
X147242304Y-64804180D01*
X148766114Y-64804180D02*
X148194685Y-64804180D01*
X148480400Y-64804180D02*
X148480400Y-63804180D01*
X148385161Y-63947038D01*
X148289923Y-64042276D01*
X148194685Y-64089895D01*
%TO.C,D2*%
X134552680Y-63095095D02*
X133552680Y-63095095D01*
X133552680Y-62857000D01*
X133600300Y-62714142D01*
X133695538Y-62618904D01*
X133790776Y-62571285D01*
X133981252Y-62523666D01*
X134124109Y-62523666D01*
X134314585Y-62571285D01*
X134409823Y-62618904D01*
X134505061Y-62714142D01*
X134552680Y-62857000D01*
X134552680Y-63095095D01*
X133647919Y-62142714D02*
X133600300Y-62095095D01*
X133552680Y-61999857D01*
X133552680Y-61761761D01*
X133600300Y-61666523D01*
X133647919Y-61618904D01*
X133743157Y-61571285D01*
X133838395Y-61571285D01*
X133981252Y-61618904D01*
X134552680Y-62190333D01*
X134552680Y-61571285D01*
%TO.C,J1*%
X110525180Y-69281633D02*
X111239466Y-69281633D01*
X111382323Y-69329252D01*
X111477561Y-69424490D01*
X111525180Y-69567347D01*
X111525180Y-69662585D01*
X111525180Y-68281633D02*
X111525180Y-68853061D01*
X111525180Y-68567347D02*
X110525180Y-68567347D01*
X110668038Y-68662585D01*
X110763276Y-68757823D01*
X110810895Y-68853061D01*
%TO.C,J2*%
X136572666Y-86719980D02*
X136572666Y-87434266D01*
X136525047Y-87577123D01*
X136429809Y-87672361D01*
X136286952Y-87719980D01*
X136191714Y-87719980D01*
X137001238Y-86815219D02*
X137048857Y-86767600D01*
X137144095Y-86719980D01*
X137382190Y-86719980D01*
X137477428Y-86767600D01*
X137525047Y-86815219D01*
X137572666Y-86910457D01*
X137572666Y-87005695D01*
X137525047Y-87148552D01*
X136953619Y-87719980D01*
X137572666Y-87719980D01*
%TO.C,MOD1*%
X116896266Y-39337580D02*
X116896266Y-38337580D01*
X117229600Y-39051866D01*
X117562933Y-38337580D01*
X117562933Y-39337580D01*
X118229600Y-38337580D02*
X118420076Y-38337580D01*
X118515314Y-38385200D01*
X118610552Y-38480438D01*
X118658171Y-38670914D01*
X118658171Y-39004247D01*
X118610552Y-39194723D01*
X118515314Y-39289961D01*
X118420076Y-39337580D01*
X118229600Y-39337580D01*
X118134361Y-39289961D01*
X118039123Y-39194723D01*
X117991504Y-39004247D01*
X117991504Y-38670914D01*
X118039123Y-38480438D01*
X118134361Y-38385200D01*
X118229600Y-38337580D01*
X119086742Y-39337580D02*
X119086742Y-38337580D01*
X119324838Y-38337580D01*
X119467695Y-38385200D01*
X119562933Y-38480438D01*
X119610552Y-38575676D01*
X119658171Y-38766152D01*
X119658171Y-38909009D01*
X119610552Y-39099485D01*
X119562933Y-39194723D01*
X119467695Y-39289961D01*
X119324838Y-39337580D01*
X119086742Y-39337580D01*
X120610552Y-39337580D02*
X120039123Y-39337580D01*
X120324838Y-39337580D02*
X120324838Y-38337580D01*
X120229600Y-38480438D01*
X120134361Y-38575676D01*
X120039123Y-38623295D01*
%TO.C,R1*%
X145756333Y-72291380D02*
X145423000Y-71815190D01*
X145184904Y-72291380D02*
X145184904Y-71291380D01*
X145565857Y-71291380D01*
X145661095Y-71339000D01*
X145708714Y-71386619D01*
X145756333Y-71481857D01*
X145756333Y-71624714D01*
X145708714Y-71719952D01*
X145661095Y-71767571D01*
X145565857Y-71815190D01*
X145184904Y-71815190D01*
X146708714Y-72291380D02*
X146137285Y-72291380D01*
X146423000Y-72291380D02*
X146423000Y-71291380D01*
X146327761Y-71434238D01*
X146232523Y-71529476D01*
X146137285Y-71577095D01*
%TO.C,R2*%
X138449580Y-68772066D02*
X137973390Y-69105400D01*
X138449580Y-69343495D02*
X137449580Y-69343495D01*
X137449580Y-68962542D01*
X137497200Y-68867304D01*
X137544819Y-68819685D01*
X137640057Y-68772066D01*
X137782914Y-68772066D01*
X137878152Y-68819685D01*
X137925771Y-68867304D01*
X137973390Y-68962542D01*
X137973390Y-69343495D01*
X137544819Y-68391114D02*
X137497200Y-68343495D01*
X137449580Y-68248257D01*
X137449580Y-68010161D01*
X137497200Y-67914923D01*
X137544819Y-67867304D01*
X137640057Y-67819685D01*
X137735295Y-67819685D01*
X137878152Y-67867304D01*
X138449580Y-68438733D01*
X138449580Y-67819685D01*
%TO.C,SW1*%
X146366466Y-46740961D02*
X146509323Y-46788580D01*
X146747419Y-46788580D01*
X146842657Y-46740961D01*
X146890276Y-46693342D01*
X146937895Y-46598104D01*
X146937895Y-46502866D01*
X146890276Y-46407628D01*
X146842657Y-46360009D01*
X146747419Y-46312390D01*
X146556942Y-46264771D01*
X146461704Y-46217152D01*
X146414085Y-46169533D01*
X146366466Y-46074295D01*
X146366466Y-45979057D01*
X146414085Y-45883819D01*
X146461704Y-45836200D01*
X146556942Y-45788580D01*
X146795038Y-45788580D01*
X146937895Y-45836200D01*
X147271228Y-45788580D02*
X147509323Y-46788580D01*
X147699800Y-46074295D01*
X147890276Y-46788580D01*
X148128371Y-45788580D01*
X149033133Y-46788580D02*
X148461704Y-46788580D01*
X148747419Y-46788580D02*
X148747419Y-45788580D01*
X148652180Y-45931438D01*
X148556942Y-46026676D01*
X148461704Y-46074295D01*
%TO.C,SW2*%
X134455066Y-55742361D02*
X134597923Y-55789980D01*
X134836019Y-55789980D01*
X134931257Y-55742361D01*
X134978876Y-55694742D01*
X135026495Y-55599504D01*
X135026495Y-55504266D01*
X134978876Y-55409028D01*
X134931257Y-55361409D01*
X134836019Y-55313790D01*
X134645542Y-55266171D01*
X134550304Y-55218552D01*
X134502685Y-55170933D01*
X134455066Y-55075695D01*
X134455066Y-54980457D01*
X134502685Y-54885219D01*
X134550304Y-54837600D01*
X134645542Y-54789980D01*
X134883638Y-54789980D01*
X135026495Y-54837600D01*
X135359828Y-54789980D02*
X135597923Y-55789980D01*
X135788400Y-55075695D01*
X135978876Y-55789980D01*
X136216971Y-54789980D01*
X136550304Y-54885219D02*
X136597923Y-54837600D01*
X136693161Y-54789980D01*
X136931257Y-54789980D01*
X137026495Y-54837600D01*
X137074114Y-54885219D01*
X137121733Y-54980457D01*
X137121733Y-55075695D01*
X137074114Y-55218552D01*
X136502685Y-55789980D01*
X137121733Y-55789980D01*
%TO.C,U1*%
X145694495Y-73855780D02*
X145694495Y-74665304D01*
X145742114Y-74760542D01*
X145789733Y-74808161D01*
X145884971Y-74855780D01*
X146075447Y-74855780D01*
X146170685Y-74808161D01*
X146218304Y-74760542D01*
X146265923Y-74665304D01*
X146265923Y-73855780D01*
X147265923Y-74855780D02*
X146694495Y-74855780D01*
X146980209Y-74855780D02*
X146980209Y-73855780D01*
X146884971Y-73998638D01*
X146789733Y-74093876D01*
X146694495Y-74141495D01*
%TO.C,U2*%
X118703780Y-81559304D02*
X119513304Y-81559304D01*
X119608542Y-81511685D01*
X119656161Y-81464066D01*
X119703780Y-81368828D01*
X119703780Y-81178352D01*
X119656161Y-81083114D01*
X119608542Y-81035495D01*
X119513304Y-80987876D01*
X118703780Y-80987876D01*
X118799019Y-80559304D02*
X118751400Y-80511685D01*
X118703780Y-80416447D01*
X118703780Y-80178352D01*
X118751400Y-80083114D01*
X118799019Y-80035495D01*
X118894257Y-79987876D01*
X118989495Y-79987876D01*
X119132352Y-80035495D01*
X119703780Y-80606923D01*
X119703780Y-79987876D01*
%TO.C,U3*%
X111589915Y-84489040D02*
X111589915Y-85298564D01*
X111637534Y-85393802D01*
X111685153Y-85441421D01*
X111780391Y-85489040D01*
X111970867Y-85489040D01*
X112066105Y-85441421D01*
X112113724Y-85393802D01*
X112161343Y-85298564D01*
X112161343Y-84489040D01*
X112542296Y-84489040D02*
X113161343Y-84489040D01*
X112828010Y-84869993D01*
X112970867Y-84869993D01*
X113066105Y-84917612D01*
X113113724Y-84965231D01*
X113161343Y-85060469D01*
X113161343Y-85298564D01*
X113113724Y-85393802D01*
X113066105Y-85441421D01*
X112970867Y-85489040D01*
X112685153Y-85489040D01*
X112589915Y-85441421D01*
X112542296Y-85393802D01*
%TD*%
M02*
