%TF.GenerationSoftware,KiCad,Pcbnew,(5.1.8)-1*%
%TF.CreationDate,2021-01-31T12:31:16-05:00*%
%TF.ProjectId,test CNC,74657374-2043-44e4-932e-6b696361645f,rev?*%
%TF.SameCoordinates,Original*%
%TF.FileFunction,Soldermask,Top*%
%TF.FilePolarity,Negative*%
%FSLAX46Y46*%
G04 Gerber Fmt 4.6, Leading zero omitted, Abs format (unit mm)*
G04 Created by KiCad (PCBNEW (5.1.8)-1) date 2021-01-31 12:31:16*
%MOMM*%
%LPD*%
G01*
G04 APERTURE LIST*
%ADD10R,1.800000X1.800000*%
%ADD11C,1.800000*%
%ADD12R,1.700000X1.700000*%
%ADD13O,1.700000X1.700000*%
%ADD14R,2.000000X0.900000*%
%ADD15R,0.900000X2.000000*%
%ADD16R,5.000000X5.000000*%
%ADD17C,1.600000*%
%ADD18O,1.600000X1.600000*%
%ADD19C,2.000000*%
%ADD20R,1.600000X1.600000*%
%ADD21R,1.500000X0.550000*%
%ADD22R,0.550000X1.500000*%
%ADD23R,0.600000X2.000000*%
G04 APERTURE END LIST*
D10*
%TO.C,D1*%
X149250400Y-61391800D03*
D11*
X146710400Y-61391800D03*
%TD*%
%TO.C,D2*%
G36*
G01*
X136206550Y-63782000D02*
X135294050Y-63782000D01*
G75*
G02*
X135050300Y-63538250I0J243750D01*
G01*
X135050300Y-63050750D01*
G75*
G02*
X135294050Y-62807000I243750J0D01*
G01*
X136206550Y-62807000D01*
G75*
G02*
X136450300Y-63050750I0J-243750D01*
G01*
X136450300Y-63538250D01*
G75*
G02*
X136206550Y-63782000I-243750J0D01*
G01*
G37*
G36*
G01*
X136206550Y-61907000D02*
X135294050Y-61907000D01*
G75*
G02*
X135050300Y-61663250I0J243750D01*
G01*
X135050300Y-61175750D01*
G75*
G02*
X135294050Y-60932000I243750J0D01*
G01*
X136206550Y-60932000D01*
G75*
G02*
X136450300Y-61175750I0J-243750D01*
G01*
X136450300Y-61663250D01*
G75*
G02*
X136206550Y-61907000I-243750J0D01*
G01*
G37*
%TD*%
D12*
%TO.C,J1*%
X113842800Y-68948300D03*
D13*
X116382800Y-68948300D03*
X118922800Y-68948300D03*
X121462800Y-68948300D03*
X124002800Y-68948300D03*
%TD*%
D12*
%TO.C,J2*%
X136906000Y-84937600D03*
D13*
X136906000Y-82397600D03*
X136906000Y-79857600D03*
X136906000Y-77317600D03*
X136906000Y-74777600D03*
%TD*%
D14*
%TO.C,MOD1*%
X110219600Y-47320200D03*
D15*
X113004600Y-64830200D03*
X114274600Y-64830200D03*
X115544600Y-64830200D03*
X116814600Y-64830200D03*
X118084600Y-64830200D03*
X119354600Y-64830200D03*
X120624600Y-64830200D03*
X121894600Y-64830200D03*
X123164600Y-64830200D03*
X124434600Y-64830200D03*
D14*
X110219600Y-48590200D03*
X110219600Y-49860200D03*
X110219600Y-51130200D03*
X110219600Y-52400200D03*
X110219600Y-53670200D03*
X110219600Y-54940200D03*
X110219600Y-56210200D03*
X110219600Y-57480200D03*
X110219600Y-58750200D03*
X110219600Y-60020200D03*
X110219600Y-61290200D03*
X110219600Y-62560200D03*
X110219600Y-63830200D03*
X127219600Y-47320200D03*
X127219600Y-48590200D03*
X127219600Y-49860200D03*
X127219600Y-51130200D03*
X127219600Y-52400200D03*
X127219600Y-53670200D03*
X127219600Y-54940200D03*
X127219600Y-56210200D03*
X127219600Y-57480200D03*
X127219600Y-58750200D03*
X127219600Y-60020200D03*
X127219600Y-61290200D03*
X127219600Y-62560200D03*
X127219600Y-63830200D03*
D16*
X117719600Y-53820200D03*
%TD*%
D17*
%TO.C,R1*%
X149733000Y-69469000D03*
D18*
X142113000Y-69469000D03*
%TD*%
%TO.C,R2*%
G36*
G01*
X135897199Y-67180400D02*
X136797201Y-67180400D01*
G75*
G02*
X137047200Y-67430399I0J-249999D01*
G01*
X137047200Y-67955401D01*
G75*
G02*
X136797201Y-68205400I-249999J0D01*
G01*
X135897199Y-68205400D01*
G75*
G02*
X135647200Y-67955401I0J249999D01*
G01*
X135647200Y-67430399D01*
G75*
G02*
X135897199Y-67180400I249999J0D01*
G01*
G37*
G36*
G01*
X135897199Y-69005400D02*
X136797201Y-69005400D01*
G75*
G02*
X137047200Y-69255399I0J-249999D01*
G01*
X137047200Y-69780401D01*
G75*
G02*
X136797201Y-70030400I-249999J0D01*
G01*
X135897199Y-70030400D01*
G75*
G02*
X135647200Y-69780401I0J249999D01*
G01*
X135647200Y-69255399D01*
G75*
G02*
X135897199Y-69005400I249999J0D01*
G01*
G37*
%TD*%
D19*
%TO.C,SW1*%
X144449800Y-52836200D03*
X144449800Y-48336200D03*
X150949800Y-52836200D03*
X150949800Y-48336200D03*
%TD*%
D20*
%TO.C,SW2*%
X139598400Y-51917600D03*
D18*
X131978400Y-49377600D03*
X139598400Y-49377600D03*
X131978400Y-51917600D03*
%TD*%
D20*
%TO.C,U1*%
X142646400Y-76733400D03*
D18*
X150266400Y-84353400D03*
X142646400Y-79273400D03*
X150266400Y-81813400D03*
X142646400Y-81813400D03*
X150266400Y-79273400D03*
X142646400Y-84353400D03*
X150266400Y-76733400D03*
%TD*%
D21*
%TO.C,U2*%
X129701400Y-83597400D03*
D22*
X122701400Y-84997400D03*
X123501400Y-84997400D03*
X124301400Y-84997400D03*
X125101400Y-84997400D03*
X125901400Y-84997400D03*
X126701400Y-84997400D03*
X127501400Y-84997400D03*
X128301400Y-84997400D03*
D21*
X129701400Y-82797400D03*
X129701400Y-81997400D03*
X129701400Y-81197400D03*
X129701400Y-80397400D03*
X129701400Y-79597400D03*
X129701400Y-78797400D03*
X129701400Y-77997400D03*
D22*
X128301400Y-76597400D03*
X127501400Y-76597400D03*
X126701400Y-76597400D03*
X125901400Y-76597400D03*
X125101400Y-76597400D03*
X124301400Y-76597400D03*
X123501400Y-76597400D03*
X122701400Y-76597400D03*
D21*
X121301400Y-77997400D03*
X121301400Y-78797400D03*
X121301400Y-79597400D03*
X121301400Y-80397400D03*
X121301400Y-81197400D03*
X121301400Y-81997400D03*
X121301400Y-82797400D03*
X121301400Y-83597400D03*
%TD*%
D23*
%TO.C,U3*%
X114274600Y-78017200D03*
X113004600Y-78017200D03*
X110464600Y-78017200D03*
X110464600Y-82917200D03*
X111734600Y-82917200D03*
X113004600Y-82917200D03*
X114274600Y-82917200D03*
X111734600Y-78017200D03*
%TD*%
M02*
