M48
; DRILL file {KiCad (5.1.8)-1} date 01/31/21 12:32:14
; FORMAT={-:-/ absolute / inch / decimal}
; #@! TF.CreationDate,2021-01-31T12:32:14-05:00
; #@! TF.GenerationSoftware,Kicad,Pcbnew,(5.1.8)-1
; #@! TF.FileFunction,Plated,1,2,PTH
FMAT,2
INCH
T1C0.0315
T2C0.0354
T3C0.0394
T4C0.0433
%
G90
G05
T1
X5.595Y-2.735
X5.895Y-2.735
X5.616Y-3.021
X5.616Y-3.121
X5.616Y-3.221
X5.616Y-3.321
X5.916Y-3.021
X5.916Y-3.121
X5.916Y-3.221
X5.916Y-3.321
X5.196Y-1.944
X5.196Y-2.044
X5.496Y-1.944
X5.496Y-2.044
T2
X5.776Y-2.417
X5.876Y-2.417
T3
X4.482Y-2.7145
X4.582Y-2.7145
X4.682Y-2.7145
X4.782Y-2.7145
X4.882Y-2.7145
X5.39Y-2.944
X5.39Y-3.044
X5.39Y-3.144
X5.39Y-3.244
X5.39Y-3.344
T4
X5.687Y-1.903
X5.687Y-2.0802
X5.9429Y-1.903
X5.9429Y-2.0802
T0
M30
