%TF.GenerationSoftware,KiCad,Pcbnew,(5.1.8)-1*%
%TF.CreationDate,2021-01-31T12:31:16-05:00*%
%TF.ProjectId,test CNC,74657374-2043-44e4-932e-6b696361645f,rev?*%
%TF.SameCoordinates,Original*%
%TF.FileFunction,Copper,L1,Top*%
%TF.FilePolarity,Positive*%
%FSLAX46Y46*%
G04 Gerber Fmt 4.6, Leading zero omitted, Abs format (unit mm)*
G04 Created by KiCad (PCBNEW (5.1.8)-1) date 2021-01-31 12:31:16*
%MOMM*%
%LPD*%
G01*
G04 APERTURE LIST*
%TA.AperFunction,ComponentPad*%
%ADD10R,1.800000X1.800000*%
%TD*%
%TA.AperFunction,ComponentPad*%
%ADD11C,1.800000*%
%TD*%
%TA.AperFunction,ComponentPad*%
%ADD12R,1.700000X1.700000*%
%TD*%
%TA.AperFunction,ComponentPad*%
%ADD13O,1.700000X1.700000*%
%TD*%
%TA.AperFunction,SMDPad,CuDef*%
%ADD14R,2.000000X0.900000*%
%TD*%
%TA.AperFunction,SMDPad,CuDef*%
%ADD15R,0.900000X2.000000*%
%TD*%
%TA.AperFunction,SMDPad,CuDef*%
%ADD16R,5.000000X5.000000*%
%TD*%
%TA.AperFunction,ComponentPad*%
%ADD17C,1.600000*%
%TD*%
%TA.AperFunction,ComponentPad*%
%ADD18O,1.600000X1.600000*%
%TD*%
%TA.AperFunction,ComponentPad*%
%ADD19C,2.000000*%
%TD*%
%TA.AperFunction,ComponentPad*%
%ADD20R,1.600000X1.600000*%
%TD*%
%TA.AperFunction,SMDPad,CuDef*%
%ADD21R,1.500000X0.550000*%
%TD*%
%TA.AperFunction,SMDPad,CuDef*%
%ADD22R,0.550000X1.500000*%
%TD*%
%TA.AperFunction,SMDPad,CuDef*%
%ADD23R,0.600000X2.000000*%
%TD*%
%TA.AperFunction,Conductor*%
%ADD24C,0.500000*%
%TD*%
%TA.AperFunction,Conductor*%
%ADD25C,1.500000*%
%TD*%
%TA.AperFunction,Conductor*%
%ADD26C,0.250000*%
%TD*%
%TA.AperFunction,Conductor*%
%ADD27C,1.200000*%
%TD*%
%TA.AperFunction,Conductor*%
%ADD28C,1.000000*%
%TD*%
%TA.AperFunction,Conductor*%
%ADD29C,0.254000*%
%TD*%
%TA.AperFunction,Conductor*%
%ADD30C,0.100000*%
%TD*%
G04 APERTURE END LIST*
D10*
%TO.P,D1,1*%
%TO.N,Net-(D1-Pad1)*%
X149250400Y-61391800D03*
D11*
%TO.P,D1,2*%
%TO.N,Net-(D1-Pad2)*%
X146710400Y-61391800D03*
%TD*%
%TO.P,D2,1*%
%TO.N,Net-(D2-Pad1)*%
%TA.AperFunction,SMDPad,CuDef*%
G36*
G01*
X136206550Y-63782000D02*
X135294050Y-63782000D01*
G75*
G02*
X135050300Y-63538250I0J243750D01*
G01*
X135050300Y-63050750D01*
G75*
G02*
X135294050Y-62807000I243750J0D01*
G01*
X136206550Y-62807000D01*
G75*
G02*
X136450300Y-63050750I0J-243750D01*
G01*
X136450300Y-63538250D01*
G75*
G02*
X136206550Y-63782000I-243750J0D01*
G01*
G37*
%TD.AperFunction*%
%TO.P,D2,2*%
%TO.N,Net-(D1-Pad2)*%
%TA.AperFunction,SMDPad,CuDef*%
G36*
G01*
X136206550Y-61907000D02*
X135294050Y-61907000D01*
G75*
G02*
X135050300Y-61663250I0J243750D01*
G01*
X135050300Y-61175750D01*
G75*
G02*
X135294050Y-60932000I243750J0D01*
G01*
X136206550Y-60932000D01*
G75*
G02*
X136450300Y-61175750I0J-243750D01*
G01*
X136450300Y-61663250D01*
G75*
G02*
X136206550Y-61907000I-243750J0D01*
G01*
G37*
%TD.AperFunction*%
%TD*%
D12*
%TO.P,J1,1*%
%TO.N,Net-(J1-Pad1)*%
X113842800Y-68948300D03*
D13*
%TO.P,J1,2*%
%TO.N,Net-(J1-Pad2)*%
X116382800Y-68948300D03*
%TO.P,J1,3*%
%TO.N,Net-(J1-Pad3)*%
X118922800Y-68948300D03*
%TO.P,J1,4*%
%TO.N,Net-(J1-Pad4)*%
X121462800Y-68948300D03*
%TO.P,J1,5*%
%TO.N,Net-(J1-Pad5)*%
X124002800Y-68948300D03*
%TD*%
D12*
%TO.P,J2,1*%
%TO.N,Net-(J2-Pad1)*%
X136906000Y-84937600D03*
D13*
%TO.P,J2,2*%
%TO.N,Net-(J2-Pad2)*%
X136906000Y-82397600D03*
%TO.P,J2,3*%
%TO.N,Net-(J2-Pad3)*%
X136906000Y-79857600D03*
%TO.P,J2,4*%
%TO.N,Net-(J2-Pad4)*%
X136906000Y-77317600D03*
%TO.P,J2,5*%
%TO.N,Net-(J2-Pad5)*%
X136906000Y-74777600D03*
%TD*%
D14*
%TO.P,MOD1,1*%
%TO.N,Net-(MOD1-Pad1)*%
X110219600Y-47320200D03*
D15*
%TO.P,MOD1,15*%
%TO.N,Net-(MOD1-Pad15)*%
X113004600Y-64830200D03*
%TO.P,MOD1,16*%
%TO.N,Net-(MOD1-Pad16)*%
X114274600Y-64830200D03*
%TO.P,MOD1,17*%
%TO.N,Net-(MOD1-Pad17)*%
X115544600Y-64830200D03*
%TO.P,MOD1,18*%
%TO.N,Net-(MOD1-Pad18)*%
X116814600Y-64830200D03*
%TO.P,MOD1,19*%
%TO.N,Net-(MOD1-Pad19)*%
X118084600Y-64830200D03*
%TO.P,MOD1,20*%
%TO.N,Net-(MOD1-Pad20)*%
X119354600Y-64830200D03*
%TO.P,MOD1,21*%
%TO.N,Net-(MOD1-Pad21)*%
X120624600Y-64830200D03*
%TO.P,MOD1,22*%
%TO.N,Net-(MOD1-Pad22)*%
X121894600Y-64830200D03*
%TO.P,MOD1,23*%
%TO.N,Net-(MOD1-Pad23)*%
X123164600Y-64830200D03*
%TO.P,MOD1,24*%
%TO.N,Net-(J1-Pad4)*%
X124434600Y-64830200D03*
D14*
%TO.P,MOD1,2*%
%TO.N,Net-(MOD1-Pad2)*%
X110219600Y-48590200D03*
%TO.P,MOD1,3*%
%TO.N,Net-(MOD1-Pad3)*%
X110219600Y-49860200D03*
%TO.P,MOD1,4*%
%TO.N,Net-(MOD1-Pad4)*%
X110219600Y-51130200D03*
%TO.P,MOD1,5*%
%TO.N,Net-(MOD1-Pad5)*%
X110219600Y-52400200D03*
%TO.P,MOD1,6*%
%TO.N,Net-(MOD1-Pad6)*%
X110219600Y-53670200D03*
%TO.P,MOD1,7*%
%TO.N,Net-(MOD1-Pad7)*%
X110219600Y-54940200D03*
%TO.P,MOD1,8*%
%TO.N,Net-(MOD1-Pad8)*%
X110219600Y-56210200D03*
%TO.P,MOD1,9*%
%TO.N,Net-(MOD1-Pad9)*%
X110219600Y-57480200D03*
%TO.P,MOD1,10*%
%TO.N,Net-(MOD1-Pad10)*%
X110219600Y-58750200D03*
%TO.P,MOD1,11*%
%TO.N,Net-(MOD1-Pad11)*%
X110219600Y-60020200D03*
%TO.P,MOD1,12*%
%TO.N,Net-(MOD1-Pad12)*%
X110219600Y-61290200D03*
%TO.P,MOD1,13*%
%TO.N,Net-(MOD1-Pad13)*%
X110219600Y-62560200D03*
%TO.P,MOD1,14*%
%TO.N,Net-(J1-Pad1)*%
X110219600Y-63830200D03*
%TO.P,MOD1,38*%
%TO.N,Net-(MOD1-Pad38)*%
X127219600Y-47320200D03*
%TO.P,MOD1,37*%
%TO.N,Net-(MOD1-Pad37)*%
X127219600Y-48590200D03*
%TO.P,MOD1,36*%
%TO.N,Net-(MOD1-Pad36)*%
X127219600Y-49860200D03*
%TO.P,MOD1,35*%
%TO.N,Net-(MOD1-Pad35)*%
X127219600Y-51130200D03*
%TO.P,MOD1,34*%
%TO.N,Net-(MOD1-Pad34)*%
X127219600Y-52400200D03*
%TO.P,MOD1,33*%
%TO.N,Net-(MOD1-Pad33)*%
X127219600Y-53670200D03*
%TO.P,MOD1,32*%
%TO.N,Net-(MOD1-Pad32)*%
X127219600Y-54940200D03*
%TO.P,MOD1,31*%
%TO.N,Net-(MOD1-Pad31)*%
X127219600Y-56210200D03*
%TO.P,MOD1,30*%
%TO.N,Net-(MOD1-Pad30)*%
X127219600Y-57480200D03*
%TO.P,MOD1,29*%
%TO.N,Net-(J1-Pad2)*%
X127219600Y-58750200D03*
%TO.P,MOD1,28*%
%TO.N,Net-(MOD1-Pad28)*%
X127219600Y-60020200D03*
%TO.P,MOD1,27*%
%TO.N,Net-(MOD1-Pad27)*%
X127219600Y-61290200D03*
%TO.P,MOD1,26*%
%TO.N,Net-(J1-Pad3)*%
X127219600Y-62560200D03*
%TO.P,MOD1,25*%
%TO.N,Net-(J1-Pad5)*%
X127219600Y-63830200D03*
D16*
%TO.P,MOD1,39*%
%TO.N,Net-(MOD1-Pad39)*%
X117719600Y-53820200D03*
%TD*%
D17*
%TO.P,R1,1*%
%TO.N,Net-(D1-Pad1)*%
X149733000Y-69469000D03*
D18*
%TO.P,R1,2*%
%TO.N,GND*%
X142113000Y-69469000D03*
%TD*%
%TO.P,R2,1*%
%TO.N,Net-(D2-Pad1)*%
%TA.AperFunction,SMDPad,CuDef*%
G36*
G01*
X135897199Y-67180400D02*
X136797201Y-67180400D01*
G75*
G02*
X137047200Y-67430399I0J-249999D01*
G01*
X137047200Y-67955401D01*
G75*
G02*
X136797201Y-68205400I-249999J0D01*
G01*
X135897199Y-68205400D01*
G75*
G02*
X135647200Y-67955401I0J249999D01*
G01*
X135647200Y-67430399D01*
G75*
G02*
X135897199Y-67180400I249999J0D01*
G01*
G37*
%TD.AperFunction*%
%TO.P,R2,2*%
%TO.N,GND*%
%TA.AperFunction,SMDPad,CuDef*%
G36*
G01*
X135897199Y-69005400D02*
X136797201Y-69005400D01*
G75*
G02*
X137047200Y-69255399I0J-249999D01*
G01*
X137047200Y-69780401D01*
G75*
G02*
X136797201Y-70030400I-249999J0D01*
G01*
X135897199Y-70030400D01*
G75*
G02*
X135647200Y-69780401I0J249999D01*
G01*
X135647200Y-69255399D01*
G75*
G02*
X135897199Y-69005400I249999J0D01*
G01*
G37*
%TD.AperFunction*%
%TD*%
D19*
%TO.P,SW1,2*%
%TO.N,Net-(SW1-Pad2)*%
X144449800Y-52836200D03*
%TO.P,SW1,1*%
%TO.N,Net-(D1-Pad2)*%
X144449800Y-48336200D03*
%TO.P,SW1,2*%
%TO.N,Net-(SW1-Pad2)*%
X150949800Y-52836200D03*
%TO.P,SW1,1*%
%TO.N,Net-(D1-Pad2)*%
X150949800Y-48336200D03*
%TD*%
D20*
%TO.P,SW2,1*%
%TO.N,VCC*%
X139598400Y-51917600D03*
D18*
%TO.P,SW2,3*%
%TO.N,Net-(MOD1-Pad31)*%
X131978400Y-49377600D03*
%TO.P,SW2,2*%
%TO.N,VCC*%
X139598400Y-49377600D03*
%TO.P,SW2,4*%
%TO.N,Net-(MOD1-Pad30)*%
X131978400Y-51917600D03*
%TD*%
D20*
%TO.P,U1,1*%
%TO.N,Net-(U1-Pad1)*%
X142646400Y-76733400D03*
D18*
%TO.P,U1,5*%
%TO.N,Net-(U1-Pad5)*%
X150266400Y-84353400D03*
%TO.P,U1,2*%
%TO.N,Net-(J2-Pad4)*%
X142646400Y-79273400D03*
%TO.P,U1,6*%
%TO.N,Net-(U1-Pad6)*%
X150266400Y-81813400D03*
%TO.P,U1,3*%
%TO.N,Net-(J2-Pad5)*%
X142646400Y-81813400D03*
%TO.P,U1,7*%
%TO.N,Net-(U1-Pad7)*%
X150266400Y-79273400D03*
%TO.P,U1,4*%
%TO.N,Net-(U1-Pad4)*%
X142646400Y-84353400D03*
%TO.P,U1,8*%
%TO.N,Net-(U1-Pad8)*%
X150266400Y-76733400D03*
%TD*%
D21*
%TO.P,U2,9*%
%TO.N,Net-(U2-Pad9)*%
X129701400Y-83597400D03*
D22*
%TO.P,U2,1*%
%TO.N,Net-(U2-Pad1)*%
X122701400Y-84997400D03*
%TO.P,U2,2*%
%TO.N,Net-(U2-Pad2)*%
X123501400Y-84997400D03*
%TO.P,U2,3*%
%TO.N,Net-(U2-Pad3)*%
X124301400Y-84997400D03*
%TO.P,U2,4*%
%TO.N,Net-(U2-Pad4)*%
X125101400Y-84997400D03*
%TO.P,U2,5*%
%TO.N,Net-(U2-Pad5)*%
X125901400Y-84997400D03*
%TO.P,U2,6*%
%TO.N,Net-(U2-Pad6)*%
X126701400Y-84997400D03*
%TO.P,U2,7*%
%TO.N,Net-(U2-Pad7)*%
X127501400Y-84997400D03*
%TO.P,U2,8*%
%TO.N,Net-(U2-Pad8)*%
X128301400Y-84997400D03*
D21*
%TO.P,U2,10*%
%TO.N,Net-(U2-Pad10)*%
X129701400Y-82797400D03*
%TO.P,U2,11*%
%TO.N,Net-(U2-Pad11)*%
X129701400Y-81997400D03*
%TO.P,U2,12*%
%TO.N,Net-(U2-Pad12)*%
X129701400Y-81197400D03*
%TO.P,U2,13*%
%TO.N,Net-(U2-Pad13)*%
X129701400Y-80397400D03*
%TO.P,U2,14*%
%TO.N,Net-(J2-Pad1)*%
X129701400Y-79597400D03*
%TO.P,U2,15*%
%TO.N,Net-(J2-Pad2)*%
X129701400Y-78797400D03*
%TO.P,U2,16*%
%TO.N,Net-(J2-Pad3)*%
X129701400Y-77997400D03*
D22*
%TO.P,U2,17*%
%TO.N,Net-(U2-Pad17)*%
X128301400Y-76597400D03*
%TO.P,U2,18*%
%TO.N,Net-(U2-Pad18)*%
X127501400Y-76597400D03*
%TO.P,U2,19*%
%TO.N,Net-(U2-Pad19)*%
X126701400Y-76597400D03*
%TO.P,U2,20*%
%TO.N,Net-(U2-Pad20)*%
X125901400Y-76597400D03*
%TO.P,U2,21*%
%TO.N,Net-(U2-Pad21)*%
X125101400Y-76597400D03*
%TO.P,U2,22*%
%TO.N,Net-(U2-Pad22)*%
X124301400Y-76597400D03*
%TO.P,U2,23*%
%TO.N,Net-(U2-Pad23)*%
X123501400Y-76597400D03*
%TO.P,U2,24*%
%TO.N,Net-(U2-Pad24)*%
X122701400Y-76597400D03*
D21*
%TO.P,U2,25*%
%TO.N,Net-(U2-Pad25)*%
X121301400Y-77997400D03*
%TO.P,U2,26*%
%TO.N,Net-(U2-Pad26)*%
X121301400Y-78797400D03*
%TO.P,U2,27*%
%TO.N,Net-(U2-Pad27)*%
X121301400Y-79597400D03*
%TO.P,U2,28*%
%TO.N,Net-(U2-Pad28)*%
X121301400Y-80397400D03*
%TO.P,U2,29*%
%TO.N,Net-(U2-Pad29)*%
X121301400Y-81197400D03*
%TO.P,U2,30*%
%TO.N,Net-(U2-Pad30)*%
X121301400Y-81997400D03*
%TO.P,U2,31*%
%TO.N,Net-(U2-Pad31)*%
X121301400Y-82797400D03*
%TO.P,U2,32*%
%TO.N,Net-(U2-Pad32)*%
X121301400Y-83597400D03*
%TD*%
D23*
%TO.P,U3,1*%
%TO.N,Net-(U3-Pad1)*%
X114274600Y-78017200D03*
%TO.P,U3,2*%
%TO.N,Net-(U2-Pad26)*%
X113004600Y-78017200D03*
%TO.P,U3,4*%
%TO.N,N/C*%
X110464600Y-78017200D03*
%TO.P,U3,5*%
X110464600Y-82917200D03*
%TO.P,U3,6*%
X111734600Y-82917200D03*
%TO.P,U3,7*%
X113004600Y-82917200D03*
%TO.P,U3,8*%
X114274600Y-82917200D03*
%TO.P,U3,3*%
%TO.N,Net-(U3-Pad1)*%
X111734600Y-78017200D03*
%TD*%
D24*
%TO.N,Net-(D1-Pad1)*%
X149250400Y-61391800D02*
X149250400Y-61950600D01*
X149250400Y-61950600D02*
X145846800Y-65354200D01*
X145846800Y-65354200D02*
X145846800Y-68351400D01*
X146964400Y-69469000D02*
X149733000Y-69469000D01*
X145846800Y-68351400D02*
X146964400Y-69469000D01*
D25*
%TO.N,Net-(D1-Pad2)*%
X144449800Y-48336200D02*
X145440400Y-48336200D01*
X145440400Y-48336200D02*
X147345400Y-50241200D01*
X147345400Y-50241200D02*
X147345400Y-56896000D01*
X146710400Y-57531000D02*
X146710400Y-61391800D01*
X147345400Y-56896000D02*
X146710400Y-57531000D01*
D24*
X146682700Y-61419500D02*
X146710400Y-61391800D01*
X144643600Y-61419500D02*
X146682700Y-61419500D01*
X144532339Y-61432036D02*
X144643600Y-61419500D01*
X144426658Y-61469015D02*
X144532339Y-61432036D01*
X144331855Y-61528584D02*
X144426658Y-61469015D01*
X144252684Y-61607755D02*
X144331855Y-61528584D01*
X144193115Y-61702558D02*
X144252684Y-61607755D01*
X144156136Y-61808239D02*
X144193115Y-61702558D01*
X144131063Y-62030760D02*
X144156136Y-61808239D01*
X144094084Y-62136441D02*
X144131063Y-62030760D01*
X144034515Y-62231244D02*
X144094084Y-62136441D01*
X143955344Y-62310415D02*
X144034515Y-62231244D01*
X143860541Y-62369984D02*
X143955344Y-62310415D01*
X143754860Y-62406963D02*
X143860541Y-62369984D01*
X143643600Y-62419500D02*
X143754860Y-62406963D01*
X143532339Y-62406963D02*
X143643600Y-62419500D01*
X143426658Y-62369984D02*
X143532339Y-62406963D01*
X143331855Y-62310415D02*
X143426658Y-62369984D01*
X143252684Y-62231244D02*
X143331855Y-62310415D01*
X143193115Y-62136441D02*
X143252684Y-62231244D01*
X143156136Y-62030760D02*
X143193115Y-62136441D01*
X143143600Y-61919500D02*
X143156136Y-62030760D01*
X143143600Y-60919500D02*
X143143600Y-61919500D01*
X143131063Y-60808240D02*
X143143600Y-60919500D01*
X143094084Y-60702559D02*
X143131063Y-60808240D01*
X143034515Y-60607756D02*
X143094084Y-60702559D01*
X142955344Y-60528585D02*
X143034515Y-60607756D01*
X142860541Y-60469016D02*
X142955344Y-60528585D01*
X142754860Y-60432037D02*
X142860541Y-60469016D01*
X142643600Y-60419500D02*
X142754860Y-60432037D01*
X140143600Y-60919500D02*
X140156136Y-60808240D01*
X141532339Y-62406963D02*
X141643600Y-62419500D01*
X140143600Y-61919500D02*
X140143600Y-60919500D01*
X142034515Y-62231244D02*
X142094084Y-62136441D01*
X140131063Y-62030760D02*
X140143600Y-61919500D01*
X142331855Y-60528585D02*
X142426658Y-60469016D01*
X140094084Y-62136441D02*
X140131063Y-62030760D01*
X140532339Y-60432037D02*
X140643600Y-60419500D01*
X140034515Y-62231244D02*
X140094084Y-62136441D01*
X142252684Y-60607756D02*
X142331855Y-60528585D01*
X139860541Y-62369984D02*
X139955344Y-62310415D01*
X142532339Y-60432037D02*
X142643600Y-60419500D01*
X139643600Y-62419500D02*
X139754860Y-62406963D01*
X142143600Y-60919500D02*
X142156136Y-60808240D01*
X139532339Y-62406963D02*
X139643600Y-62419500D01*
X142193115Y-60702559D02*
X142252684Y-60607756D01*
X140193115Y-60702559D02*
X140252684Y-60607756D01*
X138643600Y-61419500D02*
X138754860Y-61432036D01*
X141754860Y-62406963D02*
X141860541Y-62369984D01*
X138754860Y-61432036D02*
X138860541Y-61469015D01*
X135750300Y-61419500D02*
X138643600Y-61419500D01*
X142156136Y-60808240D02*
X142193115Y-60702559D01*
X138860541Y-61469015D02*
X138955344Y-61528584D01*
X139193115Y-62136441D02*
X139252684Y-62231244D01*
X139955344Y-62310415D02*
X140034515Y-62231244D01*
X139331855Y-62310415D02*
X139426658Y-62369984D01*
X139754860Y-62406963D02*
X139860541Y-62369984D01*
X140331855Y-60528585D02*
X140426658Y-60469016D01*
X139131063Y-61808239D02*
X139156136Y-62030760D01*
X141860541Y-62369984D02*
X141955344Y-62310415D01*
X138955344Y-61528584D02*
X139034515Y-61607755D01*
X139034515Y-61607755D02*
X139094084Y-61702558D01*
X140955344Y-60528585D02*
X141034515Y-60607756D01*
X140252684Y-60607756D02*
X140331855Y-60528585D01*
X139094084Y-61702558D02*
X139131063Y-61808239D01*
X139156136Y-62030760D02*
X139193115Y-62136441D01*
X140156136Y-60808240D02*
X140193115Y-60702559D01*
X141955344Y-62310415D02*
X142034515Y-62231244D01*
X139252684Y-62231244D02*
X139331855Y-62310415D01*
X140426658Y-60469016D02*
X140532339Y-60432037D01*
X142143600Y-61919500D02*
X142143600Y-60919500D01*
X139426658Y-62369984D02*
X139532339Y-62406963D01*
X140643600Y-60419500D02*
X140754860Y-60432037D01*
X140754860Y-60432037D02*
X140860541Y-60469016D01*
X142426658Y-60469016D02*
X142532339Y-60432037D01*
X140860541Y-60469016D02*
X140955344Y-60528585D01*
X141034515Y-60607756D02*
X141094084Y-60702559D01*
X141094084Y-60702559D02*
X141131063Y-60808240D01*
X141131063Y-60808240D02*
X141143600Y-60919500D01*
X141143600Y-60919500D02*
X141143600Y-61919500D01*
X141331855Y-62310415D02*
X141426658Y-62369984D01*
X141143600Y-61919500D02*
X141156136Y-62030760D01*
X141156136Y-62030760D02*
X141193115Y-62136441D01*
X141193115Y-62136441D02*
X141252684Y-62231244D01*
X141252684Y-62231244D02*
X141331855Y-62310415D01*
X141426658Y-62369984D02*
X141532339Y-62406963D01*
X141643600Y-62419500D02*
X141754860Y-62406963D01*
X142094084Y-62136441D02*
X142131063Y-62030760D01*
X142131063Y-62030760D02*
X142143600Y-61919500D01*
D25*
X149044800Y-50241200D02*
X150949800Y-48336200D01*
X147345400Y-50241200D02*
X149044800Y-50241200D01*
D26*
%TO.N,Net-(D2-Pad1)*%
X135750300Y-63294500D02*
X135750300Y-64617600D01*
X136347200Y-65214500D02*
X136347200Y-67692900D01*
X135750300Y-64617600D02*
X136347200Y-65214500D01*
D24*
%TO.N,Net-(J1-Pad1)*%
X110219600Y-63830200D02*
X110219600Y-65103900D01*
X110219600Y-65103900D02*
X107784900Y-67538600D01*
X107784900Y-67538600D02*
X107784900Y-69608700D01*
X107784900Y-69608700D02*
X110426500Y-72250300D01*
X110426500Y-72250300D02*
X113118900Y-72250300D01*
X113842800Y-71526400D02*
X113842800Y-68948300D01*
X113118900Y-72250300D02*
X113842800Y-71526400D01*
D26*
%TO.N,Net-(J1-Pad2)*%
X116382800Y-68948300D02*
X116382800Y-69354700D01*
X116382800Y-69354700D02*
X118122700Y-71094600D01*
X118122700Y-71094600D02*
X125793500Y-71094600D01*
X125793500Y-71094600D02*
X126429205Y-70458895D01*
X126429205Y-70458895D02*
X126429205Y-69277795D01*
X126429205Y-69277795D02*
X129997200Y-65709800D01*
X129997200Y-65709800D02*
X129997200Y-62699900D01*
X129997200Y-62699900D02*
X129108200Y-61810900D01*
X129108200Y-61810900D02*
X129108200Y-59080400D01*
X128778000Y-58750200D02*
X127219600Y-58750200D01*
X129108200Y-59080400D02*
X128778000Y-58750200D01*
%TO.N,Net-(J1-Pad3)*%
X118922800Y-68948300D02*
X118922800Y-69405500D01*
X118922800Y-69405500D02*
X120154700Y-70637400D01*
X120154700Y-70637400D02*
X125590300Y-70637400D01*
X125590300Y-70637400D02*
X125945900Y-70281800D01*
X125945900Y-70281800D02*
X125945900Y-69113400D01*
X125945900Y-69113400D02*
X129540000Y-65519300D01*
X129540000Y-65519300D02*
X129540000Y-62915800D01*
X129184400Y-62560200D02*
X127219600Y-62560200D01*
X129540000Y-62915800D02*
X129184400Y-62560200D01*
D24*
%TO.N,Net-(J1-Pad4)*%
X121462800Y-68948300D02*
X121462800Y-67894200D01*
X121462800Y-67894200D02*
X122542300Y-66814700D01*
X122542300Y-66814700D02*
X124117100Y-66814700D01*
X124434600Y-66497200D02*
X124434600Y-64830200D01*
X124117100Y-66814700D02*
X124434600Y-66497200D01*
D26*
%TO.N,Net-(J1-Pad5)*%
X129082800Y-63855600D02*
X129057400Y-63830200D01*
X129057400Y-63830200D02*
X127219600Y-63830200D01*
X129082800Y-65328800D02*
X129082800Y-63855600D01*
X125463300Y-68948300D02*
X129082800Y-65328800D01*
X124002800Y-68948300D02*
X125463300Y-68948300D01*
D24*
%TO.N,Net-(J2-Pad1)*%
X129701400Y-79597400D02*
X132251300Y-79597400D01*
X132251300Y-79597400D02*
X133805690Y-81151790D01*
X133805690Y-81151790D02*
X133805690Y-82281790D01*
X133805690Y-82281790D02*
X135115300Y-83591400D01*
X135115300Y-83591400D02*
X135115300Y-84696300D01*
X135356600Y-84937600D02*
X136906000Y-84937600D01*
X135115300Y-84696300D02*
X135356600Y-84937600D01*
%TO.N,Net-(J2-Pad2)*%
X129701400Y-78797400D02*
X132556500Y-78797400D01*
X132556500Y-78797400D02*
X134505700Y-80746600D01*
X134505700Y-80746600D02*
X134505700Y-81965800D01*
X134937500Y-82397600D02*
X136906000Y-82397600D01*
X134505700Y-81965800D02*
X134937500Y-82397600D01*
%TO.N,Net-(J2-Pad3)*%
X129701400Y-77997400D02*
X133001100Y-77997400D01*
X134861300Y-79857600D02*
X136906000Y-79857600D01*
X133001100Y-77997400D02*
X134861300Y-79857600D01*
D27*
%TO.N,Net-(J2-Pad4)*%
X136906000Y-77317600D02*
X137896600Y-77317600D01*
X139852400Y-79273400D02*
X142646400Y-79273400D01*
X137896600Y-77317600D02*
X139852400Y-79273400D01*
%TO.N,Net-(J2-Pad5)*%
X136906000Y-74777600D02*
X139839700Y-74777600D01*
X139839700Y-74777600D02*
X141084300Y-73533000D01*
X141084300Y-73533000D02*
X144945100Y-73533000D01*
X144945100Y-73533000D02*
X146850100Y-75438000D01*
X146850100Y-75438000D02*
X146850100Y-81114900D01*
X146151600Y-81813400D02*
X142646400Y-81813400D01*
X146850100Y-81114900D02*
X146151600Y-81813400D01*
D24*
%TO.N,Net-(MOD1-Pad31)*%
X127219600Y-56210200D02*
X128803400Y-56210200D01*
X128803400Y-56210200D02*
X129743200Y-55270400D01*
X129743200Y-55270400D02*
X129743200Y-50114200D01*
X130479800Y-49377600D02*
X131978400Y-49377600D01*
X129743200Y-50114200D02*
X130479800Y-49377600D01*
D28*
%TO.N,Net-(MOD1-Pad30)*%
X127219600Y-57480200D02*
X129946400Y-57480200D01*
X131978400Y-55448200D02*
X131978400Y-51917600D01*
X129946400Y-57480200D02*
X131978400Y-55448200D01*
D26*
%TO.N,GND*%
X142064100Y-69517900D02*
X142113000Y-69469000D01*
X136347200Y-69517900D02*
X142064100Y-69517900D01*
%TO.N,Net-(SW1-Pad2)*%
X144449800Y-52836200D02*
X143006200Y-52836200D01*
X143006200Y-52836200D02*
X142252700Y-52082700D01*
X142252700Y-52082700D02*
X142252700Y-46558200D01*
X142252700Y-46558200D02*
X142709900Y-46101000D01*
X142709900Y-46101000D02*
X151765000Y-46101000D01*
X151765000Y-46101000D02*
X152514300Y-46850300D01*
X152514300Y-46850300D02*
X152514300Y-46926500D01*
X152514300Y-46926500D02*
X152615900Y-47028100D01*
X152615900Y-51170100D02*
X150949800Y-52836200D01*
X152615900Y-47028100D02*
X152615900Y-51170100D01*
D28*
%TO.N,VCC*%
X139598400Y-49377600D02*
X139598400Y-51917600D01*
D26*
%TO.N,Net-(U2-Pad26)*%
X119793000Y-78797400D02*
X121301400Y-78797400D01*
X119468900Y-78473300D02*
X119793000Y-78797400D01*
X119468900Y-77749400D02*
X119468900Y-78473300D01*
X120446800Y-76771500D02*
X119468900Y-77749400D01*
X120446800Y-75653900D02*
X120446800Y-76771500D01*
X119811800Y-75018900D02*
X120446800Y-75653900D01*
X119449100Y-75018900D02*
X119811800Y-75018900D01*
X119382343Y-75026421D02*
X119449100Y-75018900D01*
X119318934Y-75048609D02*
X119382343Y-75026421D01*
X119262053Y-75084350D02*
X119318934Y-75048609D01*
X119214550Y-75131853D02*
X119262053Y-75084350D01*
X119178809Y-75188734D02*
X119214550Y-75131853D01*
X119156621Y-75252143D02*
X119178809Y-75188734D01*
X119149100Y-75318900D02*
X119156621Y-75252143D01*
X119149100Y-75718900D02*
X119149100Y-75318900D01*
X119141578Y-75785656D02*
X119149100Y-75718900D01*
X119119390Y-75849065D02*
X119141578Y-75785656D01*
X119083649Y-75905946D02*
X119119390Y-75849065D01*
X119036146Y-75953449D02*
X119083649Y-75905946D01*
X118979265Y-75989190D02*
X119036146Y-75953449D01*
X118915856Y-76011378D02*
X118979265Y-75989190D01*
X118849100Y-76018900D02*
X118915856Y-76011378D01*
X118782343Y-76011378D02*
X118849100Y-76018900D01*
X118718934Y-75989190D02*
X118782343Y-76011378D01*
X118662053Y-75953449D02*
X118718934Y-75989190D01*
X118614550Y-75905946D02*
X118662053Y-75953449D01*
X118578809Y-75849065D02*
X118614550Y-75905946D01*
X118556621Y-75785656D02*
X118578809Y-75849065D01*
X118549100Y-75718900D02*
X118556621Y-75785656D01*
X118549100Y-74318900D02*
X118549100Y-75718900D01*
X118541578Y-74252144D02*
X118549100Y-74318900D01*
X118519390Y-74188735D02*
X118541578Y-74252144D01*
X118483649Y-74131854D02*
X118519390Y-74188735D01*
X115549100Y-74318900D02*
X115556621Y-74252144D01*
X115519390Y-75849065D02*
X115541578Y-75785656D01*
X115379265Y-75989190D02*
X115436146Y-75953449D01*
X118249100Y-74018900D02*
X118315856Y-74026422D01*
X115249100Y-76018900D02*
X115315856Y-76011378D01*
X115182343Y-76011378D02*
X115249100Y-76018900D01*
X115118934Y-75989190D02*
X115182343Y-76011378D01*
X115062053Y-75953449D02*
X115118934Y-75989190D01*
X115014550Y-75905946D02*
X115062053Y-75953449D01*
X115483649Y-75905946D02*
X115519390Y-75849065D01*
X114978809Y-75849065D02*
X115014550Y-75905946D01*
X114956621Y-75785656D02*
X114978809Y-75849065D01*
X114949100Y-75718900D02*
X114956621Y-75785656D01*
X114949100Y-74318900D02*
X114949100Y-75718900D01*
X115556621Y-74252144D02*
X115578809Y-74188735D01*
X114941578Y-74252144D02*
X114949100Y-74318900D01*
X114919390Y-74188735D02*
X114941578Y-74252144D01*
X117949100Y-75718900D02*
X117949100Y-74318900D01*
X114883649Y-74131854D02*
X114919390Y-74188735D01*
X115549100Y-75718900D02*
X115549100Y-74318900D01*
X114836146Y-74084351D02*
X114883649Y-74131854D01*
X117949100Y-74318900D02*
X117956621Y-74252144D01*
X114779265Y-74048610D02*
X114836146Y-74084351D01*
X118182343Y-74026422D02*
X118249100Y-74018900D01*
X115541578Y-75785656D02*
X115549100Y-75718900D01*
X114715856Y-74026422D02*
X114779265Y-74048610D01*
X114649100Y-74018900D02*
X114715856Y-74026422D01*
X115436146Y-75953449D02*
X115483649Y-75905946D01*
X114582343Y-74026422D02*
X114649100Y-74018900D01*
X114518934Y-74048610D02*
X114582343Y-74026422D01*
X114462053Y-74084351D02*
X114518934Y-74048610D01*
X114414550Y-74131854D02*
X114462053Y-74084351D01*
X113756621Y-75785656D02*
X113778809Y-75849065D01*
X113741578Y-75252143D02*
X113749100Y-75318900D01*
X113719390Y-75188734D02*
X113741578Y-75252143D01*
X117941578Y-75785656D02*
X117949100Y-75718900D01*
X113636146Y-75084350D02*
X113683649Y-75131853D01*
X113683649Y-75131853D02*
X113719390Y-75188734D01*
X113515856Y-75026421D02*
X113579265Y-75048609D01*
X114378809Y-74188735D02*
X114414550Y-74131854D01*
X113449100Y-75018900D02*
X113515856Y-75026421D01*
X113982343Y-76011378D02*
X114049100Y-76018900D01*
X113749100Y-75318900D02*
X113749100Y-75718900D01*
X118014550Y-74131854D02*
X118062053Y-74084351D01*
X113233200Y-75018900D02*
X113449100Y-75018900D01*
X118062053Y-74084351D02*
X118118934Y-74048610D01*
X113579265Y-75048609D02*
X113636146Y-75084350D01*
X113004600Y-75247500D02*
X113233200Y-75018900D01*
X114349100Y-74318900D02*
X114356621Y-74252144D01*
X118436146Y-74084351D02*
X118483649Y-74131854D01*
X113749100Y-75718900D02*
X113756621Y-75785656D01*
X113004600Y-78017200D02*
X113004600Y-75247500D01*
X113778809Y-75849065D02*
X113814550Y-75905946D01*
X118379265Y-74048610D02*
X118436146Y-74084351D01*
X113814550Y-75905946D02*
X113862053Y-75953449D01*
X116749100Y-74318900D02*
X116756621Y-74252144D01*
X114115856Y-76011378D02*
X114179265Y-75989190D01*
X113862053Y-75953449D02*
X113918934Y-75989190D01*
X113918934Y-75989190D02*
X113982343Y-76011378D01*
X114236146Y-75953449D02*
X114283649Y-75905946D01*
X115578809Y-74188735D02*
X115614550Y-74131854D01*
X115315856Y-76011378D02*
X115379265Y-75989190D01*
X114356621Y-74252144D02*
X114378809Y-74188735D01*
X114049100Y-76018900D02*
X114115856Y-76011378D01*
X114179265Y-75989190D02*
X114236146Y-75953449D01*
X114283649Y-75905946D02*
X114319390Y-75849065D01*
X114319390Y-75849065D02*
X114341578Y-75785656D01*
X114341578Y-75785656D02*
X114349100Y-75718900D01*
X114349100Y-75718900D02*
X114349100Y-74318900D01*
X115614550Y-74131854D02*
X115662053Y-74084351D01*
X115662053Y-74084351D02*
X115718934Y-74048610D01*
X115718934Y-74048610D02*
X115782343Y-74026422D01*
X115782343Y-74026422D02*
X115849100Y-74018900D01*
X115849100Y-74018900D02*
X115915856Y-74026422D01*
X115915856Y-74026422D02*
X115979265Y-74048610D01*
X115979265Y-74048610D02*
X116036146Y-74084351D01*
X116036146Y-74084351D02*
X116083649Y-74131854D01*
X116083649Y-74131854D02*
X116119390Y-74188735D01*
X116119390Y-74188735D02*
X116141578Y-74252144D01*
X116141578Y-74252144D02*
X116149100Y-74318900D01*
X116149100Y-74318900D02*
X116149100Y-75718900D01*
X116149100Y-75718900D02*
X116156621Y-75785656D01*
X116156621Y-75785656D02*
X116178809Y-75849065D01*
X116178809Y-75849065D02*
X116214550Y-75905946D01*
X116214550Y-75905946D02*
X116262053Y-75953449D01*
X116262053Y-75953449D02*
X116318934Y-75989190D01*
X116318934Y-75989190D02*
X116382343Y-76011378D01*
X116382343Y-76011378D02*
X116449100Y-76018900D01*
X116449100Y-76018900D02*
X116515856Y-76011378D01*
X116515856Y-76011378D02*
X116579265Y-75989190D01*
X116579265Y-75989190D02*
X116636146Y-75953449D01*
X116636146Y-75953449D02*
X116683649Y-75905946D01*
X116683649Y-75905946D02*
X116719390Y-75849065D01*
X116719390Y-75849065D02*
X116741578Y-75785656D01*
X116741578Y-75785656D02*
X116749100Y-75718900D01*
X116749100Y-75718900D02*
X116749100Y-74318900D01*
X116756621Y-74252144D02*
X116778809Y-74188735D01*
X116778809Y-74188735D02*
X116814550Y-74131854D01*
X116814550Y-74131854D02*
X116862053Y-74084351D01*
X116862053Y-74084351D02*
X116918934Y-74048610D01*
X116918934Y-74048610D02*
X116982343Y-74026422D01*
X116982343Y-74026422D02*
X117049100Y-74018900D01*
X117049100Y-74018900D02*
X117115856Y-74026422D01*
X117115856Y-74026422D02*
X117179265Y-74048610D01*
X117179265Y-74048610D02*
X117236146Y-74084351D01*
X117236146Y-74084351D02*
X117283649Y-74131854D01*
X117283649Y-74131854D02*
X117319390Y-74188735D01*
X117319390Y-74188735D02*
X117341578Y-74252144D01*
X117341578Y-74252144D02*
X117349100Y-74318900D01*
X117349100Y-74318900D02*
X117349100Y-75718900D01*
X117349100Y-75718900D02*
X117356621Y-75785656D01*
X117356621Y-75785656D02*
X117378809Y-75849065D01*
X117378809Y-75849065D02*
X117414550Y-75905946D01*
X117414550Y-75905946D02*
X117462053Y-75953449D01*
X117462053Y-75953449D02*
X117518934Y-75989190D01*
X117518934Y-75989190D02*
X117582343Y-76011378D01*
X117582343Y-76011378D02*
X117649100Y-76018900D01*
X117649100Y-76018900D02*
X117715856Y-76011378D01*
X117715856Y-76011378D02*
X117779265Y-75989190D01*
X117779265Y-75989190D02*
X117836146Y-75953449D01*
X117836146Y-75953449D02*
X117883649Y-75905946D01*
X117883649Y-75905946D02*
X117919390Y-75849065D01*
X117919390Y-75849065D02*
X117941578Y-75785656D01*
X117956621Y-74252144D02*
X117978809Y-74188735D01*
X117978809Y-74188735D02*
X118014550Y-74131854D01*
X118118934Y-74048610D02*
X118182343Y-74026422D01*
X118315856Y-74026422D02*
X118379265Y-74048610D01*
D24*
%TO.N,Net-(U3-Pad1)*%
X111734600Y-78017200D02*
X111734600Y-80137000D01*
X111734600Y-80137000D02*
X112153700Y-80556100D01*
X112153700Y-80556100D02*
X113804700Y-80556100D01*
X114274600Y-80086200D02*
X114274600Y-78017200D01*
X113804700Y-80556100D02*
X114274600Y-80086200D01*
%TD*%
D29*
%TO.N,GND*%
X141870688Y-45735303D02*
X141679841Y-45926150D01*
X141647331Y-45952830D01*
X141620652Y-45985339D01*
X141540861Y-46082564D01*
X141461746Y-46230577D01*
X141435755Y-46316261D01*
X141418039Y-46374665D01*
X141413029Y-46391180D01*
X141396578Y-46558200D01*
X141400701Y-46600059D01*
X141400700Y-52040851D01*
X141396578Y-52082700D01*
X141400700Y-52124549D01*
X141400700Y-52124551D01*
X141413028Y-52249720D01*
X141461746Y-52410323D01*
X141540861Y-52558336D01*
X141576727Y-52602039D01*
X141647330Y-52688070D01*
X141679845Y-52714754D01*
X142374149Y-53409059D01*
X142400830Y-53441570D01*
X142433338Y-53468248D01*
X142530563Y-53548039D01*
X142678576Y-53627154D01*
X142839179Y-53675872D01*
X142940472Y-53685848D01*
X143108352Y-53937098D01*
X143348902Y-54177648D01*
X143631759Y-54366647D01*
X143946053Y-54496832D01*
X144279705Y-54563200D01*
X144619895Y-54563200D01*
X144953547Y-54496832D01*
X145267841Y-54366647D01*
X145550698Y-54177648D01*
X145791248Y-53937098D01*
X145868401Y-53821631D01*
X145868401Y-56284207D01*
X145717317Y-56435291D01*
X145660950Y-56481550D01*
X145563941Y-56599757D01*
X145476378Y-56706453D01*
X145424924Y-56802717D01*
X145339228Y-56963043D01*
X145254771Y-57241458D01*
X145240071Y-57390717D01*
X145226254Y-57531000D01*
X145233400Y-57603553D01*
X145233401Y-60442500D01*
X144732906Y-60442500D01*
X144726115Y-60441248D01*
X144636820Y-60442500D01*
X144595607Y-60442500D01*
X144588766Y-60443174D01*
X144581902Y-60443270D01*
X144541008Y-60447878D01*
X144452075Y-60456637D01*
X144448578Y-60457698D01*
X144395106Y-60459949D01*
X144314901Y-60479442D01*
X144234213Y-60496672D01*
X144177329Y-60521174D01*
X144136312Y-60535526D01*
X144076551Y-60551839D01*
X144075454Y-60552386D01*
X144066425Y-60510105D01*
X144041922Y-60453221D01*
X144027573Y-60412213D01*
X144011260Y-60352452D01*
X143974417Y-60278615D01*
X143939659Y-60203771D01*
X143903105Y-60153755D01*
X143879988Y-60116964D01*
X143850790Y-60062338D01*
X143798448Y-59998559D01*
X143747895Y-59933312D01*
X143701130Y-59892686D01*
X143670413Y-59861968D01*
X143629788Y-59815205D01*
X143564551Y-59764660D01*
X143500762Y-59712310D01*
X143446134Y-59683110D01*
X143409345Y-59659995D01*
X143359329Y-59623441D01*
X143284473Y-59588677D01*
X143210648Y-59551841D01*
X143150890Y-59535529D01*
X143109887Y-59521181D01*
X143052995Y-59496675D01*
X142972277Y-59479439D01*
X142892093Y-59459950D01*
X142830200Y-59457344D01*
X142787040Y-59452481D01*
X142726106Y-59441247D01*
X142643600Y-59442405D01*
X142561095Y-59441247D01*
X142500168Y-59452480D01*
X142456992Y-59457345D01*
X142395106Y-59459950D01*
X142314914Y-59479440D01*
X142234205Y-59496675D01*
X142177320Y-59521178D01*
X142136312Y-59535527D01*
X142076551Y-59551840D01*
X142002714Y-59588683D01*
X141927870Y-59623441D01*
X141877854Y-59659995D01*
X141841063Y-59683112D01*
X141786437Y-59712310D01*
X141722658Y-59764652D01*
X141657411Y-59815205D01*
X141643600Y-59831103D01*
X141629788Y-59815205D01*
X141564551Y-59764660D01*
X141500762Y-59712310D01*
X141446134Y-59683110D01*
X141409345Y-59659995D01*
X141359329Y-59623441D01*
X141284473Y-59588677D01*
X141210648Y-59551841D01*
X141150890Y-59535529D01*
X141109887Y-59521181D01*
X141052995Y-59496675D01*
X140972277Y-59479439D01*
X140892093Y-59459950D01*
X140830200Y-59457344D01*
X140787040Y-59452481D01*
X140726106Y-59441247D01*
X140643600Y-59442405D01*
X140561095Y-59441247D01*
X140500168Y-59452480D01*
X140456992Y-59457345D01*
X140395106Y-59459950D01*
X140314914Y-59479440D01*
X140234205Y-59496675D01*
X140177320Y-59521178D01*
X140136312Y-59535527D01*
X140076551Y-59551840D01*
X140002714Y-59588683D01*
X139927870Y-59623441D01*
X139877854Y-59659995D01*
X139841063Y-59683112D01*
X139786437Y-59712310D01*
X139722658Y-59764652D01*
X139657411Y-59815205D01*
X139616785Y-59861970D01*
X139586067Y-59892687D01*
X139539304Y-59933312D01*
X139488759Y-59998549D01*
X139436409Y-60062338D01*
X139407209Y-60116966D01*
X139384094Y-60153755D01*
X139347540Y-60203771D01*
X139312776Y-60278627D01*
X139275940Y-60352452D01*
X139259628Y-60412210D01*
X139245278Y-60453222D01*
X139220772Y-60510113D01*
X139211745Y-60552387D01*
X139210648Y-60551840D01*
X139150890Y-60535528D01*
X139109878Y-60521178D01*
X139052987Y-60496672D01*
X138972272Y-60479436D01*
X138892093Y-60459949D01*
X138838622Y-60457698D01*
X138835125Y-60456637D01*
X138746192Y-60447878D01*
X138705298Y-60443270D01*
X138698434Y-60443174D01*
X138691593Y-60442500D01*
X138650380Y-60442500D01*
X138561086Y-60441248D01*
X138554295Y-60442500D01*
X136841434Y-60442500D01*
X136747824Y-60365677D01*
X136579386Y-60275645D01*
X136396620Y-60220203D01*
X136206550Y-60201483D01*
X135294050Y-60201483D01*
X135103980Y-60220203D01*
X134921214Y-60275645D01*
X134752776Y-60365677D01*
X134605139Y-60486839D01*
X134483977Y-60634476D01*
X134393945Y-60802914D01*
X134338503Y-60985680D01*
X134319783Y-61175750D01*
X134319783Y-61663250D01*
X134338503Y-61853320D01*
X134393945Y-62036086D01*
X134483977Y-62204524D01*
X134605139Y-62352161D01*
X134611035Y-62357000D01*
X134605139Y-62361839D01*
X134483977Y-62509476D01*
X134393945Y-62677914D01*
X134338503Y-62860680D01*
X134319783Y-63050750D01*
X134319783Y-63538250D01*
X134338503Y-63728320D01*
X134393945Y-63911086D01*
X134483977Y-64079524D01*
X134605139Y-64227161D01*
X134752776Y-64348323D01*
X134898301Y-64426108D01*
X134898301Y-64575742D01*
X134894178Y-64617600D01*
X134902028Y-64697293D01*
X134910629Y-64784621D01*
X134917958Y-64808782D01*
X134959346Y-64945223D01*
X135038461Y-65093236D01*
X135095449Y-65162676D01*
X135144931Y-65222970D01*
X135177441Y-65249650D01*
X135495200Y-65567410D01*
X135495201Y-66538830D01*
X135352453Y-66615130D01*
X135203869Y-66737069D01*
X135081930Y-66885653D01*
X134991320Y-67055172D01*
X134935523Y-67239110D01*
X134916683Y-67430399D01*
X134916683Y-67955401D01*
X134935523Y-68146690D01*
X134991320Y-68330628D01*
X135081930Y-68500147D01*
X135161159Y-68596688D01*
X135116663Y-68650906D01*
X135057698Y-68761220D01*
X135021388Y-68880918D01*
X135009128Y-69005400D01*
X135012200Y-69232150D01*
X135170950Y-69390900D01*
X136220200Y-69390900D01*
X136220200Y-69370900D01*
X136474200Y-69370900D01*
X136474200Y-69390900D01*
X137523450Y-69390900D01*
X137682200Y-69232150D01*
X137683719Y-69119961D01*
X140721096Y-69119961D01*
X140843085Y-69342000D01*
X141986000Y-69342000D01*
X141986000Y-68198376D01*
X142240000Y-68198376D01*
X142240000Y-69342000D01*
X143382915Y-69342000D01*
X143504904Y-69119961D01*
X143464246Y-68985913D01*
X143344037Y-68731580D01*
X143176519Y-68505586D01*
X142968131Y-68316615D01*
X142726881Y-68171930D01*
X142462040Y-68077091D01*
X142240000Y-68198376D01*
X141986000Y-68198376D01*
X141763960Y-68077091D01*
X141499119Y-68171930D01*
X141257869Y-68316615D01*
X141049481Y-68505586D01*
X140881963Y-68731580D01*
X140761754Y-68985913D01*
X140721096Y-69119961D01*
X137683719Y-69119961D01*
X137685272Y-69005400D01*
X137673012Y-68880918D01*
X137636702Y-68761220D01*
X137577737Y-68650906D01*
X137533241Y-68596688D01*
X137612470Y-68500147D01*
X137703080Y-68330628D01*
X137758877Y-68146690D01*
X137777717Y-67955401D01*
X137777717Y-67430399D01*
X137758877Y-67239110D01*
X137703080Y-67055172D01*
X137612470Y-66885653D01*
X137490531Y-66737069D01*
X137341947Y-66615130D01*
X137199200Y-66538830D01*
X137199200Y-65256348D01*
X137203322Y-65214499D01*
X137198218Y-65162676D01*
X137186872Y-65047479D01*
X137138154Y-64886876D01*
X137120134Y-64853164D01*
X137059039Y-64738863D01*
X136993868Y-64659452D01*
X136952570Y-64609130D01*
X136920060Y-64582451D01*
X136707491Y-64369881D01*
X136747824Y-64348323D01*
X136895461Y-64227161D01*
X137016623Y-64079524D01*
X137106655Y-63911086D01*
X137162097Y-63728320D01*
X137180817Y-63538250D01*
X137180817Y-63050750D01*
X137162097Y-62860680D01*
X137106655Y-62677914D01*
X137016623Y-62509476D01*
X136923906Y-62396500D01*
X138249029Y-62396500D01*
X138259628Y-62426790D01*
X138275940Y-62486548D01*
X138312776Y-62560373D01*
X138347540Y-62635229D01*
X138384094Y-62685245D01*
X138407209Y-62722034D01*
X138436409Y-62776662D01*
X138488759Y-62840451D01*
X138539304Y-62905688D01*
X138586067Y-62946313D01*
X138616785Y-62977030D01*
X138657411Y-63023795D01*
X138722658Y-63074348D01*
X138786437Y-63126690D01*
X138841063Y-63155888D01*
X138877854Y-63179005D01*
X138927870Y-63215559D01*
X139002714Y-63250317D01*
X139076551Y-63287160D01*
X139136312Y-63303473D01*
X139177320Y-63317822D01*
X139234205Y-63342325D01*
X139314914Y-63359560D01*
X139395106Y-63379050D01*
X139456992Y-63381655D01*
X139500168Y-63386520D01*
X139561095Y-63397753D01*
X139643600Y-63396595D01*
X139726106Y-63397753D01*
X139787040Y-63386519D01*
X139830200Y-63381656D01*
X139892093Y-63379050D01*
X139972277Y-63359561D01*
X140052995Y-63342325D01*
X140109887Y-63317819D01*
X140150890Y-63303471D01*
X140210648Y-63287159D01*
X140284473Y-63250323D01*
X140359329Y-63215559D01*
X140409345Y-63179005D01*
X140446134Y-63155890D01*
X140500762Y-63126690D01*
X140564551Y-63074340D01*
X140629788Y-63023795D01*
X140643600Y-63007897D01*
X140657411Y-63023795D01*
X140722658Y-63074348D01*
X140786437Y-63126690D01*
X140841063Y-63155888D01*
X140877854Y-63179005D01*
X140927870Y-63215559D01*
X141002714Y-63250317D01*
X141076551Y-63287160D01*
X141136312Y-63303473D01*
X141177320Y-63317822D01*
X141234205Y-63342325D01*
X141314914Y-63359560D01*
X141395106Y-63379050D01*
X141456992Y-63381655D01*
X141500168Y-63386520D01*
X141561095Y-63397753D01*
X141643600Y-63396595D01*
X141726106Y-63397753D01*
X141787040Y-63386519D01*
X141830200Y-63381656D01*
X141892093Y-63379050D01*
X141972277Y-63359561D01*
X142052995Y-63342325D01*
X142109887Y-63317819D01*
X142150890Y-63303471D01*
X142210648Y-63287159D01*
X142284473Y-63250323D01*
X142359329Y-63215559D01*
X142409345Y-63179005D01*
X142446134Y-63155890D01*
X142500762Y-63126690D01*
X142564551Y-63074340D01*
X142629788Y-63023795D01*
X142643600Y-63007897D01*
X142657411Y-63023795D01*
X142722658Y-63074348D01*
X142786437Y-63126690D01*
X142841063Y-63155888D01*
X142877854Y-63179005D01*
X142927870Y-63215559D01*
X143002714Y-63250317D01*
X143076551Y-63287160D01*
X143136312Y-63303473D01*
X143177320Y-63317822D01*
X143234205Y-63342325D01*
X143314914Y-63359560D01*
X143395106Y-63379050D01*
X143456992Y-63381655D01*
X143500168Y-63386520D01*
X143561095Y-63397753D01*
X143643600Y-63396595D01*
X143726106Y-63397753D01*
X143787040Y-63386519D01*
X143830200Y-63381656D01*
X143892093Y-63379050D01*
X143972277Y-63359561D01*
X144052995Y-63342325D01*
X144109887Y-63317819D01*
X144150890Y-63303471D01*
X144210648Y-63287159D01*
X144284473Y-63250323D01*
X144359329Y-63215559D01*
X144409345Y-63179005D01*
X144446134Y-63155890D01*
X144500762Y-63126690D01*
X144564551Y-63074340D01*
X144629788Y-63023795D01*
X144670413Y-62977032D01*
X144701130Y-62946314D01*
X144747895Y-62905688D01*
X144798448Y-62840441D01*
X144850790Y-62776662D01*
X144879988Y-62722036D01*
X144903105Y-62685245D01*
X144939659Y-62635229D01*
X144974417Y-62560385D01*
X145011260Y-62486548D01*
X145027573Y-62426787D01*
X145038170Y-62396500D01*
X145424943Y-62396500D01*
X145446627Y-62428952D01*
X145673248Y-62655573D01*
X145939727Y-62833628D01*
X146235822Y-62956275D01*
X146550155Y-63018800D01*
X146800514Y-63018800D01*
X145189898Y-64629416D01*
X145152614Y-64660014D01*
X145030524Y-64808782D01*
X144939804Y-64978509D01*
X144939803Y-64978510D01*
X144883937Y-65162675D01*
X144865073Y-65354200D01*
X144869800Y-65402193D01*
X144869801Y-68303397D01*
X144865073Y-68351400D01*
X144883937Y-68542925D01*
X144939803Y-68727090D01*
X145030525Y-68896818D01*
X145112162Y-68996293D01*
X145152615Y-69045586D01*
X145189893Y-69076179D01*
X146239620Y-70125907D01*
X146270214Y-70163186D01*
X146418982Y-70285276D01*
X146532250Y-70345819D01*
X146588709Y-70375997D01*
X146772874Y-70431863D01*
X146964399Y-70450727D01*
X147012392Y-70446000D01*
X148550495Y-70446000D01*
X148759594Y-70655099D01*
X149009694Y-70822210D01*
X149287590Y-70937319D01*
X149582604Y-70996000D01*
X149883396Y-70996000D01*
X150178410Y-70937319D01*
X150456306Y-70822210D01*
X150706406Y-70655099D01*
X150919099Y-70442406D01*
X151086210Y-70192306D01*
X151201319Y-69914410D01*
X151260000Y-69619396D01*
X151260000Y-69318604D01*
X151201319Y-69023590D01*
X151086210Y-68745694D01*
X150919099Y-68495594D01*
X150706406Y-68282901D01*
X150456306Y-68115790D01*
X150178410Y-68000681D01*
X149883396Y-67942000D01*
X149582604Y-67942000D01*
X149287590Y-68000681D01*
X149009694Y-68115790D01*
X148759594Y-68282901D01*
X148550495Y-68492000D01*
X147369087Y-68492000D01*
X146823800Y-67946714D01*
X146823800Y-65758886D01*
X149560370Y-63022317D01*
X150150400Y-63022317D01*
X150292917Y-63008280D01*
X150429957Y-62966710D01*
X150556253Y-62899203D01*
X150666954Y-62808354D01*
X150757803Y-62697653D01*
X150825310Y-62571357D01*
X150866880Y-62434317D01*
X150880917Y-62291800D01*
X150880917Y-60491800D01*
X150866880Y-60349283D01*
X150825310Y-60212243D01*
X150757803Y-60085947D01*
X150666954Y-59975246D01*
X150556253Y-59884397D01*
X150429957Y-59816890D01*
X150292917Y-59775320D01*
X150150400Y-59761283D01*
X148350400Y-59761283D01*
X148207883Y-59775320D01*
X148187400Y-59781533D01*
X148187400Y-58142792D01*
X148338483Y-57991709D01*
X148394850Y-57945450D01*
X148527638Y-57783646D01*
X148579423Y-57720547D01*
X148716572Y-57463958D01*
X148718245Y-57458444D01*
X148801029Y-57185543D01*
X148822400Y-56968556D01*
X148822400Y-56968553D01*
X148829546Y-56896000D01*
X148822400Y-56823447D01*
X148822400Y-51718200D01*
X148972247Y-51718200D01*
X149044800Y-51725346D01*
X149117353Y-51718200D01*
X149117356Y-51718200D01*
X149334343Y-51696829D01*
X149612758Y-51612372D01*
X149869347Y-51475222D01*
X150094250Y-51290650D01*
X150140508Y-51234284D01*
X151359192Y-50015600D01*
X151453547Y-49996832D01*
X151763901Y-49868279D01*
X151763901Y-50817189D01*
X151413490Y-51167600D01*
X151119895Y-51109200D01*
X150779705Y-51109200D01*
X150446053Y-51175568D01*
X150131759Y-51305753D01*
X149848902Y-51494752D01*
X149608352Y-51735302D01*
X149419353Y-52018159D01*
X149289168Y-52332453D01*
X149222800Y-52666105D01*
X149222800Y-53006295D01*
X149289168Y-53339947D01*
X149419353Y-53654241D01*
X149608352Y-53937098D01*
X149848902Y-54177648D01*
X150131759Y-54366647D01*
X150446053Y-54496832D01*
X150779705Y-54563200D01*
X151119895Y-54563200D01*
X151453547Y-54496832D01*
X151767841Y-54366647D01*
X152050698Y-54177648D01*
X152291248Y-53937098D01*
X152480247Y-53654241D01*
X152610432Y-53339947D01*
X152676800Y-53006295D01*
X152676800Y-52666105D01*
X152618400Y-52372510D01*
X152918000Y-52072910D01*
X152918001Y-87640000D01*
X107431560Y-87640000D01*
X107425356Y-77017200D01*
X109434083Y-77017200D01*
X109434083Y-79017200D01*
X109448120Y-79159717D01*
X109489690Y-79296757D01*
X109557197Y-79423053D01*
X109648046Y-79533754D01*
X109758747Y-79624603D01*
X109885043Y-79692110D01*
X110022083Y-79733680D01*
X110164600Y-79747717D01*
X110757601Y-79747717D01*
X110757601Y-80088997D01*
X110752873Y-80137000D01*
X110771737Y-80328525D01*
X110827603Y-80512690D01*
X110918325Y-80682418D01*
X110995207Y-80776099D01*
X111040415Y-80831186D01*
X111077693Y-80861779D01*
X111405466Y-81189552D01*
X111292083Y-81200720D01*
X111155043Y-81242290D01*
X111099600Y-81271925D01*
X111044157Y-81242290D01*
X110907117Y-81200720D01*
X110764600Y-81186683D01*
X110164600Y-81186683D01*
X110022083Y-81200720D01*
X109885043Y-81242290D01*
X109758747Y-81309797D01*
X109648046Y-81400646D01*
X109557197Y-81511347D01*
X109489690Y-81637643D01*
X109448120Y-81774683D01*
X109434083Y-81917200D01*
X109434083Y-83917200D01*
X109448120Y-84059717D01*
X109489690Y-84196757D01*
X109557197Y-84323053D01*
X109648046Y-84433754D01*
X109758747Y-84524603D01*
X109885043Y-84592110D01*
X110022083Y-84633680D01*
X110164600Y-84647717D01*
X110764600Y-84647717D01*
X110907117Y-84633680D01*
X111044157Y-84592110D01*
X111099600Y-84562475D01*
X111155043Y-84592110D01*
X111292083Y-84633680D01*
X111434600Y-84647717D01*
X112034600Y-84647717D01*
X112177117Y-84633680D01*
X112314157Y-84592110D01*
X112369600Y-84562475D01*
X112425043Y-84592110D01*
X112562083Y-84633680D01*
X112704600Y-84647717D01*
X113304600Y-84647717D01*
X113447117Y-84633680D01*
X113584157Y-84592110D01*
X113639600Y-84562475D01*
X113695043Y-84592110D01*
X113832083Y-84633680D01*
X113974600Y-84647717D01*
X114574600Y-84647717D01*
X114717117Y-84633680D01*
X114854157Y-84592110D01*
X114980453Y-84524603D01*
X115091154Y-84433754D01*
X115182003Y-84323053D01*
X115249510Y-84196757D01*
X115291080Y-84059717D01*
X115305117Y-83917200D01*
X115305117Y-81917200D01*
X115291080Y-81774683D01*
X115249510Y-81637643D01*
X115182003Y-81511347D01*
X115091154Y-81400646D01*
X114980453Y-81309797D01*
X114854157Y-81242290D01*
X114717117Y-81200720D01*
X114574600Y-81186683D01*
X114555803Y-81186683D01*
X114931502Y-80810984D01*
X114968786Y-80780386D01*
X115090876Y-80631618D01*
X115181597Y-80461891D01*
X115205802Y-80382098D01*
X115237463Y-80277726D01*
X115256327Y-80086200D01*
X115251600Y-80038207D01*
X115251600Y-79289867D01*
X115291080Y-79159717D01*
X115305117Y-79017200D01*
X115305117Y-77017200D01*
X115291080Y-76874683D01*
X115290132Y-76871558D01*
X115321053Y-76871992D01*
X115374177Y-76862198D01*
X115381564Y-76861365D01*
X115435536Y-76859093D01*
X115505456Y-76842099D01*
X115575844Y-76827068D01*
X115625460Y-76805696D01*
X115632465Y-76803245D01*
X115684579Y-76789019D01*
X115748983Y-76756884D01*
X115814241Y-76726577D01*
X115849100Y-76701101D01*
X115883958Y-76726577D01*
X115949212Y-76756882D01*
X116013620Y-76789020D01*
X116065745Y-76803248D01*
X116072738Y-76805695D01*
X116122356Y-76827068D01*
X116192741Y-76842098D01*
X116262663Y-76859093D01*
X116316636Y-76861365D01*
X116324012Y-76862197D01*
X116377148Y-76871993D01*
X116449115Y-76870983D01*
X116521053Y-76871992D01*
X116574177Y-76862198D01*
X116581564Y-76861365D01*
X116635536Y-76859093D01*
X116705456Y-76842099D01*
X116775844Y-76827068D01*
X116825460Y-76805696D01*
X116832465Y-76803245D01*
X116884579Y-76789019D01*
X116948983Y-76756884D01*
X117014241Y-76726577D01*
X117049100Y-76701101D01*
X117083958Y-76726577D01*
X117149212Y-76756882D01*
X117213620Y-76789020D01*
X117265745Y-76803248D01*
X117272738Y-76805695D01*
X117322356Y-76827068D01*
X117392741Y-76842098D01*
X117462663Y-76859093D01*
X117516636Y-76861365D01*
X117524012Y-76862197D01*
X117577148Y-76871993D01*
X117649115Y-76870983D01*
X117721053Y-76871992D01*
X117774177Y-76862198D01*
X117781564Y-76861365D01*
X117835536Y-76859093D01*
X117905456Y-76842099D01*
X117975844Y-76827068D01*
X118025460Y-76805696D01*
X118032465Y-76803245D01*
X118084579Y-76789019D01*
X118148983Y-76756884D01*
X118214241Y-76726577D01*
X118249100Y-76701101D01*
X118283958Y-76726577D01*
X118349212Y-76756882D01*
X118413620Y-76789020D01*
X118465745Y-76803248D01*
X118472738Y-76805695D01*
X118522356Y-76827068D01*
X118592741Y-76842098D01*
X118662663Y-76859093D01*
X118716636Y-76861365D01*
X118724012Y-76862197D01*
X118777148Y-76871993D01*
X118849115Y-76870983D01*
X118921053Y-76871992D01*
X118974177Y-76862198D01*
X118981564Y-76861365D01*
X119035536Y-76859093D01*
X119105456Y-76842099D01*
X119175844Y-76827068D01*
X119194252Y-76819139D01*
X118896045Y-77117346D01*
X118863530Y-77144030D01*
X118812800Y-77205846D01*
X118757061Y-77273764D01*
X118677947Y-77421776D01*
X118677946Y-77421777D01*
X118629228Y-77582380D01*
X118616973Y-77706806D01*
X118612778Y-77749400D01*
X118616900Y-77791249D01*
X118616900Y-78431451D01*
X118612778Y-78473300D01*
X118616900Y-78515149D01*
X118616900Y-78515152D01*
X118629228Y-78640321D01*
X118651881Y-78714997D01*
X118677946Y-78800923D01*
X118757061Y-78948936D01*
X118809853Y-79013263D01*
X118863531Y-79078670D01*
X118896041Y-79105350D01*
X119160945Y-79370254D01*
X119187630Y-79402770D01*
X119317364Y-79509239D01*
X119465376Y-79588354D01*
X119625979Y-79637072D01*
X119751148Y-79649400D01*
X119751151Y-79649400D01*
X119793000Y-79653522D01*
X119820883Y-79650776D01*
X119820883Y-79872400D01*
X119833195Y-79997400D01*
X119820883Y-80122400D01*
X119820883Y-80672400D01*
X119833195Y-80797400D01*
X119820883Y-80922400D01*
X119820883Y-81472400D01*
X119833195Y-81597400D01*
X119820883Y-81722400D01*
X119820883Y-82272400D01*
X119833195Y-82397400D01*
X119820883Y-82522400D01*
X119820883Y-83072400D01*
X119833195Y-83197400D01*
X119820883Y-83322400D01*
X119820883Y-83872400D01*
X119834920Y-84014917D01*
X119876490Y-84151957D01*
X119943997Y-84278253D01*
X120034846Y-84388954D01*
X120145547Y-84479803D01*
X120271843Y-84547310D01*
X120408883Y-84588880D01*
X120551400Y-84602917D01*
X121695883Y-84602917D01*
X121695883Y-85747400D01*
X121709920Y-85889917D01*
X121751490Y-86026957D01*
X121818997Y-86153253D01*
X121909846Y-86263954D01*
X122020547Y-86354803D01*
X122146843Y-86422310D01*
X122283883Y-86463880D01*
X122426400Y-86477917D01*
X122976400Y-86477917D01*
X123101400Y-86465605D01*
X123226400Y-86477917D01*
X123776400Y-86477917D01*
X123901400Y-86465605D01*
X124026400Y-86477917D01*
X124576400Y-86477917D01*
X124701400Y-86465605D01*
X124826400Y-86477917D01*
X125376400Y-86477917D01*
X125501400Y-86465605D01*
X125626400Y-86477917D01*
X126176400Y-86477917D01*
X126301400Y-86465605D01*
X126426400Y-86477917D01*
X126976400Y-86477917D01*
X127101400Y-86465605D01*
X127226400Y-86477917D01*
X127776400Y-86477917D01*
X127901400Y-86465605D01*
X128026400Y-86477917D01*
X128576400Y-86477917D01*
X128718917Y-86463880D01*
X128855957Y-86422310D01*
X128982253Y-86354803D01*
X129092954Y-86263954D01*
X129183803Y-86153253D01*
X129251310Y-86026957D01*
X129292880Y-85889917D01*
X129306917Y-85747400D01*
X129306917Y-84602917D01*
X130451400Y-84602917D01*
X130593917Y-84588880D01*
X130730957Y-84547310D01*
X130857253Y-84479803D01*
X130967954Y-84388954D01*
X131058803Y-84278253D01*
X131126310Y-84151957D01*
X131167880Y-84014917D01*
X131181917Y-83872400D01*
X131181917Y-83322400D01*
X131169605Y-83197400D01*
X131181917Y-83072400D01*
X131181917Y-82522400D01*
X131169605Y-82397400D01*
X131181917Y-82272400D01*
X131181917Y-81722400D01*
X131169605Y-81597400D01*
X131181917Y-81472400D01*
X131181917Y-80922400D01*
X131169605Y-80797400D01*
X131181917Y-80672400D01*
X131181917Y-80574400D01*
X131846614Y-80574400D01*
X132828690Y-81556477D01*
X132828691Y-82233788D01*
X132823963Y-82281790D01*
X132842827Y-82473315D01*
X132898693Y-82657480D01*
X132965291Y-82782076D01*
X132989415Y-82827208D01*
X133111505Y-82975976D01*
X133148783Y-83006569D01*
X134138300Y-83996087D01*
X134138301Y-84648298D01*
X134133573Y-84696300D01*
X134152437Y-84887825D01*
X134208303Y-85071990D01*
X134299025Y-85241718D01*
X134421115Y-85390486D01*
X134458395Y-85421080D01*
X134631812Y-85594498D01*
X134662414Y-85631786D01*
X134811182Y-85753876D01*
X134980909Y-85844597D01*
X135098936Y-85880400D01*
X135165074Y-85900463D01*
X135338280Y-85917523D01*
X135339520Y-85930117D01*
X135381090Y-86067157D01*
X135448597Y-86193453D01*
X135539446Y-86304154D01*
X135650147Y-86395003D01*
X135776443Y-86462510D01*
X135913483Y-86504080D01*
X136056000Y-86518117D01*
X137756000Y-86518117D01*
X137898517Y-86504080D01*
X138035557Y-86462510D01*
X138161853Y-86395003D01*
X138272554Y-86304154D01*
X138363403Y-86193453D01*
X138430910Y-86067157D01*
X138472480Y-85930117D01*
X138486517Y-85787600D01*
X138486517Y-84087600D01*
X138472480Y-83945083D01*
X138430910Y-83808043D01*
X138363403Y-83681747D01*
X138272554Y-83571046D01*
X138161853Y-83480197D01*
X138091319Y-83442496D01*
X138130936Y-83402879D01*
X138303519Y-83144589D01*
X138422396Y-82857594D01*
X138483000Y-82552921D01*
X138483000Y-82242279D01*
X138422396Y-81937606D01*
X138303519Y-81650611D01*
X138130936Y-81392321D01*
X137911279Y-81172664D01*
X137843836Y-81127600D01*
X137911279Y-81082536D01*
X138130936Y-80862879D01*
X138303519Y-80604589D01*
X138422396Y-80317594D01*
X138483000Y-80012921D01*
X138483000Y-79780661D01*
X138867979Y-80165640D01*
X138909530Y-80216270D01*
X138960160Y-80257821D01*
X138960161Y-80257822D01*
X139111591Y-80382098D01*
X139260872Y-80461890D01*
X139342122Y-80505319D01*
X139592263Y-80581199D01*
X139787216Y-80600400D01*
X139787226Y-80600400D01*
X139852400Y-80606819D01*
X139917574Y-80600400D01*
X141713254Y-80600400D01*
X141672994Y-80627301D01*
X141460301Y-80839994D01*
X141293190Y-81090094D01*
X141178081Y-81367990D01*
X141119400Y-81663004D01*
X141119400Y-81963796D01*
X141178081Y-82258810D01*
X141293190Y-82536706D01*
X141460301Y-82786806D01*
X141672994Y-82999499D01*
X141798561Y-83083400D01*
X141672994Y-83167301D01*
X141460301Y-83379994D01*
X141293190Y-83630094D01*
X141178081Y-83907990D01*
X141119400Y-84203004D01*
X141119400Y-84503796D01*
X141178081Y-84798810D01*
X141293190Y-85076706D01*
X141460301Y-85326806D01*
X141672994Y-85539499D01*
X141923094Y-85706610D01*
X142200990Y-85821719D01*
X142496004Y-85880400D01*
X142796796Y-85880400D01*
X143091810Y-85821719D01*
X143369706Y-85706610D01*
X143619806Y-85539499D01*
X143832499Y-85326806D01*
X143999610Y-85076706D01*
X144114719Y-84798810D01*
X144173400Y-84503796D01*
X144173400Y-84203004D01*
X144114719Y-83907990D01*
X143999610Y-83630094D01*
X143832499Y-83379994D01*
X143619806Y-83167301D01*
X143579546Y-83140400D01*
X146086426Y-83140400D01*
X146151600Y-83146819D01*
X146216774Y-83140400D01*
X146216784Y-83140400D01*
X146411737Y-83121199D01*
X146661878Y-83045319D01*
X146892408Y-82922098D01*
X147094470Y-82756270D01*
X147136025Y-82705635D01*
X147742335Y-82099325D01*
X147792970Y-82057770D01*
X147910141Y-81914997D01*
X147958798Y-81855709D01*
X148082019Y-81625178D01*
X148095759Y-81579883D01*
X148157899Y-81375037D01*
X148177100Y-81180084D01*
X148177100Y-81180075D01*
X148183519Y-81114901D01*
X148177100Y-81049727D01*
X148177100Y-76583004D01*
X148739400Y-76583004D01*
X148739400Y-76883796D01*
X148798081Y-77178810D01*
X148913190Y-77456706D01*
X149080301Y-77706806D01*
X149292994Y-77919499D01*
X149418561Y-78003400D01*
X149292994Y-78087301D01*
X149080301Y-78299994D01*
X148913190Y-78550094D01*
X148798081Y-78827990D01*
X148739400Y-79123004D01*
X148739400Y-79423796D01*
X148798081Y-79718810D01*
X148913190Y-79996706D01*
X149080301Y-80246806D01*
X149292994Y-80459499D01*
X149418561Y-80543400D01*
X149292994Y-80627301D01*
X149080301Y-80839994D01*
X148913190Y-81090094D01*
X148798081Y-81367990D01*
X148739400Y-81663004D01*
X148739400Y-81963796D01*
X148798081Y-82258810D01*
X148913190Y-82536706D01*
X149080301Y-82786806D01*
X149292994Y-82999499D01*
X149418561Y-83083400D01*
X149292994Y-83167301D01*
X149080301Y-83379994D01*
X148913190Y-83630094D01*
X148798081Y-83907990D01*
X148739400Y-84203004D01*
X148739400Y-84503796D01*
X148798081Y-84798810D01*
X148913190Y-85076706D01*
X149080301Y-85326806D01*
X149292994Y-85539499D01*
X149543094Y-85706610D01*
X149820990Y-85821719D01*
X150116004Y-85880400D01*
X150416796Y-85880400D01*
X150711810Y-85821719D01*
X150989706Y-85706610D01*
X151239806Y-85539499D01*
X151452499Y-85326806D01*
X151619610Y-85076706D01*
X151734719Y-84798810D01*
X151793400Y-84503796D01*
X151793400Y-84203004D01*
X151734719Y-83907990D01*
X151619610Y-83630094D01*
X151452499Y-83379994D01*
X151239806Y-83167301D01*
X151114239Y-83083400D01*
X151239806Y-82999499D01*
X151452499Y-82786806D01*
X151619610Y-82536706D01*
X151734719Y-82258810D01*
X151793400Y-81963796D01*
X151793400Y-81663004D01*
X151734719Y-81367990D01*
X151619610Y-81090094D01*
X151452499Y-80839994D01*
X151239806Y-80627301D01*
X151114239Y-80543400D01*
X151239806Y-80459499D01*
X151452499Y-80246806D01*
X151619610Y-79996706D01*
X151734719Y-79718810D01*
X151793400Y-79423796D01*
X151793400Y-79123004D01*
X151734719Y-78827990D01*
X151619610Y-78550094D01*
X151452499Y-78299994D01*
X151239806Y-78087301D01*
X151114239Y-78003400D01*
X151239806Y-77919499D01*
X151452499Y-77706806D01*
X151619610Y-77456706D01*
X151734719Y-77178810D01*
X151793400Y-76883796D01*
X151793400Y-76583004D01*
X151734719Y-76287990D01*
X151619610Y-76010094D01*
X151452499Y-75759994D01*
X151239806Y-75547301D01*
X150989706Y-75380190D01*
X150711810Y-75265081D01*
X150416796Y-75206400D01*
X150116004Y-75206400D01*
X149820990Y-75265081D01*
X149543094Y-75380190D01*
X149292994Y-75547301D01*
X149080301Y-75759994D01*
X148913190Y-76010094D01*
X148798081Y-76287990D01*
X148739400Y-76583004D01*
X148177100Y-76583004D01*
X148177100Y-75503174D01*
X148183519Y-75438000D01*
X148177100Y-75372826D01*
X148177100Y-75372816D01*
X148157899Y-75177863D01*
X148082019Y-74927722D01*
X148065190Y-74896237D01*
X147958798Y-74697191D01*
X147834522Y-74545761D01*
X147834521Y-74545760D01*
X147792970Y-74495130D01*
X147742341Y-74453580D01*
X145929525Y-72640765D01*
X145887970Y-72590130D01*
X145685908Y-72424302D01*
X145455378Y-72301081D01*
X145205237Y-72225201D01*
X145010284Y-72206000D01*
X145010274Y-72206000D01*
X144945100Y-72199581D01*
X144879926Y-72206000D01*
X141149473Y-72206000D01*
X141084299Y-72199581D01*
X141019125Y-72206000D01*
X141019116Y-72206000D01*
X140824163Y-72225201D01*
X140574022Y-72301081D01*
X140343490Y-72424302D01*
X140192061Y-72548578D01*
X140141430Y-72590130D01*
X140099879Y-72640760D01*
X139290040Y-73450600D01*
X137758529Y-73450600D01*
X137652989Y-73380081D01*
X137365994Y-73261204D01*
X137061321Y-73200600D01*
X136750679Y-73200600D01*
X136446006Y-73261204D01*
X136159011Y-73380081D01*
X135900721Y-73552664D01*
X135681064Y-73772321D01*
X135508481Y-74030611D01*
X135389604Y-74317606D01*
X135329000Y-74622279D01*
X135329000Y-74932921D01*
X135389604Y-75237594D01*
X135508481Y-75524589D01*
X135681064Y-75782879D01*
X135900721Y-76002536D01*
X135968164Y-76047600D01*
X135900721Y-76092664D01*
X135681064Y-76312321D01*
X135508481Y-76570611D01*
X135389604Y-76857606D01*
X135329000Y-77162279D01*
X135329000Y-77472921D01*
X135389604Y-77777594D01*
X135508481Y-78064589D01*
X135681064Y-78322879D01*
X135900721Y-78542536D01*
X135968164Y-78587600D01*
X135900721Y-78632664D01*
X135681064Y-78852321D01*
X135662169Y-78880600D01*
X135265987Y-78880600D01*
X133725884Y-77340498D01*
X133695286Y-77303214D01*
X133546518Y-77181124D01*
X133376791Y-77090403D01*
X133192625Y-77034537D01*
X133049093Y-77020400D01*
X133001100Y-77015673D01*
X132953107Y-77020400D01*
X130641652Y-77020400D01*
X130593917Y-77005920D01*
X130451400Y-76991883D01*
X129306917Y-76991883D01*
X129306917Y-75847400D01*
X129292880Y-75704883D01*
X129251310Y-75567843D01*
X129183803Y-75441547D01*
X129092954Y-75330846D01*
X128982253Y-75239997D01*
X128855957Y-75172490D01*
X128718917Y-75130920D01*
X128576400Y-75116883D01*
X128026400Y-75116883D01*
X127901400Y-75129195D01*
X127776400Y-75116883D01*
X127226400Y-75116883D01*
X127101400Y-75129195D01*
X126976400Y-75116883D01*
X126426400Y-75116883D01*
X126301400Y-75129195D01*
X126176400Y-75116883D01*
X125626400Y-75116883D01*
X125501400Y-75129195D01*
X125376400Y-75116883D01*
X124826400Y-75116883D01*
X124701400Y-75129195D01*
X124576400Y-75116883D01*
X124026400Y-75116883D01*
X123901400Y-75129195D01*
X123776400Y-75116883D01*
X123226400Y-75116883D01*
X123101400Y-75129195D01*
X122976400Y-75116883D01*
X122426400Y-75116883D01*
X122283883Y-75130920D01*
X122146843Y-75172490D01*
X122020547Y-75239997D01*
X121909846Y-75330846D01*
X121818997Y-75441547D01*
X121751490Y-75567843D01*
X121709920Y-75704883D01*
X121695883Y-75847400D01*
X121695883Y-76991883D01*
X121270285Y-76991883D01*
X121286472Y-76938521D01*
X121298800Y-76813352D01*
X121298800Y-76813350D01*
X121302922Y-76771501D01*
X121298800Y-76729652D01*
X121298800Y-75695749D01*
X121302922Y-75653900D01*
X121298319Y-75607168D01*
X121286472Y-75486879D01*
X121237754Y-75326276D01*
X121158639Y-75178264D01*
X121052170Y-75048530D01*
X121019660Y-75021851D01*
X120443854Y-74446045D01*
X120417170Y-74413530D01*
X120287436Y-74307061D01*
X120139424Y-74227946D01*
X119978821Y-74179228D01*
X119853652Y-74166900D01*
X119853649Y-74166900D01*
X119811800Y-74162778D01*
X119769951Y-74166900D01*
X119526982Y-74166900D01*
X119521065Y-74165809D01*
X119443195Y-74166900D01*
X119407248Y-74166900D01*
X119401286Y-74167487D01*
X119395303Y-74167571D01*
X119390793Y-74168079D01*
X119389293Y-74132464D01*
X119372301Y-74062552D01*
X119357268Y-73992155D01*
X119335893Y-73942533D01*
X119333448Y-73935546D01*
X119319220Y-73883421D01*
X119287082Y-73819013D01*
X119256777Y-73753759D01*
X119224900Y-73710141D01*
X119220955Y-73703863D01*
X119195488Y-73656218D01*
X119149830Y-73600584D01*
X119105756Y-73543699D01*
X119064976Y-73508272D01*
X119059730Y-73503026D01*
X119024301Y-73462244D01*
X118967416Y-73418170D01*
X118911782Y-73372512D01*
X118864138Y-73347046D01*
X118857856Y-73343098D01*
X118814241Y-73311223D01*
X118748983Y-73280916D01*
X118684579Y-73248781D01*
X118632465Y-73234555D01*
X118625460Y-73232104D01*
X118575844Y-73210732D01*
X118505456Y-73195701D01*
X118435536Y-73178707D01*
X118381564Y-73176435D01*
X118374177Y-73175602D01*
X118321053Y-73165808D01*
X118249115Y-73166817D01*
X118177148Y-73165807D01*
X118124012Y-73175603D01*
X118116636Y-73176435D01*
X118062663Y-73178707D01*
X117992741Y-73195702D01*
X117922356Y-73210732D01*
X117872738Y-73232105D01*
X117865745Y-73234552D01*
X117813620Y-73248780D01*
X117749212Y-73280918D01*
X117683958Y-73311223D01*
X117649100Y-73336699D01*
X117614241Y-73311223D01*
X117548983Y-73280916D01*
X117484579Y-73248781D01*
X117432465Y-73234555D01*
X117425460Y-73232104D01*
X117375844Y-73210732D01*
X117305456Y-73195701D01*
X117235536Y-73178707D01*
X117181564Y-73176435D01*
X117174177Y-73175602D01*
X117121053Y-73165808D01*
X117049115Y-73166817D01*
X116977148Y-73165807D01*
X116924012Y-73175603D01*
X116916636Y-73176435D01*
X116862663Y-73178707D01*
X116792741Y-73195702D01*
X116722356Y-73210732D01*
X116672738Y-73232105D01*
X116665745Y-73234552D01*
X116613620Y-73248780D01*
X116549212Y-73280918D01*
X116483958Y-73311223D01*
X116449100Y-73336699D01*
X116414241Y-73311223D01*
X116348983Y-73280916D01*
X116284579Y-73248781D01*
X116232465Y-73234555D01*
X116225460Y-73232104D01*
X116175844Y-73210732D01*
X116105456Y-73195701D01*
X116035536Y-73178707D01*
X115981564Y-73176435D01*
X115974177Y-73175602D01*
X115921053Y-73165808D01*
X115849115Y-73166817D01*
X115777148Y-73165807D01*
X115724012Y-73175603D01*
X115716636Y-73176435D01*
X115662663Y-73178707D01*
X115592741Y-73195702D01*
X115522356Y-73210732D01*
X115472738Y-73232105D01*
X115465745Y-73234552D01*
X115413620Y-73248780D01*
X115349212Y-73280918D01*
X115283958Y-73311223D01*
X115249100Y-73336699D01*
X115214241Y-73311223D01*
X115148983Y-73280916D01*
X115084579Y-73248781D01*
X115032465Y-73234555D01*
X115025460Y-73232104D01*
X114975844Y-73210732D01*
X114905456Y-73195701D01*
X114835536Y-73178707D01*
X114781564Y-73176435D01*
X114774177Y-73175602D01*
X114721053Y-73165808D01*
X114649115Y-73166817D01*
X114577148Y-73165807D01*
X114524012Y-73175603D01*
X114516636Y-73176435D01*
X114462663Y-73178707D01*
X114392741Y-73195702D01*
X114322356Y-73210732D01*
X114272738Y-73232105D01*
X114265745Y-73234552D01*
X114213620Y-73248780D01*
X114149212Y-73280918D01*
X114083958Y-73311223D01*
X114040340Y-73343100D01*
X114034062Y-73347045D01*
X113986417Y-73372512D01*
X113930783Y-73418170D01*
X113873898Y-73462244D01*
X113838471Y-73503024D01*
X113833225Y-73508270D01*
X113792443Y-73543699D01*
X113748369Y-73600584D01*
X113702711Y-73656218D01*
X113677245Y-73703862D01*
X113673297Y-73710144D01*
X113641422Y-73753759D01*
X113611115Y-73819017D01*
X113578980Y-73883421D01*
X113564754Y-73935535D01*
X113562303Y-73942541D01*
X113540927Y-73992168D01*
X113525899Y-74062550D01*
X113508906Y-74132464D01*
X113507406Y-74168079D01*
X113502897Y-74167571D01*
X113496913Y-74167487D01*
X113490952Y-74166900D01*
X113455032Y-74166900D01*
X113377136Y-74165808D01*
X113371214Y-74166900D01*
X113275048Y-74166900D01*
X113233199Y-74162778D01*
X113191350Y-74166900D01*
X113191348Y-74166900D01*
X113066179Y-74179228D01*
X112905576Y-74227946D01*
X112757564Y-74307061D01*
X112627830Y-74413530D01*
X112601145Y-74446046D01*
X112431741Y-74615450D01*
X112399231Y-74642130D01*
X112362309Y-74687120D01*
X112292761Y-74771864D01*
X112213646Y-74919877D01*
X112184752Y-75015130D01*
X112165221Y-75079519D01*
X112164929Y-75080480D01*
X112148478Y-75247500D01*
X112152601Y-75289359D01*
X112152601Y-76298305D01*
X112034600Y-76286683D01*
X111434600Y-76286683D01*
X111292083Y-76300720D01*
X111155043Y-76342290D01*
X111099600Y-76371925D01*
X111044157Y-76342290D01*
X110907117Y-76300720D01*
X110764600Y-76286683D01*
X110164600Y-76286683D01*
X110022083Y-76300720D01*
X109885043Y-76342290D01*
X109758747Y-76409797D01*
X109648046Y-76500646D01*
X109557197Y-76611347D01*
X109489690Y-76737643D01*
X109448120Y-76874683D01*
X109434083Y-77017200D01*
X107425356Y-77017200D01*
X107421623Y-70627109D01*
X109701716Y-72907202D01*
X109732314Y-72944486D01*
X109881082Y-73066576D01*
X110050809Y-73157297D01*
X110140373Y-73184466D01*
X110234974Y-73213163D01*
X110426500Y-73232027D01*
X110474493Y-73227300D01*
X113070907Y-73227300D01*
X113118900Y-73232027D01*
X113310425Y-73213163D01*
X113362270Y-73197436D01*
X113494591Y-73157297D01*
X113664318Y-73066576D01*
X113813086Y-72944486D01*
X113843684Y-72907202D01*
X114499707Y-72251180D01*
X114536986Y-72220586D01*
X114659076Y-72071818D01*
X114749797Y-71902091D01*
X114805663Y-71717925D01*
X114819800Y-71574393D01*
X114819800Y-71574391D01*
X114824527Y-71526401D01*
X114819800Y-71478410D01*
X114819800Y-70516308D01*
X114835317Y-70514780D01*
X114972357Y-70473210D01*
X115098653Y-70405703D01*
X115209354Y-70314854D01*
X115300203Y-70204153D01*
X115337904Y-70133619D01*
X115377521Y-70173236D01*
X115635811Y-70345819D01*
X115922806Y-70464696D01*
X116227479Y-70525300D01*
X116348491Y-70525300D01*
X117490650Y-71667460D01*
X117517330Y-71699970D01*
X117549838Y-71726648D01*
X117647063Y-71806439D01*
X117698620Y-71833997D01*
X117795076Y-71885554D01*
X117955679Y-71934272D01*
X118080848Y-71946600D01*
X118080850Y-71946600D01*
X118122699Y-71950722D01*
X118164548Y-71946600D01*
X125751651Y-71946600D01*
X125793500Y-71950722D01*
X125835349Y-71946600D01*
X125835352Y-71946600D01*
X125960521Y-71934272D01*
X126121124Y-71885554D01*
X126269136Y-71806439D01*
X126398870Y-71699970D01*
X126425554Y-71667455D01*
X127002065Y-71090944D01*
X127034575Y-71064265D01*
X127141044Y-70934531D01*
X127220159Y-70786519D01*
X127268877Y-70625916D01*
X127281205Y-70500747D01*
X127281205Y-70500744D01*
X127285327Y-70458895D01*
X127281205Y-70417046D01*
X127281205Y-70030400D01*
X135009128Y-70030400D01*
X135021388Y-70154882D01*
X135057698Y-70274580D01*
X135116663Y-70384894D01*
X135196015Y-70481585D01*
X135292706Y-70560937D01*
X135403020Y-70619902D01*
X135522718Y-70656212D01*
X135647200Y-70668472D01*
X136061450Y-70665400D01*
X136220200Y-70506650D01*
X136220200Y-69644900D01*
X136474200Y-69644900D01*
X136474200Y-70506650D01*
X136632950Y-70665400D01*
X137047200Y-70668472D01*
X137171682Y-70656212D01*
X137291380Y-70619902D01*
X137401694Y-70560937D01*
X137498385Y-70481585D01*
X137577737Y-70384894D01*
X137636702Y-70274580D01*
X137673012Y-70154882D01*
X137685272Y-70030400D01*
X137682395Y-69818039D01*
X140721096Y-69818039D01*
X140761754Y-69952087D01*
X140881963Y-70206420D01*
X141049481Y-70432414D01*
X141257869Y-70621385D01*
X141499119Y-70766070D01*
X141763960Y-70860909D01*
X141986000Y-70739624D01*
X141986000Y-69596000D01*
X142240000Y-69596000D01*
X142240000Y-70739624D01*
X142462040Y-70860909D01*
X142726881Y-70766070D01*
X142968131Y-70621385D01*
X143176519Y-70432414D01*
X143344037Y-70206420D01*
X143464246Y-69952087D01*
X143504904Y-69818039D01*
X143382915Y-69596000D01*
X142240000Y-69596000D01*
X141986000Y-69596000D01*
X140843085Y-69596000D01*
X140721096Y-69818039D01*
X137682395Y-69818039D01*
X137682200Y-69803650D01*
X137523450Y-69644900D01*
X136474200Y-69644900D01*
X136220200Y-69644900D01*
X135170950Y-69644900D01*
X135012200Y-69803650D01*
X135009128Y-70030400D01*
X127281205Y-70030400D01*
X127281205Y-69630704D01*
X130570061Y-66341849D01*
X130602570Y-66315170D01*
X130671532Y-66231139D01*
X130709039Y-66185437D01*
X130788154Y-66037424D01*
X130807782Y-65972717D01*
X130836872Y-65876821D01*
X130849200Y-65751652D01*
X130849200Y-65751649D01*
X130853322Y-65709800D01*
X130849200Y-65667951D01*
X130849200Y-62741749D01*
X130853322Y-62699900D01*
X130848783Y-62653814D01*
X130836872Y-62532879D01*
X130788154Y-62372276D01*
X130709039Y-62224264D01*
X130602570Y-62094530D01*
X130570059Y-62067850D01*
X129960200Y-61457991D01*
X129960200Y-59122248D01*
X129964322Y-59080399D01*
X129952739Y-58962797D01*
X129947872Y-58913379D01*
X129899154Y-58752776D01*
X129874793Y-58707200D01*
X129886140Y-58707200D01*
X129946400Y-58713135D01*
X130006660Y-58707200D01*
X130006668Y-58707200D01*
X130186934Y-58689445D01*
X130418224Y-58619284D01*
X130631383Y-58505349D01*
X130818217Y-58352017D01*
X130856639Y-58305200D01*
X132803406Y-56358434D01*
X132850217Y-56320017D01*
X132890482Y-56270955D01*
X132967263Y-56177397D01*
X133003549Y-56133183D01*
X133117484Y-55920024D01*
X133187645Y-55688734D01*
X133205400Y-55508468D01*
X133205400Y-55508460D01*
X133211335Y-55448200D01*
X133205400Y-55387940D01*
X133205400Y-52829793D01*
X133331610Y-52640906D01*
X133446719Y-52363010D01*
X133505400Y-52067996D01*
X133505400Y-51767204D01*
X133446719Y-51472190D01*
X133331610Y-51194294D01*
X133280365Y-51117600D01*
X138067883Y-51117600D01*
X138067883Y-52717600D01*
X138081920Y-52860117D01*
X138123490Y-52997157D01*
X138190997Y-53123453D01*
X138281846Y-53234154D01*
X138392547Y-53325003D01*
X138518843Y-53392510D01*
X138655883Y-53434080D01*
X138798400Y-53448117D01*
X140398400Y-53448117D01*
X140540917Y-53434080D01*
X140677957Y-53392510D01*
X140804253Y-53325003D01*
X140914954Y-53234154D01*
X141005803Y-53123453D01*
X141073310Y-52997157D01*
X141114880Y-52860117D01*
X141128917Y-52717600D01*
X141128917Y-51117600D01*
X141114880Y-50975083D01*
X141073310Y-50838043D01*
X141005803Y-50711747D01*
X140914954Y-50601046D01*
X140825400Y-50527552D01*
X140825400Y-50289793D01*
X140951610Y-50100906D01*
X141066719Y-49823010D01*
X141125400Y-49527996D01*
X141125400Y-49227204D01*
X141066719Y-48932190D01*
X140951610Y-48654294D01*
X140784499Y-48404194D01*
X140571806Y-48191501D01*
X140321706Y-48024390D01*
X140043810Y-47909281D01*
X139748796Y-47850600D01*
X139448004Y-47850600D01*
X139152990Y-47909281D01*
X138875094Y-48024390D01*
X138624994Y-48191501D01*
X138412301Y-48404194D01*
X138245190Y-48654294D01*
X138130081Y-48932190D01*
X138071400Y-49227204D01*
X138071400Y-49527996D01*
X138130081Y-49823010D01*
X138245190Y-50100906D01*
X138371400Y-50289794D01*
X138371400Y-50527551D01*
X138281846Y-50601046D01*
X138190997Y-50711747D01*
X138123490Y-50838043D01*
X138081920Y-50975083D01*
X138067883Y-51117600D01*
X133280365Y-51117600D01*
X133164499Y-50944194D01*
X132951806Y-50731501D01*
X132826239Y-50647600D01*
X132951806Y-50563699D01*
X133164499Y-50351006D01*
X133331610Y-50100906D01*
X133446719Y-49823010D01*
X133505400Y-49527996D01*
X133505400Y-49227204D01*
X133446719Y-48932190D01*
X133331610Y-48654294D01*
X133164499Y-48404194D01*
X132951806Y-48191501D01*
X132701706Y-48024390D01*
X132423810Y-47909281D01*
X132128796Y-47850600D01*
X131828004Y-47850600D01*
X131532990Y-47909281D01*
X131255094Y-48024390D01*
X131004994Y-48191501D01*
X130795895Y-48400600D01*
X130527793Y-48400600D01*
X130479800Y-48395873D01*
X130288274Y-48414737D01*
X130196192Y-48442670D01*
X130104109Y-48470603D01*
X129934382Y-48561324D01*
X129785614Y-48683414D01*
X129755016Y-48720698D01*
X129086293Y-49389421D01*
X129049015Y-49420014D01*
X129018422Y-49457292D01*
X129018421Y-49457293D01*
X128950117Y-49540522D01*
X128950117Y-49410200D01*
X128936080Y-49267683D01*
X128923193Y-49225200D01*
X128936080Y-49182717D01*
X128950117Y-49040200D01*
X128950117Y-48140200D01*
X128936080Y-47997683D01*
X128923193Y-47955200D01*
X128936080Y-47912717D01*
X128950117Y-47770200D01*
X128950117Y-46870200D01*
X128936080Y-46727683D01*
X128894510Y-46590643D01*
X128827003Y-46464347D01*
X128736154Y-46353646D01*
X128625453Y-46262797D01*
X128499157Y-46195290D01*
X128362117Y-46153720D01*
X128219600Y-46139683D01*
X126219600Y-46139683D01*
X126077083Y-46153720D01*
X125940043Y-46195290D01*
X125813747Y-46262797D01*
X125703046Y-46353646D01*
X125612197Y-46464347D01*
X125544690Y-46590643D01*
X125503120Y-46727683D01*
X125489083Y-46870200D01*
X125489083Y-47770200D01*
X125503120Y-47912717D01*
X125516007Y-47955200D01*
X125503120Y-47997683D01*
X125489083Y-48140200D01*
X125489083Y-49040200D01*
X125503120Y-49182717D01*
X125516007Y-49225200D01*
X125503120Y-49267683D01*
X125489083Y-49410200D01*
X125489083Y-50310200D01*
X125503120Y-50452717D01*
X125516007Y-50495200D01*
X125503120Y-50537683D01*
X125489083Y-50680200D01*
X125489083Y-51580200D01*
X125503120Y-51722717D01*
X125516007Y-51765200D01*
X125503120Y-51807683D01*
X125489083Y-51950200D01*
X125489083Y-52850200D01*
X125503120Y-52992717D01*
X125516007Y-53035200D01*
X125503120Y-53077683D01*
X125489083Y-53220200D01*
X125489083Y-54120200D01*
X125503120Y-54262717D01*
X125516007Y-54305200D01*
X125503120Y-54347683D01*
X125489083Y-54490200D01*
X125489083Y-55390200D01*
X125503120Y-55532717D01*
X125516007Y-55575200D01*
X125503120Y-55617683D01*
X125489083Y-55760200D01*
X125489083Y-56660200D01*
X125503120Y-56802717D01*
X125516007Y-56845200D01*
X125503120Y-56887683D01*
X125489083Y-57030200D01*
X125489083Y-57930200D01*
X125503120Y-58072717D01*
X125516007Y-58115200D01*
X125503120Y-58157683D01*
X125489083Y-58300200D01*
X125489083Y-59200200D01*
X125503120Y-59342717D01*
X125516007Y-59385200D01*
X125503120Y-59427683D01*
X125489083Y-59570200D01*
X125489083Y-60470200D01*
X125503120Y-60612717D01*
X125516007Y-60655200D01*
X125503120Y-60697683D01*
X125489083Y-60840200D01*
X125489083Y-61740200D01*
X125503120Y-61882717D01*
X125516007Y-61925200D01*
X125503120Y-61967683D01*
X125489083Y-62110200D01*
X125489083Y-63010200D01*
X125503120Y-63152717D01*
X125516007Y-63195200D01*
X125503120Y-63237683D01*
X125489083Y-63380200D01*
X125489083Y-63420789D01*
X125401154Y-63313646D01*
X125290453Y-63222797D01*
X125164157Y-63155290D01*
X125027117Y-63113720D01*
X124884600Y-63099683D01*
X123984600Y-63099683D01*
X123842083Y-63113720D01*
X123799600Y-63126607D01*
X123757117Y-63113720D01*
X123614600Y-63099683D01*
X122714600Y-63099683D01*
X122572083Y-63113720D01*
X122529600Y-63126607D01*
X122487117Y-63113720D01*
X122344600Y-63099683D01*
X121444600Y-63099683D01*
X121302083Y-63113720D01*
X121259600Y-63126607D01*
X121217117Y-63113720D01*
X121074600Y-63099683D01*
X120174600Y-63099683D01*
X120032083Y-63113720D01*
X119989600Y-63126607D01*
X119947117Y-63113720D01*
X119804600Y-63099683D01*
X118904600Y-63099683D01*
X118762083Y-63113720D01*
X118719600Y-63126607D01*
X118677117Y-63113720D01*
X118534600Y-63099683D01*
X117634600Y-63099683D01*
X117492083Y-63113720D01*
X117449600Y-63126607D01*
X117407117Y-63113720D01*
X117264600Y-63099683D01*
X116364600Y-63099683D01*
X116222083Y-63113720D01*
X116179600Y-63126607D01*
X116137117Y-63113720D01*
X115994600Y-63099683D01*
X115094600Y-63099683D01*
X114952083Y-63113720D01*
X114909600Y-63126607D01*
X114867117Y-63113720D01*
X114724600Y-63099683D01*
X113824600Y-63099683D01*
X113682083Y-63113720D01*
X113639600Y-63126607D01*
X113597117Y-63113720D01*
X113454600Y-63099683D01*
X112554600Y-63099683D01*
X112412083Y-63113720D01*
X112275043Y-63155290D01*
X112148747Y-63222797D01*
X112038046Y-63313646D01*
X111950117Y-63420789D01*
X111950117Y-63380200D01*
X111936080Y-63237683D01*
X111923193Y-63195200D01*
X111936080Y-63152717D01*
X111950117Y-63010200D01*
X111950117Y-62110200D01*
X111936080Y-61967683D01*
X111923193Y-61925200D01*
X111936080Y-61882717D01*
X111950117Y-61740200D01*
X111950117Y-60840200D01*
X111936080Y-60697683D01*
X111923193Y-60655200D01*
X111936080Y-60612717D01*
X111950117Y-60470200D01*
X111950117Y-59570200D01*
X111936080Y-59427683D01*
X111923193Y-59385200D01*
X111936080Y-59342717D01*
X111950117Y-59200200D01*
X111950117Y-58300200D01*
X111936080Y-58157683D01*
X111923193Y-58115200D01*
X111936080Y-58072717D01*
X111950117Y-57930200D01*
X111950117Y-57030200D01*
X111936080Y-56887683D01*
X111923193Y-56845200D01*
X111936080Y-56802717D01*
X111950117Y-56660200D01*
X111950117Y-55760200D01*
X111936080Y-55617683D01*
X111923193Y-55575200D01*
X111936080Y-55532717D01*
X111950117Y-55390200D01*
X111950117Y-54490200D01*
X111936080Y-54347683D01*
X111923193Y-54305200D01*
X111936080Y-54262717D01*
X111950117Y-54120200D01*
X111950117Y-53220200D01*
X111936080Y-53077683D01*
X111923193Y-53035200D01*
X111936080Y-52992717D01*
X111950117Y-52850200D01*
X111950117Y-51950200D01*
X111936080Y-51807683D01*
X111923193Y-51765200D01*
X111936080Y-51722717D01*
X111950117Y-51580200D01*
X111950117Y-51320200D01*
X114489083Y-51320200D01*
X114489083Y-56320200D01*
X114503120Y-56462717D01*
X114544690Y-56599757D01*
X114612197Y-56726053D01*
X114703046Y-56836754D01*
X114813747Y-56927603D01*
X114940043Y-56995110D01*
X115077083Y-57036680D01*
X115219600Y-57050717D01*
X120219600Y-57050717D01*
X120362117Y-57036680D01*
X120499157Y-56995110D01*
X120625453Y-56927603D01*
X120736154Y-56836754D01*
X120827003Y-56726053D01*
X120894510Y-56599757D01*
X120936080Y-56462717D01*
X120950117Y-56320200D01*
X120950117Y-51320200D01*
X120936080Y-51177683D01*
X120894510Y-51040643D01*
X120827003Y-50914347D01*
X120736154Y-50803646D01*
X120625453Y-50712797D01*
X120499157Y-50645290D01*
X120362117Y-50603720D01*
X120219600Y-50589683D01*
X115219600Y-50589683D01*
X115077083Y-50603720D01*
X114940043Y-50645290D01*
X114813747Y-50712797D01*
X114703046Y-50803646D01*
X114612197Y-50914347D01*
X114544690Y-51040643D01*
X114503120Y-51177683D01*
X114489083Y-51320200D01*
X111950117Y-51320200D01*
X111950117Y-50680200D01*
X111936080Y-50537683D01*
X111923193Y-50495200D01*
X111936080Y-50452717D01*
X111950117Y-50310200D01*
X111950117Y-49410200D01*
X111936080Y-49267683D01*
X111923193Y-49225200D01*
X111936080Y-49182717D01*
X111950117Y-49040200D01*
X111950117Y-48140200D01*
X111936080Y-47997683D01*
X111923193Y-47955200D01*
X111936080Y-47912717D01*
X111950117Y-47770200D01*
X111950117Y-46870200D01*
X111936080Y-46727683D01*
X111894510Y-46590643D01*
X111827003Y-46464347D01*
X111736154Y-46353646D01*
X111625453Y-46262797D01*
X111499157Y-46195290D01*
X111362117Y-46153720D01*
X111219600Y-46139683D01*
X109219600Y-46139683D01*
X109077083Y-46153720D01*
X108940043Y-46195290D01*
X108813747Y-46262797D01*
X108703046Y-46353646D01*
X108612197Y-46464347D01*
X108544690Y-46590643D01*
X108503120Y-46727683D01*
X108489083Y-46870200D01*
X108489083Y-47770200D01*
X108503120Y-47912717D01*
X108516007Y-47955200D01*
X108503120Y-47997683D01*
X108489083Y-48140200D01*
X108489083Y-49040200D01*
X108503120Y-49182717D01*
X108516007Y-49225200D01*
X108503120Y-49267683D01*
X108489083Y-49410200D01*
X108489083Y-50310200D01*
X108503120Y-50452717D01*
X108516007Y-50495200D01*
X108503120Y-50537683D01*
X108489083Y-50680200D01*
X108489083Y-51580200D01*
X108503120Y-51722717D01*
X108516007Y-51765200D01*
X108503120Y-51807683D01*
X108489083Y-51950200D01*
X108489083Y-52850200D01*
X108503120Y-52992717D01*
X108516007Y-53035200D01*
X108503120Y-53077683D01*
X108489083Y-53220200D01*
X108489083Y-54120200D01*
X108503120Y-54262717D01*
X108516007Y-54305200D01*
X108503120Y-54347683D01*
X108489083Y-54490200D01*
X108489083Y-55390200D01*
X108503120Y-55532717D01*
X108516007Y-55575200D01*
X108503120Y-55617683D01*
X108489083Y-55760200D01*
X108489083Y-56660200D01*
X108503120Y-56802717D01*
X108516007Y-56845200D01*
X108503120Y-56887683D01*
X108489083Y-57030200D01*
X108489083Y-57930200D01*
X108503120Y-58072717D01*
X108516007Y-58115200D01*
X108503120Y-58157683D01*
X108489083Y-58300200D01*
X108489083Y-59200200D01*
X108503120Y-59342717D01*
X108516007Y-59385200D01*
X108503120Y-59427683D01*
X108489083Y-59570200D01*
X108489083Y-60470200D01*
X108503120Y-60612717D01*
X108516007Y-60655200D01*
X108503120Y-60697683D01*
X108489083Y-60840200D01*
X108489083Y-61740200D01*
X108503120Y-61882717D01*
X108516007Y-61925200D01*
X108503120Y-61967683D01*
X108489083Y-62110200D01*
X108489083Y-63010200D01*
X108503120Y-63152717D01*
X108516007Y-63195200D01*
X108503120Y-63237683D01*
X108489083Y-63380200D01*
X108489083Y-64280200D01*
X108503120Y-64422717D01*
X108544690Y-64559757D01*
X108612197Y-64686053D01*
X108703046Y-64796754D01*
X108813747Y-64887603D01*
X108940043Y-64955110D01*
X108975844Y-64965970D01*
X107419226Y-66522588D01*
X107407040Y-45660827D01*
X141870688Y-45735303D01*
%TA.AperFunction,Conductor*%
D30*
G36*
X141870688Y-45735303D02*
G01*
X141679841Y-45926150D01*
X141647331Y-45952830D01*
X141620652Y-45985339D01*
X141540861Y-46082564D01*
X141461746Y-46230577D01*
X141435755Y-46316261D01*
X141418039Y-46374665D01*
X141413029Y-46391180D01*
X141396578Y-46558200D01*
X141400701Y-46600059D01*
X141400700Y-52040851D01*
X141396578Y-52082700D01*
X141400700Y-52124549D01*
X141400700Y-52124551D01*
X141413028Y-52249720D01*
X141461746Y-52410323D01*
X141540861Y-52558336D01*
X141576727Y-52602039D01*
X141647330Y-52688070D01*
X141679845Y-52714754D01*
X142374149Y-53409059D01*
X142400830Y-53441570D01*
X142433338Y-53468248D01*
X142530563Y-53548039D01*
X142678576Y-53627154D01*
X142839179Y-53675872D01*
X142940472Y-53685848D01*
X143108352Y-53937098D01*
X143348902Y-54177648D01*
X143631759Y-54366647D01*
X143946053Y-54496832D01*
X144279705Y-54563200D01*
X144619895Y-54563200D01*
X144953547Y-54496832D01*
X145267841Y-54366647D01*
X145550698Y-54177648D01*
X145791248Y-53937098D01*
X145868401Y-53821631D01*
X145868401Y-56284207D01*
X145717317Y-56435291D01*
X145660950Y-56481550D01*
X145563941Y-56599757D01*
X145476378Y-56706453D01*
X145424924Y-56802717D01*
X145339228Y-56963043D01*
X145254771Y-57241458D01*
X145240071Y-57390717D01*
X145226254Y-57531000D01*
X145233400Y-57603553D01*
X145233401Y-60442500D01*
X144732906Y-60442500D01*
X144726115Y-60441248D01*
X144636820Y-60442500D01*
X144595607Y-60442500D01*
X144588766Y-60443174D01*
X144581902Y-60443270D01*
X144541008Y-60447878D01*
X144452075Y-60456637D01*
X144448578Y-60457698D01*
X144395106Y-60459949D01*
X144314901Y-60479442D01*
X144234213Y-60496672D01*
X144177329Y-60521174D01*
X144136312Y-60535526D01*
X144076551Y-60551839D01*
X144075454Y-60552386D01*
X144066425Y-60510105D01*
X144041922Y-60453221D01*
X144027573Y-60412213D01*
X144011260Y-60352452D01*
X143974417Y-60278615D01*
X143939659Y-60203771D01*
X143903105Y-60153755D01*
X143879988Y-60116964D01*
X143850790Y-60062338D01*
X143798448Y-59998559D01*
X143747895Y-59933312D01*
X143701130Y-59892686D01*
X143670413Y-59861968D01*
X143629788Y-59815205D01*
X143564551Y-59764660D01*
X143500762Y-59712310D01*
X143446134Y-59683110D01*
X143409345Y-59659995D01*
X143359329Y-59623441D01*
X143284473Y-59588677D01*
X143210648Y-59551841D01*
X143150890Y-59535529D01*
X143109887Y-59521181D01*
X143052995Y-59496675D01*
X142972277Y-59479439D01*
X142892093Y-59459950D01*
X142830200Y-59457344D01*
X142787040Y-59452481D01*
X142726106Y-59441247D01*
X142643600Y-59442405D01*
X142561095Y-59441247D01*
X142500168Y-59452480D01*
X142456992Y-59457345D01*
X142395106Y-59459950D01*
X142314914Y-59479440D01*
X142234205Y-59496675D01*
X142177320Y-59521178D01*
X142136312Y-59535527D01*
X142076551Y-59551840D01*
X142002714Y-59588683D01*
X141927870Y-59623441D01*
X141877854Y-59659995D01*
X141841063Y-59683112D01*
X141786437Y-59712310D01*
X141722658Y-59764652D01*
X141657411Y-59815205D01*
X141643600Y-59831103D01*
X141629788Y-59815205D01*
X141564551Y-59764660D01*
X141500762Y-59712310D01*
X141446134Y-59683110D01*
X141409345Y-59659995D01*
X141359329Y-59623441D01*
X141284473Y-59588677D01*
X141210648Y-59551841D01*
X141150890Y-59535529D01*
X141109887Y-59521181D01*
X141052995Y-59496675D01*
X140972277Y-59479439D01*
X140892093Y-59459950D01*
X140830200Y-59457344D01*
X140787040Y-59452481D01*
X140726106Y-59441247D01*
X140643600Y-59442405D01*
X140561095Y-59441247D01*
X140500168Y-59452480D01*
X140456992Y-59457345D01*
X140395106Y-59459950D01*
X140314914Y-59479440D01*
X140234205Y-59496675D01*
X140177320Y-59521178D01*
X140136312Y-59535527D01*
X140076551Y-59551840D01*
X140002714Y-59588683D01*
X139927870Y-59623441D01*
X139877854Y-59659995D01*
X139841063Y-59683112D01*
X139786437Y-59712310D01*
X139722658Y-59764652D01*
X139657411Y-59815205D01*
X139616785Y-59861970D01*
X139586067Y-59892687D01*
X139539304Y-59933312D01*
X139488759Y-59998549D01*
X139436409Y-60062338D01*
X139407209Y-60116966D01*
X139384094Y-60153755D01*
X139347540Y-60203771D01*
X139312776Y-60278627D01*
X139275940Y-60352452D01*
X139259628Y-60412210D01*
X139245278Y-60453222D01*
X139220772Y-60510113D01*
X139211745Y-60552387D01*
X139210648Y-60551840D01*
X139150890Y-60535528D01*
X139109878Y-60521178D01*
X139052987Y-60496672D01*
X138972272Y-60479436D01*
X138892093Y-60459949D01*
X138838622Y-60457698D01*
X138835125Y-60456637D01*
X138746192Y-60447878D01*
X138705298Y-60443270D01*
X138698434Y-60443174D01*
X138691593Y-60442500D01*
X138650380Y-60442500D01*
X138561086Y-60441248D01*
X138554295Y-60442500D01*
X136841434Y-60442500D01*
X136747824Y-60365677D01*
X136579386Y-60275645D01*
X136396620Y-60220203D01*
X136206550Y-60201483D01*
X135294050Y-60201483D01*
X135103980Y-60220203D01*
X134921214Y-60275645D01*
X134752776Y-60365677D01*
X134605139Y-60486839D01*
X134483977Y-60634476D01*
X134393945Y-60802914D01*
X134338503Y-60985680D01*
X134319783Y-61175750D01*
X134319783Y-61663250D01*
X134338503Y-61853320D01*
X134393945Y-62036086D01*
X134483977Y-62204524D01*
X134605139Y-62352161D01*
X134611035Y-62357000D01*
X134605139Y-62361839D01*
X134483977Y-62509476D01*
X134393945Y-62677914D01*
X134338503Y-62860680D01*
X134319783Y-63050750D01*
X134319783Y-63538250D01*
X134338503Y-63728320D01*
X134393945Y-63911086D01*
X134483977Y-64079524D01*
X134605139Y-64227161D01*
X134752776Y-64348323D01*
X134898301Y-64426108D01*
X134898301Y-64575742D01*
X134894178Y-64617600D01*
X134902028Y-64697293D01*
X134910629Y-64784621D01*
X134917958Y-64808782D01*
X134959346Y-64945223D01*
X135038461Y-65093236D01*
X135095449Y-65162676D01*
X135144931Y-65222970D01*
X135177441Y-65249650D01*
X135495200Y-65567410D01*
X135495201Y-66538830D01*
X135352453Y-66615130D01*
X135203869Y-66737069D01*
X135081930Y-66885653D01*
X134991320Y-67055172D01*
X134935523Y-67239110D01*
X134916683Y-67430399D01*
X134916683Y-67955401D01*
X134935523Y-68146690D01*
X134991320Y-68330628D01*
X135081930Y-68500147D01*
X135161159Y-68596688D01*
X135116663Y-68650906D01*
X135057698Y-68761220D01*
X135021388Y-68880918D01*
X135009128Y-69005400D01*
X135012200Y-69232150D01*
X135170950Y-69390900D01*
X136220200Y-69390900D01*
X136220200Y-69370900D01*
X136474200Y-69370900D01*
X136474200Y-69390900D01*
X137523450Y-69390900D01*
X137682200Y-69232150D01*
X137683719Y-69119961D01*
X140721096Y-69119961D01*
X140843085Y-69342000D01*
X141986000Y-69342000D01*
X141986000Y-68198376D01*
X142240000Y-68198376D01*
X142240000Y-69342000D01*
X143382915Y-69342000D01*
X143504904Y-69119961D01*
X143464246Y-68985913D01*
X143344037Y-68731580D01*
X143176519Y-68505586D01*
X142968131Y-68316615D01*
X142726881Y-68171930D01*
X142462040Y-68077091D01*
X142240000Y-68198376D01*
X141986000Y-68198376D01*
X141763960Y-68077091D01*
X141499119Y-68171930D01*
X141257869Y-68316615D01*
X141049481Y-68505586D01*
X140881963Y-68731580D01*
X140761754Y-68985913D01*
X140721096Y-69119961D01*
X137683719Y-69119961D01*
X137685272Y-69005400D01*
X137673012Y-68880918D01*
X137636702Y-68761220D01*
X137577737Y-68650906D01*
X137533241Y-68596688D01*
X137612470Y-68500147D01*
X137703080Y-68330628D01*
X137758877Y-68146690D01*
X137777717Y-67955401D01*
X137777717Y-67430399D01*
X137758877Y-67239110D01*
X137703080Y-67055172D01*
X137612470Y-66885653D01*
X137490531Y-66737069D01*
X137341947Y-66615130D01*
X137199200Y-66538830D01*
X137199200Y-65256348D01*
X137203322Y-65214499D01*
X137198218Y-65162676D01*
X137186872Y-65047479D01*
X137138154Y-64886876D01*
X137120134Y-64853164D01*
X137059039Y-64738863D01*
X136993868Y-64659452D01*
X136952570Y-64609130D01*
X136920060Y-64582451D01*
X136707491Y-64369881D01*
X136747824Y-64348323D01*
X136895461Y-64227161D01*
X137016623Y-64079524D01*
X137106655Y-63911086D01*
X137162097Y-63728320D01*
X137180817Y-63538250D01*
X137180817Y-63050750D01*
X137162097Y-62860680D01*
X137106655Y-62677914D01*
X137016623Y-62509476D01*
X136923906Y-62396500D01*
X138249029Y-62396500D01*
X138259628Y-62426790D01*
X138275940Y-62486548D01*
X138312776Y-62560373D01*
X138347540Y-62635229D01*
X138384094Y-62685245D01*
X138407209Y-62722034D01*
X138436409Y-62776662D01*
X138488759Y-62840451D01*
X138539304Y-62905688D01*
X138586067Y-62946313D01*
X138616785Y-62977030D01*
X138657411Y-63023795D01*
X138722658Y-63074348D01*
X138786437Y-63126690D01*
X138841063Y-63155888D01*
X138877854Y-63179005D01*
X138927870Y-63215559D01*
X139002714Y-63250317D01*
X139076551Y-63287160D01*
X139136312Y-63303473D01*
X139177320Y-63317822D01*
X139234205Y-63342325D01*
X139314914Y-63359560D01*
X139395106Y-63379050D01*
X139456992Y-63381655D01*
X139500168Y-63386520D01*
X139561095Y-63397753D01*
X139643600Y-63396595D01*
X139726106Y-63397753D01*
X139787040Y-63386519D01*
X139830200Y-63381656D01*
X139892093Y-63379050D01*
X139972277Y-63359561D01*
X140052995Y-63342325D01*
X140109887Y-63317819D01*
X140150890Y-63303471D01*
X140210648Y-63287159D01*
X140284473Y-63250323D01*
X140359329Y-63215559D01*
X140409345Y-63179005D01*
X140446134Y-63155890D01*
X140500762Y-63126690D01*
X140564551Y-63074340D01*
X140629788Y-63023795D01*
X140643600Y-63007897D01*
X140657411Y-63023795D01*
X140722658Y-63074348D01*
X140786437Y-63126690D01*
X140841063Y-63155888D01*
X140877854Y-63179005D01*
X140927870Y-63215559D01*
X141002714Y-63250317D01*
X141076551Y-63287160D01*
X141136312Y-63303473D01*
X141177320Y-63317822D01*
X141234205Y-63342325D01*
X141314914Y-63359560D01*
X141395106Y-63379050D01*
X141456992Y-63381655D01*
X141500168Y-63386520D01*
X141561095Y-63397753D01*
X141643600Y-63396595D01*
X141726106Y-63397753D01*
X141787040Y-63386519D01*
X141830200Y-63381656D01*
X141892093Y-63379050D01*
X141972277Y-63359561D01*
X142052995Y-63342325D01*
X142109887Y-63317819D01*
X142150890Y-63303471D01*
X142210648Y-63287159D01*
X142284473Y-63250323D01*
X142359329Y-63215559D01*
X142409345Y-63179005D01*
X142446134Y-63155890D01*
X142500762Y-63126690D01*
X142564551Y-63074340D01*
X142629788Y-63023795D01*
X142643600Y-63007897D01*
X142657411Y-63023795D01*
X142722658Y-63074348D01*
X142786437Y-63126690D01*
X142841063Y-63155888D01*
X142877854Y-63179005D01*
X142927870Y-63215559D01*
X143002714Y-63250317D01*
X143076551Y-63287160D01*
X143136312Y-63303473D01*
X143177320Y-63317822D01*
X143234205Y-63342325D01*
X143314914Y-63359560D01*
X143395106Y-63379050D01*
X143456992Y-63381655D01*
X143500168Y-63386520D01*
X143561095Y-63397753D01*
X143643600Y-63396595D01*
X143726106Y-63397753D01*
X143787040Y-63386519D01*
X143830200Y-63381656D01*
X143892093Y-63379050D01*
X143972277Y-63359561D01*
X144052995Y-63342325D01*
X144109887Y-63317819D01*
X144150890Y-63303471D01*
X144210648Y-63287159D01*
X144284473Y-63250323D01*
X144359329Y-63215559D01*
X144409345Y-63179005D01*
X144446134Y-63155890D01*
X144500762Y-63126690D01*
X144564551Y-63074340D01*
X144629788Y-63023795D01*
X144670413Y-62977032D01*
X144701130Y-62946314D01*
X144747895Y-62905688D01*
X144798448Y-62840441D01*
X144850790Y-62776662D01*
X144879988Y-62722036D01*
X144903105Y-62685245D01*
X144939659Y-62635229D01*
X144974417Y-62560385D01*
X145011260Y-62486548D01*
X145027573Y-62426787D01*
X145038170Y-62396500D01*
X145424943Y-62396500D01*
X145446627Y-62428952D01*
X145673248Y-62655573D01*
X145939727Y-62833628D01*
X146235822Y-62956275D01*
X146550155Y-63018800D01*
X146800514Y-63018800D01*
X145189898Y-64629416D01*
X145152614Y-64660014D01*
X145030524Y-64808782D01*
X144939804Y-64978509D01*
X144939803Y-64978510D01*
X144883937Y-65162675D01*
X144865073Y-65354200D01*
X144869800Y-65402193D01*
X144869801Y-68303397D01*
X144865073Y-68351400D01*
X144883937Y-68542925D01*
X144939803Y-68727090D01*
X145030525Y-68896818D01*
X145112162Y-68996293D01*
X145152615Y-69045586D01*
X145189893Y-69076179D01*
X146239620Y-70125907D01*
X146270214Y-70163186D01*
X146418982Y-70285276D01*
X146532250Y-70345819D01*
X146588709Y-70375997D01*
X146772874Y-70431863D01*
X146964399Y-70450727D01*
X147012392Y-70446000D01*
X148550495Y-70446000D01*
X148759594Y-70655099D01*
X149009694Y-70822210D01*
X149287590Y-70937319D01*
X149582604Y-70996000D01*
X149883396Y-70996000D01*
X150178410Y-70937319D01*
X150456306Y-70822210D01*
X150706406Y-70655099D01*
X150919099Y-70442406D01*
X151086210Y-70192306D01*
X151201319Y-69914410D01*
X151260000Y-69619396D01*
X151260000Y-69318604D01*
X151201319Y-69023590D01*
X151086210Y-68745694D01*
X150919099Y-68495594D01*
X150706406Y-68282901D01*
X150456306Y-68115790D01*
X150178410Y-68000681D01*
X149883396Y-67942000D01*
X149582604Y-67942000D01*
X149287590Y-68000681D01*
X149009694Y-68115790D01*
X148759594Y-68282901D01*
X148550495Y-68492000D01*
X147369087Y-68492000D01*
X146823800Y-67946714D01*
X146823800Y-65758886D01*
X149560370Y-63022317D01*
X150150400Y-63022317D01*
X150292917Y-63008280D01*
X150429957Y-62966710D01*
X150556253Y-62899203D01*
X150666954Y-62808354D01*
X150757803Y-62697653D01*
X150825310Y-62571357D01*
X150866880Y-62434317D01*
X150880917Y-62291800D01*
X150880917Y-60491800D01*
X150866880Y-60349283D01*
X150825310Y-60212243D01*
X150757803Y-60085947D01*
X150666954Y-59975246D01*
X150556253Y-59884397D01*
X150429957Y-59816890D01*
X150292917Y-59775320D01*
X150150400Y-59761283D01*
X148350400Y-59761283D01*
X148207883Y-59775320D01*
X148187400Y-59781533D01*
X148187400Y-58142792D01*
X148338483Y-57991709D01*
X148394850Y-57945450D01*
X148527638Y-57783646D01*
X148579423Y-57720547D01*
X148716572Y-57463958D01*
X148718245Y-57458444D01*
X148801029Y-57185543D01*
X148822400Y-56968556D01*
X148822400Y-56968553D01*
X148829546Y-56896000D01*
X148822400Y-56823447D01*
X148822400Y-51718200D01*
X148972247Y-51718200D01*
X149044800Y-51725346D01*
X149117353Y-51718200D01*
X149117356Y-51718200D01*
X149334343Y-51696829D01*
X149612758Y-51612372D01*
X149869347Y-51475222D01*
X150094250Y-51290650D01*
X150140508Y-51234284D01*
X151359192Y-50015600D01*
X151453547Y-49996832D01*
X151763901Y-49868279D01*
X151763901Y-50817189D01*
X151413490Y-51167600D01*
X151119895Y-51109200D01*
X150779705Y-51109200D01*
X150446053Y-51175568D01*
X150131759Y-51305753D01*
X149848902Y-51494752D01*
X149608352Y-51735302D01*
X149419353Y-52018159D01*
X149289168Y-52332453D01*
X149222800Y-52666105D01*
X149222800Y-53006295D01*
X149289168Y-53339947D01*
X149419353Y-53654241D01*
X149608352Y-53937098D01*
X149848902Y-54177648D01*
X150131759Y-54366647D01*
X150446053Y-54496832D01*
X150779705Y-54563200D01*
X151119895Y-54563200D01*
X151453547Y-54496832D01*
X151767841Y-54366647D01*
X152050698Y-54177648D01*
X152291248Y-53937098D01*
X152480247Y-53654241D01*
X152610432Y-53339947D01*
X152676800Y-53006295D01*
X152676800Y-52666105D01*
X152618400Y-52372510D01*
X152918000Y-52072910D01*
X152918001Y-87640000D01*
X107431560Y-87640000D01*
X107425356Y-77017200D01*
X109434083Y-77017200D01*
X109434083Y-79017200D01*
X109448120Y-79159717D01*
X109489690Y-79296757D01*
X109557197Y-79423053D01*
X109648046Y-79533754D01*
X109758747Y-79624603D01*
X109885043Y-79692110D01*
X110022083Y-79733680D01*
X110164600Y-79747717D01*
X110757601Y-79747717D01*
X110757601Y-80088997D01*
X110752873Y-80137000D01*
X110771737Y-80328525D01*
X110827603Y-80512690D01*
X110918325Y-80682418D01*
X110995207Y-80776099D01*
X111040415Y-80831186D01*
X111077693Y-80861779D01*
X111405466Y-81189552D01*
X111292083Y-81200720D01*
X111155043Y-81242290D01*
X111099600Y-81271925D01*
X111044157Y-81242290D01*
X110907117Y-81200720D01*
X110764600Y-81186683D01*
X110164600Y-81186683D01*
X110022083Y-81200720D01*
X109885043Y-81242290D01*
X109758747Y-81309797D01*
X109648046Y-81400646D01*
X109557197Y-81511347D01*
X109489690Y-81637643D01*
X109448120Y-81774683D01*
X109434083Y-81917200D01*
X109434083Y-83917200D01*
X109448120Y-84059717D01*
X109489690Y-84196757D01*
X109557197Y-84323053D01*
X109648046Y-84433754D01*
X109758747Y-84524603D01*
X109885043Y-84592110D01*
X110022083Y-84633680D01*
X110164600Y-84647717D01*
X110764600Y-84647717D01*
X110907117Y-84633680D01*
X111044157Y-84592110D01*
X111099600Y-84562475D01*
X111155043Y-84592110D01*
X111292083Y-84633680D01*
X111434600Y-84647717D01*
X112034600Y-84647717D01*
X112177117Y-84633680D01*
X112314157Y-84592110D01*
X112369600Y-84562475D01*
X112425043Y-84592110D01*
X112562083Y-84633680D01*
X112704600Y-84647717D01*
X113304600Y-84647717D01*
X113447117Y-84633680D01*
X113584157Y-84592110D01*
X113639600Y-84562475D01*
X113695043Y-84592110D01*
X113832083Y-84633680D01*
X113974600Y-84647717D01*
X114574600Y-84647717D01*
X114717117Y-84633680D01*
X114854157Y-84592110D01*
X114980453Y-84524603D01*
X115091154Y-84433754D01*
X115182003Y-84323053D01*
X115249510Y-84196757D01*
X115291080Y-84059717D01*
X115305117Y-83917200D01*
X115305117Y-81917200D01*
X115291080Y-81774683D01*
X115249510Y-81637643D01*
X115182003Y-81511347D01*
X115091154Y-81400646D01*
X114980453Y-81309797D01*
X114854157Y-81242290D01*
X114717117Y-81200720D01*
X114574600Y-81186683D01*
X114555803Y-81186683D01*
X114931502Y-80810984D01*
X114968786Y-80780386D01*
X115090876Y-80631618D01*
X115181597Y-80461891D01*
X115205802Y-80382098D01*
X115237463Y-80277726D01*
X115256327Y-80086200D01*
X115251600Y-80038207D01*
X115251600Y-79289867D01*
X115291080Y-79159717D01*
X115305117Y-79017200D01*
X115305117Y-77017200D01*
X115291080Y-76874683D01*
X115290132Y-76871558D01*
X115321053Y-76871992D01*
X115374177Y-76862198D01*
X115381564Y-76861365D01*
X115435536Y-76859093D01*
X115505456Y-76842099D01*
X115575844Y-76827068D01*
X115625460Y-76805696D01*
X115632465Y-76803245D01*
X115684579Y-76789019D01*
X115748983Y-76756884D01*
X115814241Y-76726577D01*
X115849100Y-76701101D01*
X115883958Y-76726577D01*
X115949212Y-76756882D01*
X116013620Y-76789020D01*
X116065745Y-76803248D01*
X116072738Y-76805695D01*
X116122356Y-76827068D01*
X116192741Y-76842098D01*
X116262663Y-76859093D01*
X116316636Y-76861365D01*
X116324012Y-76862197D01*
X116377148Y-76871993D01*
X116449115Y-76870983D01*
X116521053Y-76871992D01*
X116574177Y-76862198D01*
X116581564Y-76861365D01*
X116635536Y-76859093D01*
X116705456Y-76842099D01*
X116775844Y-76827068D01*
X116825460Y-76805696D01*
X116832465Y-76803245D01*
X116884579Y-76789019D01*
X116948983Y-76756884D01*
X117014241Y-76726577D01*
X117049100Y-76701101D01*
X117083958Y-76726577D01*
X117149212Y-76756882D01*
X117213620Y-76789020D01*
X117265745Y-76803248D01*
X117272738Y-76805695D01*
X117322356Y-76827068D01*
X117392741Y-76842098D01*
X117462663Y-76859093D01*
X117516636Y-76861365D01*
X117524012Y-76862197D01*
X117577148Y-76871993D01*
X117649115Y-76870983D01*
X117721053Y-76871992D01*
X117774177Y-76862198D01*
X117781564Y-76861365D01*
X117835536Y-76859093D01*
X117905456Y-76842099D01*
X117975844Y-76827068D01*
X118025460Y-76805696D01*
X118032465Y-76803245D01*
X118084579Y-76789019D01*
X118148983Y-76756884D01*
X118214241Y-76726577D01*
X118249100Y-76701101D01*
X118283958Y-76726577D01*
X118349212Y-76756882D01*
X118413620Y-76789020D01*
X118465745Y-76803248D01*
X118472738Y-76805695D01*
X118522356Y-76827068D01*
X118592741Y-76842098D01*
X118662663Y-76859093D01*
X118716636Y-76861365D01*
X118724012Y-76862197D01*
X118777148Y-76871993D01*
X118849115Y-76870983D01*
X118921053Y-76871992D01*
X118974177Y-76862198D01*
X118981564Y-76861365D01*
X119035536Y-76859093D01*
X119105456Y-76842099D01*
X119175844Y-76827068D01*
X119194252Y-76819139D01*
X118896045Y-77117346D01*
X118863530Y-77144030D01*
X118812800Y-77205846D01*
X118757061Y-77273764D01*
X118677947Y-77421776D01*
X118677946Y-77421777D01*
X118629228Y-77582380D01*
X118616973Y-77706806D01*
X118612778Y-77749400D01*
X118616900Y-77791249D01*
X118616900Y-78431451D01*
X118612778Y-78473300D01*
X118616900Y-78515149D01*
X118616900Y-78515152D01*
X118629228Y-78640321D01*
X118651881Y-78714997D01*
X118677946Y-78800923D01*
X118757061Y-78948936D01*
X118809853Y-79013263D01*
X118863531Y-79078670D01*
X118896041Y-79105350D01*
X119160945Y-79370254D01*
X119187630Y-79402770D01*
X119317364Y-79509239D01*
X119465376Y-79588354D01*
X119625979Y-79637072D01*
X119751148Y-79649400D01*
X119751151Y-79649400D01*
X119793000Y-79653522D01*
X119820883Y-79650776D01*
X119820883Y-79872400D01*
X119833195Y-79997400D01*
X119820883Y-80122400D01*
X119820883Y-80672400D01*
X119833195Y-80797400D01*
X119820883Y-80922400D01*
X119820883Y-81472400D01*
X119833195Y-81597400D01*
X119820883Y-81722400D01*
X119820883Y-82272400D01*
X119833195Y-82397400D01*
X119820883Y-82522400D01*
X119820883Y-83072400D01*
X119833195Y-83197400D01*
X119820883Y-83322400D01*
X119820883Y-83872400D01*
X119834920Y-84014917D01*
X119876490Y-84151957D01*
X119943997Y-84278253D01*
X120034846Y-84388954D01*
X120145547Y-84479803D01*
X120271843Y-84547310D01*
X120408883Y-84588880D01*
X120551400Y-84602917D01*
X121695883Y-84602917D01*
X121695883Y-85747400D01*
X121709920Y-85889917D01*
X121751490Y-86026957D01*
X121818997Y-86153253D01*
X121909846Y-86263954D01*
X122020547Y-86354803D01*
X122146843Y-86422310D01*
X122283883Y-86463880D01*
X122426400Y-86477917D01*
X122976400Y-86477917D01*
X123101400Y-86465605D01*
X123226400Y-86477917D01*
X123776400Y-86477917D01*
X123901400Y-86465605D01*
X124026400Y-86477917D01*
X124576400Y-86477917D01*
X124701400Y-86465605D01*
X124826400Y-86477917D01*
X125376400Y-86477917D01*
X125501400Y-86465605D01*
X125626400Y-86477917D01*
X126176400Y-86477917D01*
X126301400Y-86465605D01*
X126426400Y-86477917D01*
X126976400Y-86477917D01*
X127101400Y-86465605D01*
X127226400Y-86477917D01*
X127776400Y-86477917D01*
X127901400Y-86465605D01*
X128026400Y-86477917D01*
X128576400Y-86477917D01*
X128718917Y-86463880D01*
X128855957Y-86422310D01*
X128982253Y-86354803D01*
X129092954Y-86263954D01*
X129183803Y-86153253D01*
X129251310Y-86026957D01*
X129292880Y-85889917D01*
X129306917Y-85747400D01*
X129306917Y-84602917D01*
X130451400Y-84602917D01*
X130593917Y-84588880D01*
X130730957Y-84547310D01*
X130857253Y-84479803D01*
X130967954Y-84388954D01*
X131058803Y-84278253D01*
X131126310Y-84151957D01*
X131167880Y-84014917D01*
X131181917Y-83872400D01*
X131181917Y-83322400D01*
X131169605Y-83197400D01*
X131181917Y-83072400D01*
X131181917Y-82522400D01*
X131169605Y-82397400D01*
X131181917Y-82272400D01*
X131181917Y-81722400D01*
X131169605Y-81597400D01*
X131181917Y-81472400D01*
X131181917Y-80922400D01*
X131169605Y-80797400D01*
X131181917Y-80672400D01*
X131181917Y-80574400D01*
X131846614Y-80574400D01*
X132828690Y-81556477D01*
X132828691Y-82233788D01*
X132823963Y-82281790D01*
X132842827Y-82473315D01*
X132898693Y-82657480D01*
X132965291Y-82782076D01*
X132989415Y-82827208D01*
X133111505Y-82975976D01*
X133148783Y-83006569D01*
X134138300Y-83996087D01*
X134138301Y-84648298D01*
X134133573Y-84696300D01*
X134152437Y-84887825D01*
X134208303Y-85071990D01*
X134299025Y-85241718D01*
X134421115Y-85390486D01*
X134458395Y-85421080D01*
X134631812Y-85594498D01*
X134662414Y-85631786D01*
X134811182Y-85753876D01*
X134980909Y-85844597D01*
X135098936Y-85880400D01*
X135165074Y-85900463D01*
X135338280Y-85917523D01*
X135339520Y-85930117D01*
X135381090Y-86067157D01*
X135448597Y-86193453D01*
X135539446Y-86304154D01*
X135650147Y-86395003D01*
X135776443Y-86462510D01*
X135913483Y-86504080D01*
X136056000Y-86518117D01*
X137756000Y-86518117D01*
X137898517Y-86504080D01*
X138035557Y-86462510D01*
X138161853Y-86395003D01*
X138272554Y-86304154D01*
X138363403Y-86193453D01*
X138430910Y-86067157D01*
X138472480Y-85930117D01*
X138486517Y-85787600D01*
X138486517Y-84087600D01*
X138472480Y-83945083D01*
X138430910Y-83808043D01*
X138363403Y-83681747D01*
X138272554Y-83571046D01*
X138161853Y-83480197D01*
X138091319Y-83442496D01*
X138130936Y-83402879D01*
X138303519Y-83144589D01*
X138422396Y-82857594D01*
X138483000Y-82552921D01*
X138483000Y-82242279D01*
X138422396Y-81937606D01*
X138303519Y-81650611D01*
X138130936Y-81392321D01*
X137911279Y-81172664D01*
X137843836Y-81127600D01*
X137911279Y-81082536D01*
X138130936Y-80862879D01*
X138303519Y-80604589D01*
X138422396Y-80317594D01*
X138483000Y-80012921D01*
X138483000Y-79780661D01*
X138867979Y-80165640D01*
X138909530Y-80216270D01*
X138960160Y-80257821D01*
X138960161Y-80257822D01*
X139111591Y-80382098D01*
X139260872Y-80461890D01*
X139342122Y-80505319D01*
X139592263Y-80581199D01*
X139787216Y-80600400D01*
X139787226Y-80600400D01*
X139852400Y-80606819D01*
X139917574Y-80600400D01*
X141713254Y-80600400D01*
X141672994Y-80627301D01*
X141460301Y-80839994D01*
X141293190Y-81090094D01*
X141178081Y-81367990D01*
X141119400Y-81663004D01*
X141119400Y-81963796D01*
X141178081Y-82258810D01*
X141293190Y-82536706D01*
X141460301Y-82786806D01*
X141672994Y-82999499D01*
X141798561Y-83083400D01*
X141672994Y-83167301D01*
X141460301Y-83379994D01*
X141293190Y-83630094D01*
X141178081Y-83907990D01*
X141119400Y-84203004D01*
X141119400Y-84503796D01*
X141178081Y-84798810D01*
X141293190Y-85076706D01*
X141460301Y-85326806D01*
X141672994Y-85539499D01*
X141923094Y-85706610D01*
X142200990Y-85821719D01*
X142496004Y-85880400D01*
X142796796Y-85880400D01*
X143091810Y-85821719D01*
X143369706Y-85706610D01*
X143619806Y-85539499D01*
X143832499Y-85326806D01*
X143999610Y-85076706D01*
X144114719Y-84798810D01*
X144173400Y-84503796D01*
X144173400Y-84203004D01*
X144114719Y-83907990D01*
X143999610Y-83630094D01*
X143832499Y-83379994D01*
X143619806Y-83167301D01*
X143579546Y-83140400D01*
X146086426Y-83140400D01*
X146151600Y-83146819D01*
X146216774Y-83140400D01*
X146216784Y-83140400D01*
X146411737Y-83121199D01*
X146661878Y-83045319D01*
X146892408Y-82922098D01*
X147094470Y-82756270D01*
X147136025Y-82705635D01*
X147742335Y-82099325D01*
X147792970Y-82057770D01*
X147910141Y-81914997D01*
X147958798Y-81855709D01*
X148082019Y-81625178D01*
X148095759Y-81579883D01*
X148157899Y-81375037D01*
X148177100Y-81180084D01*
X148177100Y-81180075D01*
X148183519Y-81114901D01*
X148177100Y-81049727D01*
X148177100Y-76583004D01*
X148739400Y-76583004D01*
X148739400Y-76883796D01*
X148798081Y-77178810D01*
X148913190Y-77456706D01*
X149080301Y-77706806D01*
X149292994Y-77919499D01*
X149418561Y-78003400D01*
X149292994Y-78087301D01*
X149080301Y-78299994D01*
X148913190Y-78550094D01*
X148798081Y-78827990D01*
X148739400Y-79123004D01*
X148739400Y-79423796D01*
X148798081Y-79718810D01*
X148913190Y-79996706D01*
X149080301Y-80246806D01*
X149292994Y-80459499D01*
X149418561Y-80543400D01*
X149292994Y-80627301D01*
X149080301Y-80839994D01*
X148913190Y-81090094D01*
X148798081Y-81367990D01*
X148739400Y-81663004D01*
X148739400Y-81963796D01*
X148798081Y-82258810D01*
X148913190Y-82536706D01*
X149080301Y-82786806D01*
X149292994Y-82999499D01*
X149418561Y-83083400D01*
X149292994Y-83167301D01*
X149080301Y-83379994D01*
X148913190Y-83630094D01*
X148798081Y-83907990D01*
X148739400Y-84203004D01*
X148739400Y-84503796D01*
X148798081Y-84798810D01*
X148913190Y-85076706D01*
X149080301Y-85326806D01*
X149292994Y-85539499D01*
X149543094Y-85706610D01*
X149820990Y-85821719D01*
X150116004Y-85880400D01*
X150416796Y-85880400D01*
X150711810Y-85821719D01*
X150989706Y-85706610D01*
X151239806Y-85539499D01*
X151452499Y-85326806D01*
X151619610Y-85076706D01*
X151734719Y-84798810D01*
X151793400Y-84503796D01*
X151793400Y-84203004D01*
X151734719Y-83907990D01*
X151619610Y-83630094D01*
X151452499Y-83379994D01*
X151239806Y-83167301D01*
X151114239Y-83083400D01*
X151239806Y-82999499D01*
X151452499Y-82786806D01*
X151619610Y-82536706D01*
X151734719Y-82258810D01*
X151793400Y-81963796D01*
X151793400Y-81663004D01*
X151734719Y-81367990D01*
X151619610Y-81090094D01*
X151452499Y-80839994D01*
X151239806Y-80627301D01*
X151114239Y-80543400D01*
X151239806Y-80459499D01*
X151452499Y-80246806D01*
X151619610Y-79996706D01*
X151734719Y-79718810D01*
X151793400Y-79423796D01*
X151793400Y-79123004D01*
X151734719Y-78827990D01*
X151619610Y-78550094D01*
X151452499Y-78299994D01*
X151239806Y-78087301D01*
X151114239Y-78003400D01*
X151239806Y-77919499D01*
X151452499Y-77706806D01*
X151619610Y-77456706D01*
X151734719Y-77178810D01*
X151793400Y-76883796D01*
X151793400Y-76583004D01*
X151734719Y-76287990D01*
X151619610Y-76010094D01*
X151452499Y-75759994D01*
X151239806Y-75547301D01*
X150989706Y-75380190D01*
X150711810Y-75265081D01*
X150416796Y-75206400D01*
X150116004Y-75206400D01*
X149820990Y-75265081D01*
X149543094Y-75380190D01*
X149292994Y-75547301D01*
X149080301Y-75759994D01*
X148913190Y-76010094D01*
X148798081Y-76287990D01*
X148739400Y-76583004D01*
X148177100Y-76583004D01*
X148177100Y-75503174D01*
X148183519Y-75438000D01*
X148177100Y-75372826D01*
X148177100Y-75372816D01*
X148157899Y-75177863D01*
X148082019Y-74927722D01*
X148065190Y-74896237D01*
X147958798Y-74697191D01*
X147834522Y-74545761D01*
X147834521Y-74545760D01*
X147792970Y-74495130D01*
X147742341Y-74453580D01*
X145929525Y-72640765D01*
X145887970Y-72590130D01*
X145685908Y-72424302D01*
X145455378Y-72301081D01*
X145205237Y-72225201D01*
X145010284Y-72206000D01*
X145010274Y-72206000D01*
X144945100Y-72199581D01*
X144879926Y-72206000D01*
X141149473Y-72206000D01*
X141084299Y-72199581D01*
X141019125Y-72206000D01*
X141019116Y-72206000D01*
X140824163Y-72225201D01*
X140574022Y-72301081D01*
X140343490Y-72424302D01*
X140192061Y-72548578D01*
X140141430Y-72590130D01*
X140099879Y-72640760D01*
X139290040Y-73450600D01*
X137758529Y-73450600D01*
X137652989Y-73380081D01*
X137365994Y-73261204D01*
X137061321Y-73200600D01*
X136750679Y-73200600D01*
X136446006Y-73261204D01*
X136159011Y-73380081D01*
X135900721Y-73552664D01*
X135681064Y-73772321D01*
X135508481Y-74030611D01*
X135389604Y-74317606D01*
X135329000Y-74622279D01*
X135329000Y-74932921D01*
X135389604Y-75237594D01*
X135508481Y-75524589D01*
X135681064Y-75782879D01*
X135900721Y-76002536D01*
X135968164Y-76047600D01*
X135900721Y-76092664D01*
X135681064Y-76312321D01*
X135508481Y-76570611D01*
X135389604Y-76857606D01*
X135329000Y-77162279D01*
X135329000Y-77472921D01*
X135389604Y-77777594D01*
X135508481Y-78064589D01*
X135681064Y-78322879D01*
X135900721Y-78542536D01*
X135968164Y-78587600D01*
X135900721Y-78632664D01*
X135681064Y-78852321D01*
X135662169Y-78880600D01*
X135265987Y-78880600D01*
X133725884Y-77340498D01*
X133695286Y-77303214D01*
X133546518Y-77181124D01*
X133376791Y-77090403D01*
X133192625Y-77034537D01*
X133049093Y-77020400D01*
X133001100Y-77015673D01*
X132953107Y-77020400D01*
X130641652Y-77020400D01*
X130593917Y-77005920D01*
X130451400Y-76991883D01*
X129306917Y-76991883D01*
X129306917Y-75847400D01*
X129292880Y-75704883D01*
X129251310Y-75567843D01*
X129183803Y-75441547D01*
X129092954Y-75330846D01*
X128982253Y-75239997D01*
X128855957Y-75172490D01*
X128718917Y-75130920D01*
X128576400Y-75116883D01*
X128026400Y-75116883D01*
X127901400Y-75129195D01*
X127776400Y-75116883D01*
X127226400Y-75116883D01*
X127101400Y-75129195D01*
X126976400Y-75116883D01*
X126426400Y-75116883D01*
X126301400Y-75129195D01*
X126176400Y-75116883D01*
X125626400Y-75116883D01*
X125501400Y-75129195D01*
X125376400Y-75116883D01*
X124826400Y-75116883D01*
X124701400Y-75129195D01*
X124576400Y-75116883D01*
X124026400Y-75116883D01*
X123901400Y-75129195D01*
X123776400Y-75116883D01*
X123226400Y-75116883D01*
X123101400Y-75129195D01*
X122976400Y-75116883D01*
X122426400Y-75116883D01*
X122283883Y-75130920D01*
X122146843Y-75172490D01*
X122020547Y-75239997D01*
X121909846Y-75330846D01*
X121818997Y-75441547D01*
X121751490Y-75567843D01*
X121709920Y-75704883D01*
X121695883Y-75847400D01*
X121695883Y-76991883D01*
X121270285Y-76991883D01*
X121286472Y-76938521D01*
X121298800Y-76813352D01*
X121298800Y-76813350D01*
X121302922Y-76771501D01*
X121298800Y-76729652D01*
X121298800Y-75695749D01*
X121302922Y-75653900D01*
X121298319Y-75607168D01*
X121286472Y-75486879D01*
X121237754Y-75326276D01*
X121158639Y-75178264D01*
X121052170Y-75048530D01*
X121019660Y-75021851D01*
X120443854Y-74446045D01*
X120417170Y-74413530D01*
X120287436Y-74307061D01*
X120139424Y-74227946D01*
X119978821Y-74179228D01*
X119853652Y-74166900D01*
X119853649Y-74166900D01*
X119811800Y-74162778D01*
X119769951Y-74166900D01*
X119526982Y-74166900D01*
X119521065Y-74165809D01*
X119443195Y-74166900D01*
X119407248Y-74166900D01*
X119401286Y-74167487D01*
X119395303Y-74167571D01*
X119390793Y-74168079D01*
X119389293Y-74132464D01*
X119372301Y-74062552D01*
X119357268Y-73992155D01*
X119335893Y-73942533D01*
X119333448Y-73935546D01*
X119319220Y-73883421D01*
X119287082Y-73819013D01*
X119256777Y-73753759D01*
X119224900Y-73710141D01*
X119220955Y-73703863D01*
X119195488Y-73656218D01*
X119149830Y-73600584D01*
X119105756Y-73543699D01*
X119064976Y-73508272D01*
X119059730Y-73503026D01*
X119024301Y-73462244D01*
X118967416Y-73418170D01*
X118911782Y-73372512D01*
X118864138Y-73347046D01*
X118857856Y-73343098D01*
X118814241Y-73311223D01*
X118748983Y-73280916D01*
X118684579Y-73248781D01*
X118632465Y-73234555D01*
X118625460Y-73232104D01*
X118575844Y-73210732D01*
X118505456Y-73195701D01*
X118435536Y-73178707D01*
X118381564Y-73176435D01*
X118374177Y-73175602D01*
X118321053Y-73165808D01*
X118249115Y-73166817D01*
X118177148Y-73165807D01*
X118124012Y-73175603D01*
X118116636Y-73176435D01*
X118062663Y-73178707D01*
X117992741Y-73195702D01*
X117922356Y-73210732D01*
X117872738Y-73232105D01*
X117865745Y-73234552D01*
X117813620Y-73248780D01*
X117749212Y-73280918D01*
X117683958Y-73311223D01*
X117649100Y-73336699D01*
X117614241Y-73311223D01*
X117548983Y-73280916D01*
X117484579Y-73248781D01*
X117432465Y-73234555D01*
X117425460Y-73232104D01*
X117375844Y-73210732D01*
X117305456Y-73195701D01*
X117235536Y-73178707D01*
X117181564Y-73176435D01*
X117174177Y-73175602D01*
X117121053Y-73165808D01*
X117049115Y-73166817D01*
X116977148Y-73165807D01*
X116924012Y-73175603D01*
X116916636Y-73176435D01*
X116862663Y-73178707D01*
X116792741Y-73195702D01*
X116722356Y-73210732D01*
X116672738Y-73232105D01*
X116665745Y-73234552D01*
X116613620Y-73248780D01*
X116549212Y-73280918D01*
X116483958Y-73311223D01*
X116449100Y-73336699D01*
X116414241Y-73311223D01*
X116348983Y-73280916D01*
X116284579Y-73248781D01*
X116232465Y-73234555D01*
X116225460Y-73232104D01*
X116175844Y-73210732D01*
X116105456Y-73195701D01*
X116035536Y-73178707D01*
X115981564Y-73176435D01*
X115974177Y-73175602D01*
X115921053Y-73165808D01*
X115849115Y-73166817D01*
X115777148Y-73165807D01*
X115724012Y-73175603D01*
X115716636Y-73176435D01*
X115662663Y-73178707D01*
X115592741Y-73195702D01*
X115522356Y-73210732D01*
X115472738Y-73232105D01*
X115465745Y-73234552D01*
X115413620Y-73248780D01*
X115349212Y-73280918D01*
X115283958Y-73311223D01*
X115249100Y-73336699D01*
X115214241Y-73311223D01*
X115148983Y-73280916D01*
X115084579Y-73248781D01*
X115032465Y-73234555D01*
X115025460Y-73232104D01*
X114975844Y-73210732D01*
X114905456Y-73195701D01*
X114835536Y-73178707D01*
X114781564Y-73176435D01*
X114774177Y-73175602D01*
X114721053Y-73165808D01*
X114649115Y-73166817D01*
X114577148Y-73165807D01*
X114524012Y-73175603D01*
X114516636Y-73176435D01*
X114462663Y-73178707D01*
X114392741Y-73195702D01*
X114322356Y-73210732D01*
X114272738Y-73232105D01*
X114265745Y-73234552D01*
X114213620Y-73248780D01*
X114149212Y-73280918D01*
X114083958Y-73311223D01*
X114040340Y-73343100D01*
X114034062Y-73347045D01*
X113986417Y-73372512D01*
X113930783Y-73418170D01*
X113873898Y-73462244D01*
X113838471Y-73503024D01*
X113833225Y-73508270D01*
X113792443Y-73543699D01*
X113748369Y-73600584D01*
X113702711Y-73656218D01*
X113677245Y-73703862D01*
X113673297Y-73710144D01*
X113641422Y-73753759D01*
X113611115Y-73819017D01*
X113578980Y-73883421D01*
X113564754Y-73935535D01*
X113562303Y-73942541D01*
X113540927Y-73992168D01*
X113525899Y-74062550D01*
X113508906Y-74132464D01*
X113507406Y-74168079D01*
X113502897Y-74167571D01*
X113496913Y-74167487D01*
X113490952Y-74166900D01*
X113455032Y-74166900D01*
X113377136Y-74165808D01*
X113371214Y-74166900D01*
X113275048Y-74166900D01*
X113233199Y-74162778D01*
X113191350Y-74166900D01*
X113191348Y-74166900D01*
X113066179Y-74179228D01*
X112905576Y-74227946D01*
X112757564Y-74307061D01*
X112627830Y-74413530D01*
X112601145Y-74446046D01*
X112431741Y-74615450D01*
X112399231Y-74642130D01*
X112362309Y-74687120D01*
X112292761Y-74771864D01*
X112213646Y-74919877D01*
X112184752Y-75015130D01*
X112165221Y-75079519D01*
X112164929Y-75080480D01*
X112148478Y-75247500D01*
X112152601Y-75289359D01*
X112152601Y-76298305D01*
X112034600Y-76286683D01*
X111434600Y-76286683D01*
X111292083Y-76300720D01*
X111155043Y-76342290D01*
X111099600Y-76371925D01*
X111044157Y-76342290D01*
X110907117Y-76300720D01*
X110764600Y-76286683D01*
X110164600Y-76286683D01*
X110022083Y-76300720D01*
X109885043Y-76342290D01*
X109758747Y-76409797D01*
X109648046Y-76500646D01*
X109557197Y-76611347D01*
X109489690Y-76737643D01*
X109448120Y-76874683D01*
X109434083Y-77017200D01*
X107425356Y-77017200D01*
X107421623Y-70627109D01*
X109701716Y-72907202D01*
X109732314Y-72944486D01*
X109881082Y-73066576D01*
X110050809Y-73157297D01*
X110140373Y-73184466D01*
X110234974Y-73213163D01*
X110426500Y-73232027D01*
X110474493Y-73227300D01*
X113070907Y-73227300D01*
X113118900Y-73232027D01*
X113310425Y-73213163D01*
X113362270Y-73197436D01*
X113494591Y-73157297D01*
X113664318Y-73066576D01*
X113813086Y-72944486D01*
X113843684Y-72907202D01*
X114499707Y-72251180D01*
X114536986Y-72220586D01*
X114659076Y-72071818D01*
X114749797Y-71902091D01*
X114805663Y-71717925D01*
X114819800Y-71574393D01*
X114819800Y-71574391D01*
X114824527Y-71526401D01*
X114819800Y-71478410D01*
X114819800Y-70516308D01*
X114835317Y-70514780D01*
X114972357Y-70473210D01*
X115098653Y-70405703D01*
X115209354Y-70314854D01*
X115300203Y-70204153D01*
X115337904Y-70133619D01*
X115377521Y-70173236D01*
X115635811Y-70345819D01*
X115922806Y-70464696D01*
X116227479Y-70525300D01*
X116348491Y-70525300D01*
X117490650Y-71667460D01*
X117517330Y-71699970D01*
X117549838Y-71726648D01*
X117647063Y-71806439D01*
X117698620Y-71833997D01*
X117795076Y-71885554D01*
X117955679Y-71934272D01*
X118080848Y-71946600D01*
X118080850Y-71946600D01*
X118122699Y-71950722D01*
X118164548Y-71946600D01*
X125751651Y-71946600D01*
X125793500Y-71950722D01*
X125835349Y-71946600D01*
X125835352Y-71946600D01*
X125960521Y-71934272D01*
X126121124Y-71885554D01*
X126269136Y-71806439D01*
X126398870Y-71699970D01*
X126425554Y-71667455D01*
X127002065Y-71090944D01*
X127034575Y-71064265D01*
X127141044Y-70934531D01*
X127220159Y-70786519D01*
X127268877Y-70625916D01*
X127281205Y-70500747D01*
X127281205Y-70500744D01*
X127285327Y-70458895D01*
X127281205Y-70417046D01*
X127281205Y-70030400D01*
X135009128Y-70030400D01*
X135021388Y-70154882D01*
X135057698Y-70274580D01*
X135116663Y-70384894D01*
X135196015Y-70481585D01*
X135292706Y-70560937D01*
X135403020Y-70619902D01*
X135522718Y-70656212D01*
X135647200Y-70668472D01*
X136061450Y-70665400D01*
X136220200Y-70506650D01*
X136220200Y-69644900D01*
X136474200Y-69644900D01*
X136474200Y-70506650D01*
X136632950Y-70665400D01*
X137047200Y-70668472D01*
X137171682Y-70656212D01*
X137291380Y-70619902D01*
X137401694Y-70560937D01*
X137498385Y-70481585D01*
X137577737Y-70384894D01*
X137636702Y-70274580D01*
X137673012Y-70154882D01*
X137685272Y-70030400D01*
X137682395Y-69818039D01*
X140721096Y-69818039D01*
X140761754Y-69952087D01*
X140881963Y-70206420D01*
X141049481Y-70432414D01*
X141257869Y-70621385D01*
X141499119Y-70766070D01*
X141763960Y-70860909D01*
X141986000Y-70739624D01*
X141986000Y-69596000D01*
X142240000Y-69596000D01*
X142240000Y-70739624D01*
X142462040Y-70860909D01*
X142726881Y-70766070D01*
X142968131Y-70621385D01*
X143176519Y-70432414D01*
X143344037Y-70206420D01*
X143464246Y-69952087D01*
X143504904Y-69818039D01*
X143382915Y-69596000D01*
X142240000Y-69596000D01*
X141986000Y-69596000D01*
X140843085Y-69596000D01*
X140721096Y-69818039D01*
X137682395Y-69818039D01*
X137682200Y-69803650D01*
X137523450Y-69644900D01*
X136474200Y-69644900D01*
X136220200Y-69644900D01*
X135170950Y-69644900D01*
X135012200Y-69803650D01*
X135009128Y-70030400D01*
X127281205Y-70030400D01*
X127281205Y-69630704D01*
X130570061Y-66341849D01*
X130602570Y-66315170D01*
X130671532Y-66231139D01*
X130709039Y-66185437D01*
X130788154Y-66037424D01*
X130807782Y-65972717D01*
X130836872Y-65876821D01*
X130849200Y-65751652D01*
X130849200Y-65751649D01*
X130853322Y-65709800D01*
X130849200Y-65667951D01*
X130849200Y-62741749D01*
X130853322Y-62699900D01*
X130848783Y-62653814D01*
X130836872Y-62532879D01*
X130788154Y-62372276D01*
X130709039Y-62224264D01*
X130602570Y-62094530D01*
X130570059Y-62067850D01*
X129960200Y-61457991D01*
X129960200Y-59122248D01*
X129964322Y-59080399D01*
X129952739Y-58962797D01*
X129947872Y-58913379D01*
X129899154Y-58752776D01*
X129874793Y-58707200D01*
X129886140Y-58707200D01*
X129946400Y-58713135D01*
X130006660Y-58707200D01*
X130006668Y-58707200D01*
X130186934Y-58689445D01*
X130418224Y-58619284D01*
X130631383Y-58505349D01*
X130818217Y-58352017D01*
X130856639Y-58305200D01*
X132803406Y-56358434D01*
X132850217Y-56320017D01*
X132890482Y-56270955D01*
X132967263Y-56177397D01*
X133003549Y-56133183D01*
X133117484Y-55920024D01*
X133187645Y-55688734D01*
X133205400Y-55508468D01*
X133205400Y-55508460D01*
X133211335Y-55448200D01*
X133205400Y-55387940D01*
X133205400Y-52829793D01*
X133331610Y-52640906D01*
X133446719Y-52363010D01*
X133505400Y-52067996D01*
X133505400Y-51767204D01*
X133446719Y-51472190D01*
X133331610Y-51194294D01*
X133280365Y-51117600D01*
X138067883Y-51117600D01*
X138067883Y-52717600D01*
X138081920Y-52860117D01*
X138123490Y-52997157D01*
X138190997Y-53123453D01*
X138281846Y-53234154D01*
X138392547Y-53325003D01*
X138518843Y-53392510D01*
X138655883Y-53434080D01*
X138798400Y-53448117D01*
X140398400Y-53448117D01*
X140540917Y-53434080D01*
X140677957Y-53392510D01*
X140804253Y-53325003D01*
X140914954Y-53234154D01*
X141005803Y-53123453D01*
X141073310Y-52997157D01*
X141114880Y-52860117D01*
X141128917Y-52717600D01*
X141128917Y-51117600D01*
X141114880Y-50975083D01*
X141073310Y-50838043D01*
X141005803Y-50711747D01*
X140914954Y-50601046D01*
X140825400Y-50527552D01*
X140825400Y-50289793D01*
X140951610Y-50100906D01*
X141066719Y-49823010D01*
X141125400Y-49527996D01*
X141125400Y-49227204D01*
X141066719Y-48932190D01*
X140951610Y-48654294D01*
X140784499Y-48404194D01*
X140571806Y-48191501D01*
X140321706Y-48024390D01*
X140043810Y-47909281D01*
X139748796Y-47850600D01*
X139448004Y-47850600D01*
X139152990Y-47909281D01*
X138875094Y-48024390D01*
X138624994Y-48191501D01*
X138412301Y-48404194D01*
X138245190Y-48654294D01*
X138130081Y-48932190D01*
X138071400Y-49227204D01*
X138071400Y-49527996D01*
X138130081Y-49823010D01*
X138245190Y-50100906D01*
X138371400Y-50289794D01*
X138371400Y-50527551D01*
X138281846Y-50601046D01*
X138190997Y-50711747D01*
X138123490Y-50838043D01*
X138081920Y-50975083D01*
X138067883Y-51117600D01*
X133280365Y-51117600D01*
X133164499Y-50944194D01*
X132951806Y-50731501D01*
X132826239Y-50647600D01*
X132951806Y-50563699D01*
X133164499Y-50351006D01*
X133331610Y-50100906D01*
X133446719Y-49823010D01*
X133505400Y-49527996D01*
X133505400Y-49227204D01*
X133446719Y-48932190D01*
X133331610Y-48654294D01*
X133164499Y-48404194D01*
X132951806Y-48191501D01*
X132701706Y-48024390D01*
X132423810Y-47909281D01*
X132128796Y-47850600D01*
X131828004Y-47850600D01*
X131532990Y-47909281D01*
X131255094Y-48024390D01*
X131004994Y-48191501D01*
X130795895Y-48400600D01*
X130527793Y-48400600D01*
X130479800Y-48395873D01*
X130288274Y-48414737D01*
X130196192Y-48442670D01*
X130104109Y-48470603D01*
X129934382Y-48561324D01*
X129785614Y-48683414D01*
X129755016Y-48720698D01*
X129086293Y-49389421D01*
X129049015Y-49420014D01*
X129018422Y-49457292D01*
X129018421Y-49457293D01*
X128950117Y-49540522D01*
X128950117Y-49410200D01*
X128936080Y-49267683D01*
X128923193Y-49225200D01*
X128936080Y-49182717D01*
X128950117Y-49040200D01*
X128950117Y-48140200D01*
X128936080Y-47997683D01*
X128923193Y-47955200D01*
X128936080Y-47912717D01*
X128950117Y-47770200D01*
X128950117Y-46870200D01*
X128936080Y-46727683D01*
X128894510Y-46590643D01*
X128827003Y-46464347D01*
X128736154Y-46353646D01*
X128625453Y-46262797D01*
X128499157Y-46195290D01*
X128362117Y-46153720D01*
X128219600Y-46139683D01*
X126219600Y-46139683D01*
X126077083Y-46153720D01*
X125940043Y-46195290D01*
X125813747Y-46262797D01*
X125703046Y-46353646D01*
X125612197Y-46464347D01*
X125544690Y-46590643D01*
X125503120Y-46727683D01*
X125489083Y-46870200D01*
X125489083Y-47770200D01*
X125503120Y-47912717D01*
X125516007Y-47955200D01*
X125503120Y-47997683D01*
X125489083Y-48140200D01*
X125489083Y-49040200D01*
X125503120Y-49182717D01*
X125516007Y-49225200D01*
X125503120Y-49267683D01*
X125489083Y-49410200D01*
X125489083Y-50310200D01*
X125503120Y-50452717D01*
X125516007Y-50495200D01*
X125503120Y-50537683D01*
X125489083Y-50680200D01*
X125489083Y-51580200D01*
X125503120Y-51722717D01*
X125516007Y-51765200D01*
X125503120Y-51807683D01*
X125489083Y-51950200D01*
X125489083Y-52850200D01*
X125503120Y-52992717D01*
X125516007Y-53035200D01*
X125503120Y-53077683D01*
X125489083Y-53220200D01*
X125489083Y-54120200D01*
X125503120Y-54262717D01*
X125516007Y-54305200D01*
X125503120Y-54347683D01*
X125489083Y-54490200D01*
X125489083Y-55390200D01*
X125503120Y-55532717D01*
X125516007Y-55575200D01*
X125503120Y-55617683D01*
X125489083Y-55760200D01*
X125489083Y-56660200D01*
X125503120Y-56802717D01*
X125516007Y-56845200D01*
X125503120Y-56887683D01*
X125489083Y-57030200D01*
X125489083Y-57930200D01*
X125503120Y-58072717D01*
X125516007Y-58115200D01*
X125503120Y-58157683D01*
X125489083Y-58300200D01*
X125489083Y-59200200D01*
X125503120Y-59342717D01*
X125516007Y-59385200D01*
X125503120Y-59427683D01*
X125489083Y-59570200D01*
X125489083Y-60470200D01*
X125503120Y-60612717D01*
X125516007Y-60655200D01*
X125503120Y-60697683D01*
X125489083Y-60840200D01*
X125489083Y-61740200D01*
X125503120Y-61882717D01*
X125516007Y-61925200D01*
X125503120Y-61967683D01*
X125489083Y-62110200D01*
X125489083Y-63010200D01*
X125503120Y-63152717D01*
X125516007Y-63195200D01*
X125503120Y-63237683D01*
X125489083Y-63380200D01*
X125489083Y-63420789D01*
X125401154Y-63313646D01*
X125290453Y-63222797D01*
X125164157Y-63155290D01*
X125027117Y-63113720D01*
X124884600Y-63099683D01*
X123984600Y-63099683D01*
X123842083Y-63113720D01*
X123799600Y-63126607D01*
X123757117Y-63113720D01*
X123614600Y-63099683D01*
X122714600Y-63099683D01*
X122572083Y-63113720D01*
X122529600Y-63126607D01*
X122487117Y-63113720D01*
X122344600Y-63099683D01*
X121444600Y-63099683D01*
X121302083Y-63113720D01*
X121259600Y-63126607D01*
X121217117Y-63113720D01*
X121074600Y-63099683D01*
X120174600Y-63099683D01*
X120032083Y-63113720D01*
X119989600Y-63126607D01*
X119947117Y-63113720D01*
X119804600Y-63099683D01*
X118904600Y-63099683D01*
X118762083Y-63113720D01*
X118719600Y-63126607D01*
X118677117Y-63113720D01*
X118534600Y-63099683D01*
X117634600Y-63099683D01*
X117492083Y-63113720D01*
X117449600Y-63126607D01*
X117407117Y-63113720D01*
X117264600Y-63099683D01*
X116364600Y-63099683D01*
X116222083Y-63113720D01*
X116179600Y-63126607D01*
X116137117Y-63113720D01*
X115994600Y-63099683D01*
X115094600Y-63099683D01*
X114952083Y-63113720D01*
X114909600Y-63126607D01*
X114867117Y-63113720D01*
X114724600Y-63099683D01*
X113824600Y-63099683D01*
X113682083Y-63113720D01*
X113639600Y-63126607D01*
X113597117Y-63113720D01*
X113454600Y-63099683D01*
X112554600Y-63099683D01*
X112412083Y-63113720D01*
X112275043Y-63155290D01*
X112148747Y-63222797D01*
X112038046Y-63313646D01*
X111950117Y-63420789D01*
X111950117Y-63380200D01*
X111936080Y-63237683D01*
X111923193Y-63195200D01*
X111936080Y-63152717D01*
X111950117Y-63010200D01*
X111950117Y-62110200D01*
X111936080Y-61967683D01*
X111923193Y-61925200D01*
X111936080Y-61882717D01*
X111950117Y-61740200D01*
X111950117Y-60840200D01*
X111936080Y-60697683D01*
X111923193Y-60655200D01*
X111936080Y-60612717D01*
X111950117Y-60470200D01*
X111950117Y-59570200D01*
X111936080Y-59427683D01*
X111923193Y-59385200D01*
X111936080Y-59342717D01*
X111950117Y-59200200D01*
X111950117Y-58300200D01*
X111936080Y-58157683D01*
X111923193Y-58115200D01*
X111936080Y-58072717D01*
X111950117Y-57930200D01*
X111950117Y-57030200D01*
X111936080Y-56887683D01*
X111923193Y-56845200D01*
X111936080Y-56802717D01*
X111950117Y-56660200D01*
X111950117Y-55760200D01*
X111936080Y-55617683D01*
X111923193Y-55575200D01*
X111936080Y-55532717D01*
X111950117Y-55390200D01*
X111950117Y-54490200D01*
X111936080Y-54347683D01*
X111923193Y-54305200D01*
X111936080Y-54262717D01*
X111950117Y-54120200D01*
X111950117Y-53220200D01*
X111936080Y-53077683D01*
X111923193Y-53035200D01*
X111936080Y-52992717D01*
X111950117Y-52850200D01*
X111950117Y-51950200D01*
X111936080Y-51807683D01*
X111923193Y-51765200D01*
X111936080Y-51722717D01*
X111950117Y-51580200D01*
X111950117Y-51320200D01*
X114489083Y-51320200D01*
X114489083Y-56320200D01*
X114503120Y-56462717D01*
X114544690Y-56599757D01*
X114612197Y-56726053D01*
X114703046Y-56836754D01*
X114813747Y-56927603D01*
X114940043Y-56995110D01*
X115077083Y-57036680D01*
X115219600Y-57050717D01*
X120219600Y-57050717D01*
X120362117Y-57036680D01*
X120499157Y-56995110D01*
X120625453Y-56927603D01*
X120736154Y-56836754D01*
X120827003Y-56726053D01*
X120894510Y-56599757D01*
X120936080Y-56462717D01*
X120950117Y-56320200D01*
X120950117Y-51320200D01*
X120936080Y-51177683D01*
X120894510Y-51040643D01*
X120827003Y-50914347D01*
X120736154Y-50803646D01*
X120625453Y-50712797D01*
X120499157Y-50645290D01*
X120362117Y-50603720D01*
X120219600Y-50589683D01*
X115219600Y-50589683D01*
X115077083Y-50603720D01*
X114940043Y-50645290D01*
X114813747Y-50712797D01*
X114703046Y-50803646D01*
X114612197Y-50914347D01*
X114544690Y-51040643D01*
X114503120Y-51177683D01*
X114489083Y-51320200D01*
X111950117Y-51320200D01*
X111950117Y-50680200D01*
X111936080Y-50537683D01*
X111923193Y-50495200D01*
X111936080Y-50452717D01*
X111950117Y-50310200D01*
X111950117Y-49410200D01*
X111936080Y-49267683D01*
X111923193Y-49225200D01*
X111936080Y-49182717D01*
X111950117Y-49040200D01*
X111950117Y-48140200D01*
X111936080Y-47997683D01*
X111923193Y-47955200D01*
X111936080Y-47912717D01*
X111950117Y-47770200D01*
X111950117Y-46870200D01*
X111936080Y-46727683D01*
X111894510Y-46590643D01*
X111827003Y-46464347D01*
X111736154Y-46353646D01*
X111625453Y-46262797D01*
X111499157Y-46195290D01*
X111362117Y-46153720D01*
X111219600Y-46139683D01*
X109219600Y-46139683D01*
X109077083Y-46153720D01*
X108940043Y-46195290D01*
X108813747Y-46262797D01*
X108703046Y-46353646D01*
X108612197Y-46464347D01*
X108544690Y-46590643D01*
X108503120Y-46727683D01*
X108489083Y-46870200D01*
X108489083Y-47770200D01*
X108503120Y-47912717D01*
X108516007Y-47955200D01*
X108503120Y-47997683D01*
X108489083Y-48140200D01*
X108489083Y-49040200D01*
X108503120Y-49182717D01*
X108516007Y-49225200D01*
X108503120Y-49267683D01*
X108489083Y-49410200D01*
X108489083Y-50310200D01*
X108503120Y-50452717D01*
X108516007Y-50495200D01*
X108503120Y-50537683D01*
X108489083Y-50680200D01*
X108489083Y-51580200D01*
X108503120Y-51722717D01*
X108516007Y-51765200D01*
X108503120Y-51807683D01*
X108489083Y-51950200D01*
X108489083Y-52850200D01*
X108503120Y-52992717D01*
X108516007Y-53035200D01*
X108503120Y-53077683D01*
X108489083Y-53220200D01*
X108489083Y-54120200D01*
X108503120Y-54262717D01*
X108516007Y-54305200D01*
X108503120Y-54347683D01*
X108489083Y-54490200D01*
X108489083Y-55390200D01*
X108503120Y-55532717D01*
X108516007Y-55575200D01*
X108503120Y-55617683D01*
X108489083Y-55760200D01*
X108489083Y-56660200D01*
X108503120Y-56802717D01*
X108516007Y-56845200D01*
X108503120Y-56887683D01*
X108489083Y-57030200D01*
X108489083Y-57930200D01*
X108503120Y-58072717D01*
X108516007Y-58115200D01*
X108503120Y-58157683D01*
X108489083Y-58300200D01*
X108489083Y-59200200D01*
X108503120Y-59342717D01*
X108516007Y-59385200D01*
X108503120Y-59427683D01*
X108489083Y-59570200D01*
X108489083Y-60470200D01*
X108503120Y-60612717D01*
X108516007Y-60655200D01*
X108503120Y-60697683D01*
X108489083Y-60840200D01*
X108489083Y-61740200D01*
X108503120Y-61882717D01*
X108516007Y-61925200D01*
X108503120Y-61967683D01*
X108489083Y-62110200D01*
X108489083Y-63010200D01*
X108503120Y-63152717D01*
X108516007Y-63195200D01*
X108503120Y-63237683D01*
X108489083Y-63380200D01*
X108489083Y-64280200D01*
X108503120Y-64422717D01*
X108544690Y-64559757D01*
X108612197Y-64686053D01*
X108703046Y-64796754D01*
X108813747Y-64887603D01*
X108940043Y-64955110D01*
X108975844Y-64965970D01*
X107419226Y-66522588D01*
X107407040Y-45660827D01*
X141870688Y-45735303D01*
G37*
%TD.AperFunction*%
%TD*%
M02*
